<?xml version="1.0" encoding="UTF-8"?>
<svg version="1.1" xmlns="http://www.w3.org/2000/svg" width="1042" height="1042">
<path d="M0 0 C1.4236084 0.63953613 1.4236084 0.63953613 2.87597656 1.29199219 C16.13551748 7.28277724 28.79621339 14.1700483 41.37255859 21.47753906 C43.72594167 22.84119794 46.08870702 24.18596748 48.45703125 25.5234375 C70.90497042 38.30709813 92.59981429 53.55657499 112.10546875 70.50390625 C114.79314256 72.82161686 117.53557505 75.04080193 120.3125 77.25 C132.44641304 87.17616668 143.47204389 98.37958147 154.5625 109.4375 C155.33767471 110.20865646 155.33767471 110.20865646 156.12850952 110.99539185 C161.97183046 116.81570072 167.66840462 122.7004688 173 129 C173.87694091 130.00969102 174.75450461 131.01884161 175.6328125 132.02734375 C182.49423936 140.03951147 188.96789762 148.30198758 195.29980469 156.73779297 C196.43452676 158.24760554 197.5732152 159.75444516 198.71582031 161.25830078 C244.00342408 220.87888135 294 312.94085924 294 391 C61.35 391 -171.3 391 -411 391 C-411 443.8 -411 496.6 -411 551 C-322.23 551 -233.46 551 -142 551 C-142 691.58 -142 832.16 -142 977 C-187.17915309 981.75570033 -187.17915309 981.75570033 -202 982 C-202.91233398 982.02046387 -203.82466797 982.04092773 -204.76464844 982.06201172 C-288.57089576 983.77900392 -371.17168968 964.50813106 -446 927 C-447.04961914 926.47647949 -448.09923828 925.95295898 -449.18066406 925.41357422 C-484.74379093 907.58862789 -518.04409203 885.20037379 -548 859 C-548.72960937 858.36964844 -549.45921875 857.73929688 -550.2109375 857.08984375 C-552.15210431 855.40570891 -554.07880879 853.70687506 -556 852 C-556.81210937 851.28070312 -557.62421875 850.56140625 -558.4609375 849.8203125 C-562.86995007 845.88794994 -567.15593477 841.89622858 -571.2890625 837.67578125 C-573.12390068 835.87864522 -575.04201275 834.22416351 -577 832.5625 C-580.39066475 829.6404108 -583.27219551 826.50169759 -586.16015625 823.08984375 C-588.13761436 820.84368644 -590.22961266 818.77339653 -592.375 816.6875 C-596.42522084 812.68508952 -600.0076628 808.4435465 -603.5625 804 C-605.75626242 801.29998471 -608.0069233 798.67204242 -610.29516602 796.05297852 C-617.30355032 788.0139163 -623.7528978 779.64083372 -630 771 C-630.55445801 770.23413574 -631.10891602 769.46827148 -631.68017578 768.67919922 C-644.7397566 750.54765024 -656.43671768 731.6853912 -667 712 C-667.46760742 711.13713379 -667.93521484 710.27426758 -668.41699219 709.38525391 C-708.24132916 635.7089179 -728.20336204 552.90590144 -728.25 469.3125 C-728.25067474 468.21729034 -728.25134949 467.12208069 -728.25204468 465.99368286 C-728.16637747 377.77647935 -705.60757155 290.42395312 -617 148 C-616.25234375 147.06929687 -615.5046875 146.13859375 -614.734375 145.1796875 C-612.51011945 142.43537219 -610.26219129 139.71312643 -608 137 C-607.57170898 136.4853418 -607.14341797 135.97068359 -606.70214844 135.44042969 C-592.69532375 118.67028576 -577.69224659 101.87629033 -561 87.72265625 C-558.56610869 85.62627721 -556.22865575 83.4360262 -553.875 81.25 C-548.72832736 76.55702853 -543.35553875 72.24713577 -537.84130859 67.99633789 C-535.39723426 66.10197154 -532.9807176 64.18121921 -530.59082031 62.21899414 C-522.23424407 55.36999343 -513.61892836 49.1256385 -504.59326172 43.18969727 C-502.49556541 41.8095824 -500.40555588 40.41840105 -498.31640625 39.02539062 C-428.20675957 -7.53530017 -348.54314762 -35.17419886 -265 -44 C-263.86997559 -44.12004395 -262.73995117 -44.24008789 -261.57568359 -44.36376953 C-181.85623887 -52.39676959 -98.60412382 -40.23528798 0 0 Z " fill="#EC2E30" transform="translate(738,53)"/>
<path d="M0 0 C80.85 0 161.7 0 245 0 C231.77253217 76.05794003 204.36552435 149.01897957 159 212 C158.1642041 213.16039795 158.1642041 213.16039795 157.31152344 214.34423828 C150.47679172 223.7937868 143.53994125 233.09886581 136 242 C135.10765282 243.06605475 134.21574952 244.13248115 133.32421875 245.19921875 C127.68561659 251.92650562 121.91820571 258.51623197 116 265 C115.18273437 265.91007812 114.36546875 266.82015625 113.5234375 267.7578125 C104.17580633 278.09811246 94.5341921 288.40107046 83.875 297.40625 C81.59616622 299.34325871 79.39675343 301.35905625 77.1875 303.375 C71.93579043 308.10233313 66.52732593 312.5999471 61 317 C60.36594238 317.50660156 59.73188477 318.01320313 59.07861328 318.53515625 C44.11463335 330.45280936 28.62923407 341.52399195 12.5 351.8125 C11.704729 352.32248535 10.90945801 352.8324707 10.09008789 353.35791016 C9.34879639 353.82374512 8.60750488 354.28958008 7.84375 354.76953125 C7.19599609 355.17792236 6.54824219 355.58631348 5.88085938 356.00708008 C4 357 4 357 0 358 C0 239.86 0 121.72 0 0 Z " fill="#EC2E30" transform="translate(786,604)"/>
</svg>
