<?xml version="1.0" encoding="UTF-8"?>
<svg version="1.1" xmlns="http://www.w3.org/2000/svg" width="1920" height="1080">
<path d="M0 0 C633.6 0 1267.2 0 1920 0 C1920 356.4 1920 712.8 1920 1080 C1286.4 1080 652.8 1080 0 1080 C0 723.6 0 367.2 0 0 Z " fill="#41414B" transform="translate(0,0)"/>
<path d="M0 0 C1.7709767 -0.00534175 3.54194885 -0.01241669 5.31291258 -0.02104706 C10.12081712 -0.03948564 14.92840971 -0.0334351 19.73632622 -0.02289402 C24.94437627 -0.01584802 30.15236566 -0.03194058 35.36039734 -0.04489136 C45.54037708 -0.06644692 55.72024466 -0.0664262 65.90023969 -0.05826581 C74.18050954 -0.05194603 82.46074687 -0.05312092 90.74101639 -0.05953789 C91.92300887 -0.06043954 93.10500135 -0.0613412 94.32281179 -0.06227018 C96.72461529 -0.06412152 99.12641879 -0.06598409 101.52822228 -0.06785773 C124.01113166 -0.08440684 146.49397814 -0.07574167 168.97688372 -0.05887216 C189.50893182 -0.04417841 210.04083354 -0.05880422 230.57286279 -0.08764232 C251.69916347 -0.11709219 272.82539672 -0.12799228 293.95171702 -0.11846012 C296.34491323 -0.11743766 298.73810946 -0.11644304 301.13130569 -0.11547661 C302.30854928 -0.11500022 303.48579286 -0.11452383 304.69871049 -0.114033 C312.95961144 -0.11187622 321.220448 -0.12163363 329.48133469 -0.13624763 C339.56230068 -0.15383404 349.64308019 -0.15356346 359.72403906 -0.13089598 C364.85891252 -0.11981087 369.99345821 -0.11646016 375.12831688 -0.13519669 C412.97786168 -0.26294926 442.9645212 4.38080539 471.77700806 30.7021637 C474.64491012 33.60130652 474.70473793 35.46584655 474.75752258 39.43336487 C474.77334885 40.47343185 474.78917511 41.51349884 474.80548096 42.58508301 C474.81759613 43.73102432 474.8297113 44.87696564 474.8421936 46.05763245 C474.85840256 47.26105789 474.87461151 48.46448334 474.89131165 49.70437622 C475.03165303 60.82064269 475.11112033 71.93776043 475.17022991 83.05473328 C475.21473984 91.2666226 475.29175891 99.47683437 475.41181439 107.68797398 C475.49344861 113.46728445 475.53640461 119.24613775 475.55153209 125.02600002 C475.56166487 128.47458385 475.58867475 131.92105602 475.65784264 135.3690033 C476.09221177 157.98848239 476.09221177 157.98848239 472.41256714 163.3711853 C469.91414209 165.91830274 467.62699891 167.70438694 464.56997681 169.5146637 C463.25523425 170.54756456 461.94819164 171.59050946 460.65591431 172.65138245 C459.42967454 173.51705921 458.19249711 174.36744618 456.94497681 175.2021637 C456.2660437 175.65929749 455.5871106 176.11643127 454.88760376 176.5874176 C436.73738417 188.44770861 416.44503086 193.30819563 394.96118164 193.13612366 C393.17085444 193.14046588 391.38053147 193.14699375 389.59021914 193.15548372 C384.72890192 193.17229883 379.86810824 193.1584188 375.00681925 193.13896894 C369.741593 193.12342249 364.47642602 193.13697435 359.2111969 193.14671326 C348.92022311 193.16118125 338.62944778 193.14906541 328.33849286 193.12760001 C316.33754534 193.1034939 304.33664238 193.10531026 292.33567603 193.10790592 C270.91471184 193.11158968 249.49384068 193.09082529 228.07290649 193.05665588 C207.31734873 193.02356045 186.56188855 193.00939979 165.80630493 193.01564026 C143.16685918 193.02241372 120.52745419 193.01991753 97.88801444 193.00028086 C96.68940813 192.99924137 95.49080182 192.99820189 94.2558741 192.9971309 C91.84900012 192.99504012 89.44212615 192.99292914 87.03525221 192.99079773 C78.68232548 192.98392066 70.32941136 192.98322972 61.97648239 192.98468018 C51.79002973 192.98612413 41.6036563 192.97635164 31.41722988 192.95273381 C26.22622631 192.94092464 21.03533279 192.93371469 15.84431648 192.93957138 C11.08233974 192.94478505 6.32059443 192.93590906 1.55865712 192.91629678 C-0.15371112 192.91160024 -1.86610223 192.91180087 -3.57846673 192.91770715 C-18.19511098 192.96320832 -32.82773547 191.92536505 -46.30502319 185.7646637 C-47.49696289 185.23969299 -47.49696289 185.23969299 -48.71298218 184.70411682 C-72.33165664 174.04306021 -91.94955418 154.83152873 -101.43002319 130.5146637 C-109.81060109 105.8106417 -110.09968591 80.5982621 -99.04721069 56.6787262 C-86.88625529 32.88555259 -66.44868317 14.49366827 -41.12951529 5.65962595 C-27.48662822 1.43726507 -14.22082144 -0.07642594 0 0 Z " fill="#4F4F59" transform="translate(1445.4300231933594,550.4853363037109)"/>
<path d="M0 0 C1.25488214 -0.00170885 2.50976429 -0.0034177 3.80267316 -0.00517833 C7.25534759 -0.00961506 10.70789611 -0.00169934 14.16055453 0.00837779 C17.8952288 0.0170635 21.62989671 0.01408853 25.36457825 0.01257324 C31.82507174 0.01152761 38.28552464 0.01777043 44.74600792 0.02904892 C54.08662663 0.04534478 63.42722584 0.0505161 72.76785723 0.0530249 C87.9246204 0.05739561 103.08136196 0.07068773 118.2381134 0.08963013 C132.95621128 0.10800511 147.67430326 0.12213074 162.39241028 0.13064575 C163.30980073 0.13118175 164.22719118 0.13171774 165.17238134 0.13226998 C172.34762134 0.13642914 179.52286146 0.14034288 186.69810164 0.14417911 C221.83149453 0.16302587 256.96483331 0.20326735 292.09822083 0.24050903 C292.09822083 63.60050903 292.09822083 126.96050903 292.09822083 192.24050903 C216.86681103 192.40183443 216.86681103 192.40183443 185.36775208 192.43582153 C178.15893009 192.44365202 170.95010846 192.45173366 163.74128723 192.4602356 C162.83788491 192.46129059 161.93448258 192.46234559 161.00370443 192.46343255 C146.4538485 192.48078948 131.90405634 192.51230232 117.35423812 192.54912022 C102.40182144 192.58663892 87.44943795 192.60876789 72.49697614 192.61686301 C63.28411602 192.62232822 54.07143616 192.63953561 44.85863158 192.6721749 C38.52533529 192.69345803 32.19213102 192.69967819 25.85880163 192.69451454 C22.21477115 192.691974 18.57105374 192.6956303 14.92708015 192.71733093 C-19.65184044 192.91264375 -48.2478243 186.46260654 -73.83927917 161.74050903 C-82.95350402 152.64802268 -90.57582578 141.39952805 -94.90177917 129.24050903 C-95.12736511 128.62385376 -95.35295105 128.00719849 -95.58537292 127.37185669 C-103.43908659 105.10021057 -102.17603493 79.79408666 -92.90177917 58.24050903 C-92.4815448 57.25050903 -92.06131042 56.26050903 -91.62834167 55.24050903 C-81.17584607 32.52294632 -60.74409174 15.62105504 -37.90177917 6.24050903 C-25.41279439 1.85566171 -13.19487114 -0.06657077 0 0 Z " fill="#4F4F59" transform="translate(1627.9017791748047,334.7594909667969)"/>
<path d="M0 0 C0.94857305 -0.00594224 1.89714611 -0.01188449 2.8744638 -0.0180068 C6.02586331 -0.03523083 9.17710954 -0.03838447 12.32855225 -0.04138184 C14.59972451 -0.05064916 16.8708937 -0.06069994 19.14205933 -0.07147217 C25.29563953 -0.09762619 31.44917617 -0.11059266 37.60280323 -0.11949348 C41.45676309 -0.1253726 45.31071128 -0.13358567 49.16466522 -0.14250183 C59.8673835 -0.16670606 70.57008746 -0.18747242 81.27283096 -0.19425201 C81.95636642 -0.19469115 82.63990188 -0.19513028 83.34415053 -0.19558272 C84.37170561 -0.19623755 84.37170561 -0.19623755 85.42001939 -0.19690561 C86.80782462 -0.1977925 88.19562984 -0.19868562 89.58343506 -0.19958496 C90.27181307 -0.20002782 90.96019108 -0.20047068 91.66942903 -0.20092696 C102.79587759 -0.20880429 113.9220627 -0.24366071 125.04840973 -0.29030401 C136.51396001 -0.33797483 147.97934121 -0.3621531 159.44499564 -0.36498785 C165.86538402 -0.3670722 172.28540065 -0.37863337 178.70569611 -0.41462708 C184.75685182 -0.44789217 190.80736246 -0.45175495 196.85857773 -0.43434906 C199.06179168 -0.43282413 201.26504251 -0.4412812 203.46816635 -0.46126556 C233.30907757 -0.71575717 258.63862566 8.40166684 280.59320068 28.82775879 C300.2112298 48.32162317 308.49778531 72.15620165 309.37445068 99.40588379 C308.75926973 125.96722611 295.09828615 149.41271705 276.31585693 167.39416504 C264.10666889 178.56348868 247.16570995 186.86827204 231.06195068 190.28088379 C230.28100666 190.45832721 229.50006264 190.63577063 228.69545364 190.81859112 C218.30440626 192.88051282 207.84403537 192.56941143 197.29925537 192.55554199 C195.1067233 192.55989517 192.91419275 192.56508033 190.72166443 192.57102966 C184.79378655 192.58436686 178.86597264 192.58500414 172.9380827 192.58246636 C167.97578303 192.58139289 163.01349612 192.58628971 158.0511992 192.59107178 C145.66726918 192.60278127 133.28337054 192.60195239 120.89943865 192.59551498 C110.84631811 192.59067134 100.79327812 192.59923404 90.74017334 192.61706543 C79.03068239 192.63775994 67.32124755 192.64815485 55.61173749 192.64448994 C49.42643635 192.64268379 43.24121852 192.64524614 37.05593109 192.65920448 C31.23471881 192.67185073 25.41368755 192.66977479 19.5924778 192.65679359 C17.46738687 192.65444287 15.34228294 192.6571079 13.21720695 192.66541672 C-18.50701935 192.78042064 -45.14388808 183.8117705 -68.62554932 162.03088379 C-86.94189101 142.62374259 -95.50812896 117.94726549 -95.14508057 91.58947754 C-94.7338059 77.59856928 -91.26165026 65.71037697 -84.93804932 53.28088379 C-84.40179932 52.20967285 -83.86554932 51.13846191 -83.31304932 50.03479004 C-78.96315698 41.9937631 -73.27760125 35.76173332 -66.93804932 29.28088379 C-65.99252197 28.25994629 -65.99252197 28.25994629 -65.02789307 27.21838379 C-49.16774296 10.42087257 -22.85057289 -0.04570829 0 0 Z " fill="#4F4F59" transform="translate(1205.9380493164063,770.7191162109375)"/>
<path d="M0 0 C1.81978829 -0.00256327 1.81978829 -0.00256327 3.67633998 -0.00517833 C7.01729969 -0.00788833 10.35802144 -0.00169407 13.6989522 0.00837779 C17.3116252 0.0170579 20.92429155 0.01408892 24.53697205 0.01257324 C30.7874028 0.01152726 37.03779162 0.01777377 43.28821182 0.02904892 C52.32513572 0.04534 61.36203944 0.05051561 70.39897643 0.0530249 C85.06269783 0.05739635 99.72639691 0.07069051 114.3901062 0.08963013 C128.63001394 0.10800317 142.86991558 0.12212975 157.10983276 0.13064575 C157.99731618 0.13118175 158.8847996 0.13171774 159.79917645 0.13226998 C166.74043168 0.1364291 173.68168704 0.14034286 180.62294245 0.14417911 C214.61468679 0.16302822 248.60637523 0.20326915 282.59811401 0.24050903 C282.59811401 63.60050903 282.59811401 126.96050903 282.59811401 192.24050903 C210.33778027 192.40183443 210.33778027 192.40183443 180.08444214 192.43582153 C173.16069501 192.44365203 166.23694824 192.45173368 159.3132019 192.4602356 C158.44552305 192.46129059 157.5778442 192.46234559 156.68387204 192.46343255 C142.70876062 192.48079021 128.73371558 192.51230345 114.75864341 192.54912022 C100.39722821 192.58663689 86.03584756 192.60876746 71.67438537 192.61686301 C62.82542629 192.62232864 53.97665486 192.63953833 45.12775359 192.6721749 C39.04489225 192.69345552 32.96212673 192.69967875 26.87923094 192.69451454 C23.37911322 192.69197361 19.87932143 192.69563481 16.37926292 192.71733093 C-13.71084455 192.87623072 -39.64978733 188.20237918 -63.40188599 168.24050903 C-64.19079224 167.60886841 -64.97969849 166.97722778 -65.79251099 166.32644653 C-83.84547824 151.16876648 -94.77379144 128.50037389 -97.40188599 105.24050903 C-98.9922446 75.99782894 -90.45005499 52.26295739 -70.90579224 30.45535278 C-52.57990536 11.09472043 -26.59572974 -0.13849835 0 0 Z " fill="#4F4F59" transform="translate(1637.4018859863281,767.7594909667969)"/>
<path d="M0 0 C2.23878467 0.00084795 4.47757018 0.00036786 6.71635437 -0.00132751 C12.7462809 -0.00218234 18.77602555 0.01535982 24.80591011 0.03639436 C31.12527653 0.05524726 37.44464788 0.05691835 43.76403809 0.06047058 C54.35525571 0.06871217 64.94641429 0.08740456 75.53759766 0.11425781 C86.43831048 0.14186682 97.33900528 0.16306674 108.23974609 0.17578125 C109.25051272 0.17696351 109.25051272 0.17696351 110.28169888 0.17816965 C113.66275279 0.18208524 117.04380683 0.18587625 120.42486095 0.18960536 C148.3985209 0.22061937 176.37210788 0.27360851 204.34570312 0.34057617 C204.02838368 1.26944421 204.02838368 1.26944421 203.70465374 2.21707726 C201.83030133 8.00872841 200.90170755 13.11662635 200.91333008 19.18676758 C200.90313843 20.00752777 200.89294678 20.82828796 200.88244629 21.67391968 C200.85261035 24.34673142 200.84309597 27.01918315 200.83398438 29.69213867 C200.8171158 31.56115889 200.79896267 33.43016791 200.77958679 35.29916382 C200.73231706 40.18821717 200.70235929 45.07722512 200.67614746 49.96643066 C200.64622508 54.96753909 200.59973517 59.96849142 200.5546875 64.96948242 C200.46891657 74.75978279 200.40298903 84.55006766 200.34570312 94.34057617 C211.56570313 94.34057617 222.78570313 94.34057617 234.34570312 94.34057617 C234.34570312 91.04057617 234.34570312 87.74057617 234.34570312 84.34057617 C235.95911599 74.63565332 239.8641952 64.63121336 247.79101562 58.42651367 C256.91993009 52.59784817 264.4858981 49.81510174 275.34570312 50.34057617 C275.34570312 48.36057617 275.34570312 46.38057617 275.34570312 44.34057617 C279.24759149 47.70724976 281.03918897 51.35827837 283.09570312 55.96557617 C283.41152344 56.64620117 283.72734375 57.32682617 284.05273438 58.02807617 C286.34570312 63.05076962 286.34570312 63.05076962 286.34570312 65.34057617 C285.31509766 65.10661133 285.31509766 65.10661133 284.26367188 64.86791992 C276.57149401 63.4777673 268.80489549 62.93242924 261.84570312 66.90307617 C254.57451375 72.01320598 250.14289298 77.53286062 248.34570312 86.34057617 C247.1863533 94.48465084 249.82154158 101.28388797 254.09570312 108.15307617 C259.83818258 113.73604231 266.65109308 117.32201525 274.72070312 117.65307617 C279.45703998 117.55706934 283.01482484 116.20733406 287.34570312 114.34057617 C288.83070313 113.84557617 288.83070313 113.84557617 290.34570312 113.34057617 C290.20462565 114.79937726 290.05767898 116.25761169 289.90820312 117.71557617 C289.82699219 118.52768555 289.74578125 119.33979492 289.66210938 120.17651367 C289.34570312 122.34057617 289.34570312 122.34057617 288.34570312 124.34057617 C286.97019287 124.3467395 286.97019287 124.3467395 285.56689453 124.35302734 C282.11822372 124.38022506 278.67126399 124.42953312 275.22314453 124.49316406 C273.73952964 124.51615961 272.25575578 124.5306959 270.77197266 124.53613281 C261.1244166 124.57841812 252.18897539 124.93201403 244.71142578 131.85327148 C240.44111915 136.69916109 239.10577768 140.47117595 238.93164062 146.85620117 C238.89296875 148.1065918 238.85429688 149.35698242 238.81445312 150.64526367 C238.78351563 151.9472168 238.75257813 153.24916992 238.72070312 154.59057617 C238.68203125 155.90799805 238.64335938 157.22541992 238.60351562 158.58276367 C238.50924394 161.83513695 238.42638464 165.08783739 238.34570312 168.34057617 C244.94570312 168.34057617 251.54570313 168.34057617 258.34570312 168.34057617 C248.17537015 178.51090915 233.34137832 186.02430791 219.34570312 189.34057617 C218.28472475 189.59310245 217.22374638 189.84562872 216.13061714 190.1058073 C204.38429548 192.6065597 192.98024845 192.7595677 181.00537109 192.71289062 C178.79915191 192.71532379 176.59293383 192.71904817 174.38671875 192.72395325 C168.44057498 192.73329292 162.49459783 192.72399598 156.54846716 192.71062112 C150.30103909 192.69923321 144.05361834 192.7034197 137.80618286 192.70536804 C127.32079494 192.70624858 116.83546786 192.69529202 106.35009766 192.67675781 C95.59356731 192.65774968 84.83711235 192.6506742 74.08056641 192.65625 C61.06839563 192.66297523 48.05626842 192.65963501 35.04410172 192.64714622 C30.09311428 192.64252141 25.14214729 192.64161715 20.19115829 192.64373207 C14.35514729 192.64562574 8.51923198 192.63742863 2.6832428 192.62167168 C0.55086284 192.61745583 -1.58152687 192.61655991 -3.71390915 192.61936188 C-31.93395965 192.65079866 -31.93395965 192.65079866 -45.02929688 187.77807617 C-45.73135254 187.52195557 -46.4334082 187.26583496 -47.15673828 187.00195312 C-59.65858439 182.23448935 -70.76979055 175.35802054 -80.65429688 166.34057617 C-81.43160156 165.64448242 -82.20890625 164.94838867 -83.00976562 164.23120117 C-101.0595489 147.20662073 -111.21313786 122.90899159 -111.99072266 98.28466797 C-112.39138234 71.60022589 -102.02345711 48.5341837 -83.65429688 29.34057617 C-60.59109857 6.37443892 -31.54549312 -0.16889052 0 0 Z " fill="#504F59" transform="translate(1449.654296875,117.659423828125)"/>
<path d="M0 0 C33.66 0 67.32 0 102 0 C102 29.37 102 58.74 102 89 C108.6 89 115.2 89 122 89 C122 152.36 122 215.72 122 281 C47.88487842 281 47.88487842 281 35.5 276.375 C34.79351318 276.11775146 34.08702637 275.86050293 33.35913086 275.59545898 C24.0833965 272.07399009 15.74468835 267.18775388 7.9375 261.0625 C2.39570969 256.99173583 -3.2993582 256.92648199 -10 257 C-9.99097656 256.10539062 -9.98195313 255.21078125 -9.97265625 254.2890625 C-10.16650158 246.38354436 -11.13276267 241.77708646 -16.03125 235.59375 C-29.88300075 217.34461805 -32.68515861 192.63734894 -30.375 170.5625 C-27.49573795 151.29359247 -17.14528887 130.28836454 -2.1640625 117.59765625 C-1.44992187 117.07042969 -0.73578125 116.54320312 0 116 C0 118.31 0 120.62 0 123 C0.33 122.67 0.66 122.34 1 122 C0.95257268 119.79918245 0.84400377 117.59964678 0.7109375 115.40234375 C0.65438436 114.0294237 0.60110778 112.65636552 0.55078125 111.28320312 C0.47107032 109.11609275 0.37633467 106.95659181 0.22509766 104.79321289 C-0.57783365 92.89859399 -0.57783365 92.89859399 3.10644531 88.46533203 C5.96798832 86.35556758 8.8623029 84.66803644 12 83 C13.76719881 81.87852401 15.52649367 80.74448842 17.27734375 79.59765625 C18.18468262 79.02934082 19.09202148 78.46102539 20.02685547 77.87548828 C23.40054077 75.74733502 26.73545653 73.5652737 30.06640625 71.37109375 C30.67761322 70.96911774 31.28882019 70.56714172 31.91854858 70.15298462 C34.43327564 68.49877401 36.94724307 66.84342231 39.4597168 65.18579102 C46.88041541 60.29202194 54.32038127 55.48321878 62 51 C54.76071077 53.01750684 47.77840312 55.53139661 40.74707031 58.16357422 C33.68145756 60.79018075 26.55305573 63.19380406 19.3815918 65.51464844 C14.16800454 67.21708619 9.09318549 69.12285533 4.03344727 71.24145508 C2 72 2 72 0 72 C0 48.24 0 24.48 0 0 Z " fill="#504F59" transform="translate(1798,29)"/>
<path d="M0 0 C0.65702911 0.00465271 1.31405823 0.00930542 1.99099731 0.01409912 C30.95539983 0.25429967 55.93586307 10.4562674 76.47851562 31.2487793 C95.61346676 51.29178125 102.86857883 75.93437421 102.46484375 103.1640625 C101.55643874 127.68647834 88.34934417 150.11238747 70.8125 166.625 C59.42394927 176.61164061 44.08165396 185.75991409 29.1875 189.375 C28.10210938 189.65085937 27.01671875 189.92671875 25.8984375 190.2109375 C-1.35731803 196.26160421 -30.36909013 192.11221339 -54.0625 177.125 C-77.3302996 161.64620794 -92.42067761 140.48293884 -98.55859375 113.0390625 C-102.75081886 89.15783532 -98.19592705 64.37348372 -84.375 44.3125 C-80.19745432 38.66852133 -75.73062708 33.38560468 -70.8125 28.375 C-70.08933594 27.62734375 -69.36617187 26.8796875 -68.62109375 26.109375 C-50.47037452 8.54218143 -24.91874078 -0.2774951 0 0 Z " fill="#4F4F59" transform="translate(1399.8125,334.625)"/>
<path d="M0 0 C3.45568922 2.87974102 6.75530854 5.88556987 10 9 C10.86625 9.825 11.7325 10.65 12.625 11.5 C13.800625 12.7375 13.800625 12.7375 15 14 C15.87011719 14.86044922 15.87011719 14.86044922 16.7578125 15.73828125 C33.33464637 32.99769064 40.21223339 57.14609403 40.08056641 80.62426758 C39.29564738 103.7698646 30.148667 123.70382082 15 141 C14.34773438 141.74765625 13.69546875 142.4953125 13.0234375 143.265625 C-4.30630424 161.82856933 -30.32758575 172.45982574 -55.4453125 173.3359375 C-86.19104149 173.75274381 -111.63397696 165.76262313 -134 144 C-134.63421875 143.41605469 -135.2684375 142.83210937 -135.921875 142.23046875 C-151.5257826 127.48960913 -161.46824329 103.84228013 -162.203125 82.50390625 C-162.64775366 54.64144836 -154.20976216 31.46819205 -135 11 C-120.93799823 -3.44510118 -102.67287171 -12.96308124 -83 -17 C-81.84757812 -17.30550781 -81.84757812 -17.30550781 -80.671875 -17.6171875 C-54.24759022 -24.17831944 -21.49052245 -16.05156306 0 0 Z " fill="#4F4F59" transform="translate(1273,137)"/>
<path d="M0 0 C33.66 0 67.32 0 102 0 C102 40.26 102 80.52 102 122 C68.67 122 35.34 122 1 122 C1 111.77 1 101.54 1 91 C7.3432645 86.38671673 13.42669616 82.0095252 20.02685547 77.87548828 C23.40054077 75.74733502 26.73545653 73.5652737 30.06640625 71.37109375 C30.67761322 70.96911774 31.28882019 70.56714172 31.91854858 70.15298462 C34.43327564 68.49877401 36.94724307 66.84342231 39.4597168 65.18579102 C46.88041541 60.29202194 54.32038127 55.48321878 62 51 C54.76071077 53.01750684 47.77840312 55.53139661 40.74707031 58.16357422 C33.68145756 60.79018075 26.55305573 63.19380406 19.3815918 65.51464844 C14.16800454 67.21708619 9.09318549 69.12285533 4.03344727 71.24145508 C2 72 2 72 0 72 C0 48.24 0 24.48 0 0 Z " fill="#E12626" transform="translate(1798,29)"/>
<path d="M0 0 C3.70051962 1.60892157 5.99474664 3.49080662 8 7 C9.13180641 10.71879249 9.20344563 12.46461677 7.8125 16.125 C4.81019116 20.887283 1.78021077 23.38011281 -3.3671875 25.62109375 C-4.41197266 26.0795166 -5.45675781 26.53793945 -6.53320312 27.01025391 C-7.63599609 27.48124512 -8.73878906 27.95223633 -9.875 28.4375 C-10.99583984 28.92395996 -12.11667969 29.41041992 -13.27148438 29.91162109 C-20.33638859 32.94863096 -27.42236029 35.76908582 -34.71875 38.1953125 C-36.9371956 38.79332323 -36.9371956 38.79332323 -38 40 C-40.15234375 40.203125 -40.15234375 40.203125 -42.9375 40.25 C-44.28134766 40.28867188 -44.28134766 40.28867188 -45.65234375 40.328125 C-49 40 -49 40 -59 37 C-59 45.58 -59 54.16 -59 63 C-60.93875 63.2475 -62.8775 63.495 -64.875 63.75 C-74.58183781 65.25878023 -84.14370997 68.22742884 -90.65625 75.96875 C-97.56189095 85.58248544 -98.31029692 95.17207844 -100 107 C-111.22 107 -122.44 107 -134 107 C-134.06791752 96.20320407 -134.12289779 85.40655124 -134.15543652 74.60958958 C-134.17105756 69.59552095 -134.19223054 64.58160673 -134.22631836 59.56762695 C-134.25903911 54.72413056 -134.27687978 49.8807822 -134.28463173 45.03718376 C-134.29015247 43.19410817 -134.30093294 41.35104019 -134.31719017 39.50802803 C-134.33913378 36.91606592 -134.34195992 34.32470683 -134.34057617 31.73266602 C-134.35675491 30.60300919 -134.35675491 30.60300919 -134.3732605 29.45053101 C-134.32838401 21.62476152 -132.33190447 14.2972406 -126.80761719 8.55615234 C-117.53153351 0.5705017 -106.90784377 1.05293641 -95.3125 1.125 C-94.40180756 1.12365051 -93.49111511 1.12230103 -92.55282593 1.12091064 C-77.85470404 1.1555291 -66.15063489 3.13452642 -52.95947266 9.98730469 C-46.72541302 13.20919347 -41.70847897 13.34747677 -35.05664062 11.44384766 C-33.09682904 10.78608215 -31.17494012 10.06603868 -29.25 9.3125 C-28.55898193 9.05065918 -27.86796387 8.78881836 -27.15600586 8.51904297 C-22.78889767 6.82467563 -18.69081883 4.85038057 -14.5625 2.625 C-9.58752043 0.04963694 -5.5627309 -1.15366698 0 0 Z " fill="#E02626" transform="translate(1784,105)"/>
<path d="M0 0 C2.49151243 0.01387012 4.97926205 -0.02028045 7.47045898 -0.05834961 C17.75702006 -0.10908726 25.32298406 0.80288707 33.49975586 7.60375977 C34.01538086 8.23411133 34.53100586 8.86446289 35.06225586 9.51391602 C35.59850586 10.14168945 36.13475586 10.76946289 36.68725586 11.41625977 C43.11841388 21.51975517 40.06225586 32.58033502 40.06225586 44.57641602 C15.31225586 44.57641602 -9.43774414 44.57641602 -34.93774414 44.57641602 C-34.93774414 15.89765954 -34.93774414 15.89765954 -30.42993164 9.40454102 C-29.89625977 8.88375977 -29.36258789 8.36297852 -28.81274414 7.82641602 C-28.03543945 7.02977539 -28.03543945 7.02977539 -27.24243164 6.21704102 C-18.56664791 0.04105938 -10.32657996 -0.08022419 0 0 Z " fill="#E12626" transform="translate(1822.937744140625,241.423583984375)"/>
<path d="M0 0 C0.76543625 -0.00524185 1.5308725 -0.0104837 2.31950378 -0.0158844 C3.93051956 -0.02227272 5.54158218 -0.02100919 7.15258789 -0.01245117 C9.58891988 -0.0039639 12.02288463 -0.0327068 14.45898438 -0.06445312 C24.43517051 -0.10927012 32.83728333 0.60719868 41.16796875 6.68359375 C51.94067836 17.96928953 47.79296875 27.87091725 47.79296875 44.43359375 C23.37296875 44.43359375 -1.04703125 44.43359375 -26.20703125 44.43359375 C-26.20703125 16.43359375 -26.20703125 16.43359375 -21.20703125 8.43359375 C-14.81353466 2.17908622 -8.79584599 -0.03586525 0 0 Z " fill="#E12626" transform="translate(1714.20703125,241.56640625)"/>
<path d="M0 0 C7.57088918 6.5059729 10.58362998 12.08540987 12 22 C-4.17 22 -20.34 22 -37 22 C-37 25.96 -37 29.92 -37 34 C-30.73 34 -24.46 34 -18 34 C-18 43.9 -18 53.8 -18 64 C-31.25474822 64 -38.94293131 62.4297737 -48.8125 53.4375 C-57.14591921 44.15169002 -59.41973816 35.88261662 -59.265625 23.56640625 C-58.51101109 13.43460482 -53.25573116 6.78761947 -46 0 C-32.47657185 -11.44290074 -13.76318892 -10.7047025 0 0 Z " fill="#E5D8C2" transform="translate(177,126)"/>
<path d="M0 0 C6.17340149 4.19281677 10.72111761 10.33132158 13.08203125 17.4140625 C13.84960324 27.37773731 12.86976666 34.26766264 6.58203125 42.1015625 C0.74475428 48.26965407 -6.02065522 51.59514427 -14.54296875 51.9765625 C-22.25078736 51.57030995 -28.66824214 48.42602321 -34.34765625 43.26171875 C-39.51179052 37.18551101 -42.23918545 29.71024826 -42.13671875 21.8203125 C-41.43229966 14.07170253 -37.27977356 7.39309955 -31.60546875 2.2265625 C-22.12395274 -5.37861139 -10.61379661 -6.13851242 0 0 Z " fill="#E02626" transform="translate(1701.91796875,49.5859375)"/>
<path d="M0 0 C6.77249315 3.97008219 12.00952286 8.95158052 14.89453125 16.359375 C16.86156536 23.95143647 16.56504493 30.85004552 13 37.875 C8.61296236 44.96651731 2.79856376 50.1339948 -5.35546875 52.4921875 C-13.72648561 54.28261137 -21.00730701 52.26912495 -28.2265625 47.83984375 C-33.87758857 43.56534967 -37.8973898 36.79799091 -39.4375 29.9375 C-40.23351307 22.46066292 -39.11147721 15.77898838 -34.7734375 9.546875 C-25.70100787 -1.36895667 -13.7355109 -6.30242192 0 0 Z " fill="#E02626" transform="translate(1736.4375,183.0625)"/>
<path d="M0 0 C6.17340149 4.19281677 10.72111761 10.33132158 13.08203125 17.4140625 C13.74493671 26.23224674 12.43172353 34.13579777 7.08203125 41.4140625 C1.94652723 47.13843764 -4.62960216 50.5296599 -12.20703125 51.796875 C-19.4603091 52.18132436 -26.46867178 49.52234482 -32.23046875 45.1640625 C-39.47861186 37.74735792 -41.22160207 31.368698 -41.23266602 21.13085938 C-41.07605643 13.48757014 -38.74206834 9.2117867 -33.73046875 3.6640625 C-24.1538513 -5.1836792 -11.3438158 -6.56072061 0 0 Z " fill="#E02626" transform="translate(1839.91796875,184.5859375)"/>
<path d="M0 0 C6.27 0 12.54 0 19 0 C19.67546875 1.21816406 20.3509375 2.43632812 21.046875 3.69140625 C21.94789365 5.31511694 22.84893661 6.93881414 23.75 8.5625 C24.1934375 9.36236328 24.636875 10.16222656 25.09375 10.98632812 C25.75117188 12.1706543 25.75117188 12.1706543 26.421875 13.37890625 C27.01887207 14.45507202 27.01887207 14.45507202 27.62792969 15.55297852 C29.39962481 18.71271166 31.20271541 21.85475196 33 25 C37.29 16.75 41.58 8.5 46 0 C52.27 0 58.54 0 65 0 C65 13.53 65 27.06 65 41 C61.04 41 57.08 41 53 41 C52.505 28.13 52.505 28.13 52 15 C50.06125 18.5475 48.1225 22.095 46.125 25.75 C45.51672363 26.86213867 44.90844727 27.97427734 44.28173828 29.12011719 C43.79946777 30.00344727 43.31719727 30.88677734 42.8203125 31.796875 C42.32805176 32.69760742 41.83579102 33.59833984 41.32861328 34.52636719 C40.17892756 36.66686989 39.0722439 38.81991903 38 41 C34.49945029 41.62262742 31.48032807 41.81643786 28 41 C25.11295354 38.14510328 23.67921082 34.6587683 22 31 C21.389531 29.78372461 20.77339476 28.57028122 20.15234375 27.359375 C18.39653126 23.92469264 16.69362636 20.46582302 15 17 C14.34 15.68 13.68 14.36 13 13 C12.67 22.24 12.34 31.48 12 41 C8.04 41 4.08 41 0 41 C0 27.47 0 13.94 0 0 Z " fill="#E2D5BF" transform="translate(440,138)"/>
<path d="M0 0 C19 0 19 0 23.41796875 3.33203125 C24.90039062 5.50585938 24.90039062 5.50585938 26.1875 7.8125 C26.65478516 8.53115234 27.12207031 9.24980469 27.60351562 9.99023438 C29.10559356 12.30347515 30.55179985 14.65265313 32 17 C34.64 20.63 37.28 24.26 40 28 C40.33 18.76 40.66 9.52 41 0 C45.29 0 49.58 0 54 0 C54 13.53 54 27.06 54 41 C34 41 34 41 29.484375 37.66796875 C28.01171875 35.49414062 28.01171875 35.49414062 26.75 33.1875 C26.28722656 32.46884766 25.82445312 31.75019531 25.34765625 31.00976562 C23.86031555 28.69725646 22.43118435 26.34767808 21 24 C18.36 20.37 15.72 16.74 13 13 C12.67 22.24 12.34 31.48 12 41 C8.04 41 4.08 41 0 41 C0 27.47 0 13.94 0 0 Z " fill="#E1D4BE" transform="translate(304,138)"/>
<path d="M0 0 C5.28 0 10.56 0 16 0 C21.78599956 10.56361003 27.57078611 21.1284803 33.25 31.75 C33.63212646 32.45761475 34.01425293 33.16522949 34.40795898 33.89428711 C37 38.76776016 37 38.76776016 37 41 C34.89758397 41.13496251 32.7927039 41.23197307 30.6875 41.3125 C29.51574219 41.37050781 28.34398437 41.42851562 27.13671875 41.48828125 C24 41 24 41 22.08203125 38.60546875 C21 36 21 36 21 34 C12.42 34 3.84 34 -5 34 C-5.66 36.31 -6.32 38.62 -7 41 C-11.62 41 -16.24 41 -21 41 C-18.87883843 35.69709608 -16.42841928 30.66588157 -13.875 25.5625 C-13.38797607 24.58780762 -12.90095215 23.61311523 -12.39916992 22.60888672 C-8.51949986 14.90552479 -4.37623147 7.43133645 0 0 Z " fill="#E3D6C0" transform="translate(263,138)"/>
<path d="M0 0 C3.96 0 7.92 0 12 0 C12.01981934 0.83772949 12.03963867 1.67545898 12.06005859 2.53857422 C12.13810612 5.64365834 12.22479635 8.74834539 12.31738281 11.85302734 C12.37454036 13.85886971 12.42168596 15.86498918 12.46875 17.87109375 C12.50742187 19.12792969 12.54609375 20.38476562 12.5859375 21.6796875 C12.6173584 22.84226074 12.6487793 24.00483398 12.68115234 25.20263672 C12.72157869 28.13656482 12.72157869 28.13656482 15 30 C16.88578891 30.30901788 16.88578891 30.30901788 19.02734375 30.265625 C19.81947266 30.26820313 20.61160156 30.27078125 21.42773438 30.2734375 C22.67006836 30.26183594 22.67006836 30.26183594 23.9375 30.25 C24.76185547 30.25773437 25.58621094 30.26546875 26.43554688 30.2734375 C27.22896484 30.27085937 28.02238281 30.26828125 28.83984375 30.265625 C29.56550537 30.26336914 30.29116699 30.26111328 31.03881836 30.25878906 C33.32143629 30.10426899 33.32143629 30.10426899 36 28 C36.51146198 25.09386566 36.51146198 25.09386566 36.51171875 21.6796875 C36.54716797 20.42285156 36.58261719 19.16601562 36.61914062 17.87109375 C36.64169922 16.55238281 36.66425781 15.23367187 36.6875 13.875 C36.72066529 12.53512241 36.75515422 11.19527689 36.79101562 9.85546875 C36.87372777 6.57061518 36.93853273 3.28531978 37 0 C41.29 0 45.58 0 50 0 C50.09238892 4.12670505 50.17184732 8.25073905 50.21972656 12.37792969 C50.2397063 13.77844473 50.2669002 15.17887782 50.30175781 16.57910156 C50.66277546 31.46577044 50.66277546 31.46577044 46 38 C41.9657475 41.11226715 38.40585985 41.44250579 33.46875 41.3984375 C32.39844543 41.40274277 32.39844543 41.40274277 31.30651855 41.40713501 C29.8037842 41.40916884 28.30102297 41.40368669 26.79833984 41.39111328 C24.50688101 41.37504824 22.21718566 41.39098337 19.92578125 41.41015625 C18.46093363 41.4081737 16.99608711 41.40432976 15.53125 41.3984375 C14.85090698 41.40451019 14.17056396 41.41058289 13.46960449 41.4168396 C9.13960323 41.35327461 6.38719917 40.73139563 3 38 C-0.2669927 33.9834972 -0.40390405 30.27971787 -0.29296875 25.29296875 C-0.28872391 24.56757401 -0.28447906 23.84217926 -0.28010559 23.09480286 C-0.26339543 20.79198109 -0.2257596 18.49005447 -0.1875 16.1875 C-0.17244316 14.6204554 -0.1587565 13.053397 -0.14648438 11.48632812 C-0.11351731 7.65721043 -0.06178992 3.82875666 0 0 Z " fill="#E0D4BE" transform="translate(384,138)"/>
<path d="M0 0 C15.18 0 30.36 0 46 0 C46 3.3 46 6.6 46 10 C40.39 10 34.78 10 29 10 C29 20.23 29 30.46 29 41 C25.04 41 21.08 41 17 41 C17 30.77 17 20.54 17 10 C11.39 10 5.78 10 0 10 C0 6.7 0 3.4 0 0 Z " fill="#E4D7C1" transform="translate(203,138)"/>
<path d="M0 0 C3.96 0 7.92 0 12 0 C12 13.53 12 27.06 12 41 C8.04 41 4.08 41 0 41 C0 27.47 0 13.94 0 0 Z " fill="#E0D4BE" transform="translate(365,138)"/>
<path d="M0 0 C5.61 0 11.22 0 17 0 C15.57689922 9.96170546 10.9636418 17.6946468 3 24 C2.01 24.33 1.02 24.66 0 25 C0 16.75 0 8.5 0 0 Z " fill="#DFD2BD" transform="translate(172,160)"/>
<path d="M0 0 C0.66 0 1.32 0 2 0 C3.0076952 1.7664657 4.00591714 3.53833823 5 5.3125 C5.8353125 6.79169922 5.8353125 6.79169922 6.6875 8.30078125 C8 11 8 11 8 14 C3.38 14 -1.24 14 -6 14 C-5.16184862 9.80924309 -4.49330151 7.71926157 -2.4375 4.1875 C-1.98246094 3.39730469 -1.52742188 2.60710937 -1.05859375 1.79296875 C-0.53458984 0.90544922 -0.53458984 0.90544922 0 0 Z " fill="#484750" transform="translate(270,149)"/>
<path d="M0 0 C2.31 0 4.62 0 7 0 C7 1.32 7 2.64 7 4 C4.69 4 2.38 4 0 4 C0 2.68 0 1.36 0 0 Z " fill="#908A84" transform="translate(511,175)"/>
<path d="M0 0 C-2.97 1.65 -5.94 3.3 -9 5 C-8.67 3.68 -8.34 2.36 -8 1 C-4.70594381 -0.82039948 -3.63772813 -1.21257604 0 0 Z " fill="#6D3C45" transform="translate(1861,80)"/>
</svg>
