<?xml version="1.0" encoding="UTF-8"?>
<svg version="1.1" xmlns="http://www.w3.org/2000/svg" width="800" height="450">
<path d="M0 0 C264 0 528 0 800 0 C800 148.5 800 297 800 450 C536 450 272 450 0 450 C0 301.5 0 153 0 0 Z " fill="#220710" transform="translate(0,0)"/>
<path d="M0 0 C0 28.71 0 57.42 0 87 C-263.67 87 -527.34 87 -799 87 C-799 86.67 -799 86.34 -799 86 C-535.66 86 -272.32 86 -1 86 C-1 61.91 -1 37.82 -1 13 C-3.475 12.01 -3.475 12.01 -6 11 C-7.125 8.1875 -7.125 8.1875 -7 5 C-2.97826087 0 -2.97826087 0 0 0 Z " fill="#3C0103" transform="translate(800,363)"/>
<path d="M0 0 C118.47 0 236.94 0 359 0 C359.0928125 88.543125 359.0928125 88.543125 359.1875 178.875 C359.21481201 197.54690918 359.24212402 216.21881836 359.27026367 235.45654297 C359.28381348 258.17211914 359.28381348 258.17211914 359.28633118 268.78982544 C359.28913797 276.24143284 359.30018108 283.69297338 359.31672668 291.14456177 C359.33575846 299.72845597 359.34452298 308.31228566 359.34033485 316.89620114 C359.33851948 321.29175142 359.34149284 325.68715732 359.35764539 330.08268142 C359.37213954 334.05081809 359.3730394 338.018707 359.36270332 341.98685455 C359.36142227 343.4275957 359.36530327 344.86835178 359.37464774 346.3090632 C359.38656808 348.2603018 359.37845608 350.21163287 359.36914349 352.16288567 C359.37085223 353.79302504 359.37085223 353.79302504 359.37259549 355.45609653 C359.18816072 356.71532875 359.18816072 356.71532875 359 358 C356 360 356 360 353.4375 359.75 C351 359 351 359 349 357 C348.6366844 354.16613833 348.6431329 352.59477849 350.125 350.125 C352 349 352 349 358 350 C358 336.8 358 323.6 358 310 C357.01 309.67 356.02 309.34 355 309 C355.875 305.125 355.875 305.125 357 304 C357.09061109 301.57180548 357.1147602 299.17227479 357.09765625 296.74389648 C357.09549984 295.57626597 357.09549984 295.57626597 357.09329987 294.38504696 C357.08949119 292.65055546 357.08335688 290.91606801 357.07530212 289.18159103 C357.06209748 286.28272694 357.05526056 283.38390466 357.04992676 280.48501587 C357.04148265 276.13617161 357.03072432 271.78734181 357.01831055 267.43850708 C356.98447924 255.10225332 356.97325643 242.76598344 356.96875 230.4296875 C356.96846235 229.74543709 356.96817471 229.06118668 356.96787834 228.35620141 C356.95091731 183.36283475 357.2340655 138.37010291 357.48177338 93.37758493 C357.50007216 90.04937563 357.51827187 86.72116581 357.53643799 83.39295578 C357.68636216 55.92861062 357.84045989 28.464291 358 1 C357.38284128 1.00249569 356.76568257 1.00499138 356.12982208 1.0075627 C319.52065739 1.15547083 282.91147517 1.29789866 246.30226182 1.4332476 C241.90276099 1.44951784 237.50326032 1.46583369 233.10375977 1.48217773 C231.7900137 1.48705712 231.7900137 1.48705712 230.44972732 1.49203508 C216.28387139 1.5447572 202.11803246 1.60117092 187.9521964 1.6589582 C173.4077575 1.71820742 158.86330736 1.77346792 144.31883925 1.82505554 C135.35016067 1.85699127 126.38150513 1.89200725 117.41285446 1.93101191 C111.25578023 1.95749044 105.09869924 1.98008107 98.94159929 1.99967117 C95.39372933 2.0110725 91.84588691 2.02413345 88.2980423 2.04183006 C84.44026825 2.06102746 80.58249428 2.07200952 76.72468567 2.08229065 C75.61861381 2.08909444 74.51254195 2.09589823 73.37295276 2.10290819 C65.87358508 2.1135669 58.46833332 1.67271461 51 1 C51 1.66 51 2.32 51 3 C50.01 3 49.02 3 48 3 C48 2.34 48 1.68 48 1 C44.04 1 40.08 1 36 1 C36 2.32 36 3.64 36 5 C33.525 4.505 33.525 4.505 31 4 C31 3.34 31 2.68 31 2 C27.7 2 24.4 2 21 2 C20.67 3.65 20.34 5.3 20 7 C17.525 6.505 17.525 6.505 15 6 C15 4.68 15 3.36 15 2 C11.7 2 8.4 2 5 2 C5.33 2.33 5.66 2.66 6 3 C6.125 5.5 6.125 5.5 6 8 C5 9 5 9 2.5625 9.1875 C0 9 0 9 -2 7 C-1.60467975 4.54901444 -0.78698574 2.36095721 0 0 Z " fill="#663336" transform="translate(441,0)"/>
<path d="M0 0 C3.97087583 1.87305464 5.59799462 3.08635142 7.375 7.125 C8.59633443 14.69727348 8.99612453 21.24792753 5 28 C2.09633989 30.50037398 0.31134227 30.96108222 -3.5 31.4375 C-7.69130572 30.91358678 -9.18838043 30.13294752 -12 27 C-13.3125 23.25 -13.3125 23.25 -14 20 C-12.68 19.67 -11.36 19.34 -10 19 C-10.474375 18.484375 -10.94875 17.96875 -11.4375 17.4375 C-13.50237912 14.21628857 -13.8662942 11.81061528 -14 8 C-11.10874565 1.30446361 -7.21419433 -0.87067863 0 0 Z " fill="#D92B2E" transform="translate(175,25)"/>
<path d="M0 0 C0.33 0 0.66 0 1 0 C1.06860195 45.44563459 1.12149611 90.89126371 1.15319599 136.33693983 C1.1569483 141.69695737 1.16083125 147.0569748 1.16479492 152.41699219 C1.16558185 153.48411704 1.16636878 154.55124189 1.16717956 155.65070386 C1.18024886 172.95056008 1.20391106 190.25038653 1.23145839 207.55022506 C1.25947025 225.28916752 1.2761673 243.02809434 1.28226548 260.76705801 C1.28639071 271.72115517 1.29943988 282.67516819 1.3237494 293.62923945 C1.33955456 301.13137331 1.34441226 308.6334634 1.34050413 316.13561271 C1.33857441 320.4699886 1.34162154 324.80421702 1.35761642 329.13856697 C1.37213327 333.10112275 1.37300643 337.06343081 1.36269668 341.02599759 C1.36142105 342.46479039 1.36529611 343.90359818 1.37464955 345.34236114 C1.38656798 347.28770613 1.37845764 349.23314384 1.36914349 351.17850304 C1.37028265 352.26222486 1.37142181 353.34594668 1.37259549 354.46250856 C1.24963898 355.29988073 1.12668247 356.13725291 1 357 C-2 359 -2 359 -4.5625 358.75 C-7 358 -7 358 -9 356 C-9.3633156 353.16613833 -9.3568671 351.59477849 -7.875 349.125 C-6 348 -6 348 0 349 C0 335.8 0 322.6 0 309 C-0.99 308.67 -1.98 308.34 -3 308 C-2.125 304.125 -2.125 304.125 -1 303 C-0.90938891 300.57180548 -0.8852398 298.17227479 -0.90234375 295.74389648 C-0.90378136 294.96547614 -0.90521896 294.1870558 -0.90670013 293.38504696 C-0.91050881 291.65055546 -0.91664312 289.91606801 -0.92469788 288.18159103 C-0.93790252 285.28272694 -0.94473944 282.38390466 -0.95007324 279.48501587 C-0.95851735 275.13617161 -0.96927568 270.78734181 -0.98168945 266.43850708 C-1.01552076 254.10225332 -1.02674357 241.76598344 -1.03125 229.4296875 C-1.03153765 228.74543709 -1.03182529 228.06118668 -1.03212166 227.35620141 C-1.04908269 182.36283475 -0.7659345 137.37010291 -0.51822662 92.37758493 C-0.49992784 89.04937563 -0.48172813 85.72116581 -0.46356201 82.39295578 C-0.31363784 54.92861062 -0.15954011 27.464291 0 0 Z " fill="#551A1D" transform="translate(799,1)"/>
<path d="M0 0 C3.53528586 0.96289098 5.42441455 2.93276536 7.96484375 5.53515625 C9.53940114 8.68427104 9.31283493 11.05524441 8.96484375 14.53515625 C6.90957488 18.11530202 5.71149377 19.90263777 1.83984375 21.3046875 C-1.45248137 21.89975302 -3.90410775 22.13712801 -6.9140625 20.53515625 C-10.69186416 17.47650238 -11.91560557 15.55987637 -12.47265625 10.78515625 C-12.41697971 7.39507373 -11.77906929 5.58920361 -9.53515625 3.03515625 C-6.48546901 0.40983586 -3.99128763 -0.29877201 0 0 Z " fill="#DB2B2E" transform="translate(62.03515625,24.46484375)"/>
<path d="M0 0 C0 0.66 0 1.32 0 2 C0.61875 2.226875 1.2375 2.45375 1.875 2.6875 C4.67417035 4.41639933 5.10812102 5.87842357 6 9 C6 10.32 6 11.64 6 13 C1.05 13.33 -3.9 13.66 -9 14 C-8.34 14.66 -7.68 15.32 -7 16 C-4.77871445 16.02308597 -4.77871445 16.02308597 -2.375 15.625 C-1.55773437 15.51414062 -0.74046875 15.40328125 0.1015625 15.2890625 C0.72804687 15.19367187 1.35453125 15.09828125 2 15 C2 16.32 2 17.64 2 19 C-1.66244303 21.34396354 -4.72394153 21.52512999 -9 21 C-13.10508326 17.60884426 -14.79869145 15.50981416 -15.5 10.25 C-15.46155656 7.61662408 -15.2237995 6.3247822 -13.71875 4.140625 C-9.26951902 -0.10636821 -6.015125 -0.63317105 0 0 Z " fill="#DA2B2E" transform="translate(131,25)"/>
<path d="M0 0 C3.45405075 1.79344943 5.48781603 3.06875642 7.375 6.5 C8 9 8 9 8 13 C2.72 13 -2.56 13 -8 13 C-8 13.66 -8 14.32 -8 15 C-7.34 15 -6.68 15 -6 15 C-6 15.66 -6 16.32 -6 17 C-2.7 16.34 0.6 15.68 4 15 C4 16.32 4 17.64 4 19 C0.34148709 21.34144827 -2.72830036 21.44965259 -7 21 C-9.75329021 19.20437595 -11.52627461 17.94745078 -13 15 C-13.54732595 11.89019349 -13.63363332 9.10064831 -13 6 C-9.76094576 1.38481578 -5.69747567 -1.21222887 0 0 Z " fill="#DB2B2E" transform="translate(198,25)"/>
<path d="M0 0 C2.45046788 1.44485135 3.96378033 2.91642639 6 5 C6 6.32 6 7.64 6 9 C1.71 9 -2.58 9 -7 9 C-7 9.99 -7 10.98 -7 12 C-5.35 12 -3.7 12 -2 12 C-2 14.64 -2 17.28 -2 20 C-6.40147657 19.49697411 -8.75395419 17.97554199 -12 15 C-13.45147903 12.09704195 -13.37239025 10.22738221 -13 7 C-9.88758243 1.79661464 -6.16090958 -0.8596618 0 0 Z " fill="#DF2B2E" transform="translate(41,409)"/>
<path d="M0 0 C4.43306708 0.36336615 6.45533623 1.44662849 9.8125 4.3125 C9.8125 5.3025 9.8125 6.2925 9.8125 7.3125 C8.4925 7.6425 7.1725 7.9725 5.8125 8.3125 C5.1525 7.3225 4.4925 6.3325 3.8125 5.3125 C-0.52934202 5.49714366 -0.52934202 5.49714366 -4.1875 7.3125 C-4.43755386 10.27067107 -4.43755386 10.27067107 -4.1875 13.3125 C-2.30249729 15.62813087 -2.30249729 15.62813087 0.8125 15.5625 C3.92749729 15.62813087 3.92749729 15.62813087 5.8125 13.3125 C7.9375 13.6875 7.9375 13.6875 9.8125 14.3125 C9.625 16.125 9.625 16.125 8.8125 18.3125 C6.10671489 20.47712808 4.25693949 21.25694506 0.8125 21.6875 C-2.70491376 21.24782328 -4.43381394 20.54521843 -7.1875 18.3125 C-9.33018559 15.09847162 -10.1875 13.12295073 -10.1875 9.25 C-8.93979253 5.5848593 -7.07316698 3.83745861 -4.1875 1.3125 C-3.1875 0.3125 -3.1875 0.3125 0 0 Z " fill="#DD2B2E" transform="translate(38.1875,24.6875)"/>
<path d="M0 0 C3.72777341 2.99842644 3.72777341 2.99842644 5 6 C5.41016652 10.36645621 5.29186198 14.62855607 5 19 C3.68 19 2.36 19 1 19 C0.93941406 18.25234375 0.87882812 17.5046875 0.81640625 16.734375 C0.69072266 15.25710937 0.69072266 15.25710937 0.5625 13.75 C0.48128906 12.77546875 0.40007812 11.8009375 0.31640625 10.796875 C0.04925416 8.43538247 -0.35371968 6.28098935 -1 4 C-5.55617813 3.56363041 -5.55617813 3.56363041 -9.6875 5.09375 C-11.61071369 7.88698893 -11.52144549 10.33319896 -11.6875 13.6875 C-11.75324219 14.86699219 -11.81898437 16.04648437 -11.88671875 17.26171875 C-11.92410156 18.16535156 -11.96148437 19.06898437 -12 20 C-13.32 20 -14.64 20 -16 20 C-16.91035303 6.74930583 -16.91035303 6.74930583 -14.8046875 2.703125 C-10.04886491 -2.12439341 -5.99518135 -2.81406472 0 0 Z " fill="#E32C2F" transform="translate(89,26)"/>
<path d="M0 0 C2.26171875 -0.34375 2.26171875 -0.34375 5 0 C7.01953125 2.40625 7.01953125 2.40625 8.8125 5.5 C9.41707031 6.5209375 10.02164063 7.541875 10.64453125 8.59375 C11.09183594 9.3878125 11.53914063 10.181875 12 11 C12.33 10.01 12.66 9.02 13 8 C13.66 8 14.32 8 15 8 C15.28875 7.05125 15.5775 6.1025 15.875 5.125 C17 2 17 2 19 0 C20.32 0 21.64 0 23 0 C23 0.99 23 1.98 23 3 C22.34 3 21.68 3 21 3 C20.01 5.97 19.02 8.94 18 12 C17.34 12 16.68 12 16 12 C15.01 14.97 14.02 17.94 13 21 C12.34 21 11.68 21 11 21 C9.16327681 17.68936862 7.33119238 14.37619334 5.5 11.0625 C4.97535156 10.11697266 4.45070313 9.17144531 3.91015625 8.19726562 C3.16572266 6.84858398 3.16572266 6.84858398 2.40625 5.47265625 C1.94541016 4.64000244 1.48457031 3.80734863 1.00976562 2.94946289 C0 1 0 1 0 0 Z " fill="#E12C2E" transform="translate(93,25)"/>
<path d="M0 0 C16.83 0 33.66 0 51 0 C51 0.99 51 1.98 51 3 C50.01 3 49.02 3 48 3 C48 2.34 48 1.68 48 1 C44.04 1 40.08 1 36 1 C36 2.32 36 3.64 36 5 C33.525 4.505 33.525 4.505 31 4 C31 3.34 31 2.68 31 2 C27.7 2 24.4 2 21 2 C20.67 3.65 20.34 5.3 20 7 C17.525 6.505 17.525 6.505 15 6 C15 4.68 15 3.36 15 2 C11.7 2 8.4 2 5 2 C5.33 2.33 5.66 2.66 6 3 C6.125 5.5 6.125 5.5 6 8 C5 9 5 9 2.5625 9.1875 C0 9 0 9 -2 7 C-1.60467975 4.54901444 -0.78698574 2.36095721 0 0 Z " fill="#4A272D" transform="translate(441,0)"/>
<path d="M0 0 C0.66 1.32 1.32 2.64 2 4 C3.98 3.34 5.96 2.68 8 2 C8 4.97 8 7.94 8 11 C7.01 11.495 7.01 11.495 6 12 C5.67 11.34 5.34 10.68 5 10 C2.24358584 10.49756092 2.24358584 10.49756092 0 12 C-5.24050633 12.4556962 -5.24050633 12.4556962 -7.875 10.875 C-9.54663625 8.08893958 -9.46376624 6.18011138 -9 3 C-6.24653799 -0.05940224 -4.00406942 -0.33367245 0 0 Z " fill="#150A18" transform="translate(42,29)"/>
<path d="M0 0 C3.27477838 0.04122922 5.15231097 0.55118252 7.75 2.5625 C10.31159564 5.37400741 11.09948668 6.64726686 11.3125 10.375 C9.6625 10.375 8.0125 10.375 6.3125 10.375 C6.10625 9.735625 5.9 9.09625 5.6875 8.4375 C4.41711791 6.02574923 4.41711791 6.02574923 1.1875 5.625 C0.23875 5.5425 -0.71 5.46 -1.6875 5.375 C-4.5378026 8.58445602 -5.12201699 10.87488548 -5.375 15.125 C-5.44074219 16.10984375 -5.50648438 17.0946875 -5.57421875 18.109375 C-5.61160156 18.85703125 -5.64898437 19.6046875 -5.6875 20.375 C-7.0075 20.375 -8.3275 20.375 -9.6875 20.375 C-10.45317413 7.80092935 -10.45317413 7.80092935 -8.609375 4.3671875 C-7.25 3.0625 -7.25 3.0625 -4.6875 1.375 C-3.6875 0.375 -3.6875 0.375 0 0 Z " fill="#E22C2E" transform="translate(148.6875,24.625)"/>
<path d="M0 0 C0 28.71 0 57.42 0 87 C-0.33 87 -0.66 87 -1 87 C-1 62.58 -1 38.16 -1 13 C-3.475 12.01 -3.475 12.01 -6 11 C-7.125 8.1875 -7.125 8.1875 -7 5 C-2.97826087 0 -2.97826087 0 0 0 Z " fill="#34171F" transform="translate(800,363)"/>
<path d="M0 0 C1.65 0 3.3 0 5 0 C6.8125 2.5 6.8125 2.5 8 5 C8.99 4.67 9.98 4.34 11 4 C11.73323796 1.98491642 11.73323796 1.98491642 12 0 C13.98 0 15.96 0 18 0 C18 3.63 18 7.26 18 11 C16.68 11 15.36 11 14 11 C13.67 9.35 13.34 7.7 13 6 C12.566875 6.825 12.13375 7.65 11.6875 8.5 C10.8521875 9.7375 10.8521875 9.7375 10 11 C9.01 11 8.02 11 7 11 C5.515 8.03 5.515 8.03 4 5 C3.67 6.98 3.34 8.96 3 11 C2.01 11 1.02 11 0 11 C0 7.37 0 3.74 0 0 Z " fill="#D32A2D" transform="translate(118,415)"/>
<path d="M0 0 C1.875 1.0625 1.875 1.0625 3 3 C3.36528977 6.4093712 3.6140629 8.88023824 1.9375 11.9375 C-1.15493758 13.63335287 -3.55514741 13.43060657 -7 13 C-9.38460953 10.92308202 -9.8959746 9.59443084 -10.4375 6.5 C-9.40858438 0.62048215 -5.51867775 -0.82193073 0 0 Z " fill="#851F28" transform="translate(399,4)"/>
<path d="M0 0 C3.4375 0.75 3.4375 0.75 5.4375 2.75 C5.91133353 6.38272373 5.8966452 8.10379564 3.75 11.125 C1.4375 12.75 1.4375 12.75 -1.0625 13.25 C-3.5625 12.75 -3.5625 12.75 -5.9375 11.1875 C-7.5625 8.75 -7.5625 8.75 -7.5 5.125 C-6.18665792 0.3969685 -4.85981646 -0.34103975 0 0 Z " fill="#8B2028" transform="translate(417.5625,67.25)"/>
<path d="M0 0 C1.8125 1.0625 1.8125 1.0625 3 3 C3.4375 6.5 3.4375 6.5 3 10 C1.3125 12 1.3125 12 -1 13 C-3.8001969 12.86340503 -5.48077872 12.31153277 -7.875 10.875 C-9 9 -9 9 -8.875 5.4375 C-7.56722443 0.29981025 -4.99011177 -0.62376397 0 0 Z " fill="#8A2027" transform="translate(417,51)"/>
<path d="M0 0 C2 2 2 2 2.25 5.5 C2 9 2 9 0 11 C-3.4375 11.375 -3.4375 11.375 -7 11 C-9 9.375 -9 9.375 -10 7 C-9.9375 3.875 -9.9375 3.875 -9 1 C-5.97447702 -1.48525102 -3.61516279 -1.14163036 0 0 Z " fill="#952229" transform="translate(452,123)"/>
<path d="M0 0 C3.375 0.6875 3.375 0.6875 4.375 1.6875 C4.6875 5.0625 4.6875 5.0625 4.375 8.6875 C2.6875 10.6875 2.6875 10.6875 0.375 11.6875 C-2.45867793 11.54927181 -4.11096785 11.01305369 -6.5 9.5 C-7.625 7.6875 -7.625 7.6875 -7.5 4.625 C-6.1584257 0.12114341 -4.57252958 -0.39418358 0 0 Z " fill="#8E2028" transform="translate(782.625,366.3125)"/>
<path d="M0 0 C0 0.66 0 1.32 0 2 C0.66 2 1.32 2 2 2 C3.32075472 7.28301887 3.32075472 7.28301887 1.9375 10.375 C0 12 0 12 -3 12.4375 C-6 12 -6 12 -7.9375 10.9375 C-9.66665678 7.78433176 -8.8590699 5.37491745 -8 2 C-4.77208445 -0.1519437 -3.71599191 -0.20086443 0 0 Z " fill="#180B17" transform="translate(175,29)"/>
<path d="M0 0 C1.9375 1.0625 1.9375 1.0625 3 3 C2.6875 6.6875 2.6875 6.6875 2 10 C-3.24024641 12.14373717 -3.24024641 12.14373717 -6.3125 11.5625 C-8 10 -8 10 -8.9375 6.5625 C-9 3 -9 3 -7.9375 1.0625 C-5.13281671 -0.47555213 -3.14485925 -0.39310741 0 0 Z " fill="#942129" transform="translate(446,108)"/>
<path d="M0 0 C1.8125 1.0625 1.8125 1.0625 3 3 C3.375 6.5625 3.375 6.5625 3 10 C-0.45245824 12.30163882 -1.94738713 12.34490322 -6 12 C-8 10 -8 10 -8.3125 6.5625 C-8 3 -8 3 -6.8125 1.0625 C-4.33950907 -0.38718434 -2.82115488 -0.42317323 0 0 Z " fill="#8B2028" transform="translate(415,35)"/>
<path d="M0 0 C5 0 5 0 6.58203125 1.3125 C7.72135417 2.875 8.86067708 4.4375 10 6 C10.33 4.02 10.66 2.04 11 0 C12.32 0 13.64 0 15 0 C15 3.63 15 7.26 15 11 C12.3125 11.4375 12.3125 11.4375 9 11 C6.95224699 8.88875077 5.46519774 6.54140493 4 4 C3.67 6.31 3.34 8.62 3 11 C2.01 11 1.02 11 0 11 C0 7.37 0 3.74 0 0 Z " fill="#D62A2D" transform="translate(80,415)"/>
<path d="M0 0 C2.625 0.25 2.625 0.25 4.4375 1.375 C6.17698782 4.12155972 6.02269128 6.06846974 5.625 9.25 C4.5625 11.1875 4.5625 11.1875 2.625 12.25 C-1.0625 11.9375 -1.0625 11.9375 -4.375 11.25 C-5.5625 9.0625 -5.5625 9.0625 -6.375 6.25 C-3.57147355 0.37594458 -3.57147355 0.37594458 0 0 Z " fill="#140A18" transform="translate(60.375,28.75)"/>
<path d="M0 0 C2 3 2 3 1.8125 5.5 C0.92477635 8.23145737 0.37086309 9.39120004 -2 11 C-4.85480169 11.42822025 -6.34492892 11.40659584 -8.8125 9.875 C-10.55198782 7.12844028 -10.39769128 5.18153026 -10 2 C-7.65569181 -2.27491494 -4.20074737 -1.06928115 0 0 Z " fill="#8A1F27" transform="translate(416,20)"/>
<path d="M0 0 C3.625 0.25 3.625 0.25 5.5625 1.4375 C7.01218434 3.91049093 7.04817323 5.42884512 6.625 8.25 C5.5 10.0625 5.5 10.0625 3.625 11.25 C0.48014075 11.64310741 -1.50781671 11.72555213 -4.3125 10.1875 C-6.00681173 7.09787273 -5.11451685 4.57782582 -4.375 1.25 C-3.375 0.25 -3.375 0.25 0 0 Z " fill="#9E232A" transform="translate(488.375,167.75)"/>
<path d="M0 0 C1.41441874 2.82883747 1.31900332 4.87376745 1 8 C-0.6875 9.9375 -0.6875 9.9375 -3 11 C-6.37036311 10.75925978 -7.58798021 10.41201979 -10 8 C-10.32954432 4.90228335 -10.45334601 2.82668977 -8.9375 0.0625 C-5.81857551 -1.64787795 -3.34442199 -0.80513863 0 0 Z " fill="#932128" transform="translate(443,94)"/>
<path d="M0 0 C3.5 0.25 3.5 0.25 5.5 2.25 C5.83015665 5.35347254 6.00531294 7.40781176 4.375 10.125 C1.65781176 11.75531294 -0.39652746 11.58015665 -3.5 11.25 C-5.5 9.25 -5.5 9.25 -5.75 5.75 C-5.40898007 0.975721 -4.774279 0.34101993 0 0 Z " fill="#8E2028" transform="translate(763.5,367.75)"/>
<path d="M0 0 C1.875 1.25 1.875 1.25 3 3 C2.75546876 6.34192692 2.39456443 7.60543557 0 10 C-3.5 10.25 -3.5 10.25 -7 10 C-9 8 -9 8 -9.375 5.0625 C-9 2 -9 2 -7.3125 0.0625 C-4.35300101 -1.2972698 -3.04091767 -1.09161147 0 0 Z " fill="#902028" transform="translate(438,79)"/>
<path d="M0 0 C2.5 0.4375 2.5 0.4375 4.375 2.0625 C5.87436896 5.22783448 5.38764916 7.10881565 4.5 10.4375 C3.5 11.4375 3.5 11.4375 0.125 11.75 C-3.5 11.4375 -3.5 11.4375 -5.5 9.6875 C-6.5 7.4375 -6.5 7.4375 -6.375 5.375 C-4.87189414 2.04669417 -3.67066005 0.64236551 0 0 Z " fill="#9D2329" transform="translate(481.5,154.5625)"/>
<path d="M0 0 C2.5625 0.3125 2.5625 0.3125 4.375 1.4375 C6.13252414 4.21253811 6.03072746 6.10179745 5.5625 9.3125 C3.8125 11.25 3.8125 11.25 1.5625 12.3125 C-0.91741444 12.16220215 -2.18301266 11.47923308 -4.25 10.125 C-5.4375 8.3125 -5.4375 8.3125 -5.25 5.25 C-4.27786515 1.7353586 -3.70860904 0.4754627 0 0 Z " fill="#A52329" transform="translate(535.4375,201.6875)"/>
<path d="M0 0 C3.76007405 1.16383244 4.75842482 3.47788531 6.70703125 6.76953125 C7.625 8.8125 7.625 8.8125 7.625 11.8125 C3.995 11.1525 0.365 10.4925 -3.375 9.8125 C-3.375 10.4725 -3.375 11.1325 -3.375 11.8125 C-4.695 11.8125 -6.015 11.8125 -7.375 11.8125 C-4.24257679 1.45140785 -4.24257679 1.45140785 0 0 Z " fill="#C8282C" transform="translate(70.375,414.1875)"/>
<path d="M0 0 C1.25 6.625 1.25 6.625 -1 10 C-4.16259871 10.40373601 -6.14012639 10.54458662 -8.875 8.8125 C-10.40659584 6.34492892 -10.42822025 4.85480169 -10 2 C-7.58628749 -2.25949266 -4.24852727 -0.88176981 0 0 Z " fill="#8C2028" transform="translate(416,4)"/>
<path d="M0 0 C2.9375 0.75 2.9375 0.75 4.9375 2.75 C5.29773622 5.55984248 5.32082602 7.13241919 3.8125 9.5625 C1.10304166 11.27849028 -0.92545684 11.083728 -4.0625 10.75 C-6.0625 8.75 -6.0625 8.75 -6.375 5.25 C-6.271875 4.095 -6.16875 2.94 -6.0625 1.75 C-3.0625 -0.25 -3.0625 -0.25 0 0 Z " fill="#8D2028" transform="translate(746.0625,368.25)"/>
<path d="M0 0 C1.32 0 2.64 0 4 0 C4 2.64 4 5.28 4 8 C5.98 8 7.96 8 10 8 C10 5.36 10 2.72 10 0 C11.32 0 12.64 0 14 0 C14.08096803 1.45742463 14.13917774 2.91612807 14.1875 4.375 C14.22230469 5.18710937 14.25710937 5.99921875 14.29296875 6.8359375 C14.19628906 7.55007813 14.09960938 8.26421875 14 9 C10.86588698 11.08940868 10.02549528 11.27364412 6.4375 11.25 C5.25994141 11.25773437 5.25994141 11.25773437 4.05859375 11.265625 C2 11 2 11 0 9 C-0.1953125 6.8359375 -0.1953125 6.8359375 -0.125 4.375 C-0.10695313 3.55773437 -0.08890625 2.74046875 -0.0703125 1.8984375 C-0.04710938 1.27195312 -0.02390625 0.64546875 0 0 Z " fill="#D3292D" transform="translate(102,415)"/>
<path d="M0 0 C0.66 0.66 1.32 1.32 2 2 C1.75 5.5625 1.75 5.5625 1 9 C-1.76250036 10.38125018 -3.94731099 10.19079306 -7 10 C-9 8 -9 8 -9.375 5.0625 C-9 2 -9 2 -7.3125 0.0625 C-4.38550346 -1.28233625 -3.01415011 -1.03115662 0 0 Z " fill="#9C2229" transform="translate(478,143)"/>
<path d="M0 0 C1.875 1.75 1.875 1.75 3 4 C2.84760984 6.51443761 2.17362009 7.74825087 0.75 9.8125 C-1 11 -1 11 -3.5625 10.8125 C-6 10 -6 10 -8 8 C-8.3125 5 -8.3125 5 -8 2 C-4.77856724 -0.14762184 -3.7404533 -0.561068 0 0 Z " fill="#8B2028" transform="translate(730,368)"/>
<path d="M0 0 C2.375 0.875 2.375 0.875 4.375 3.875 C4.0508631 7.19740324 3.76723697 8.48276303 1.375 10.875 C-1.625 11.1875 -1.625 11.1875 -4.625 10.875 C-6.77262184 7.65356724 -7.186068 6.6154533 -6.625 2.875 C-4.39928105 0.40197895 -3.34204055 -0.15914479 0 0 Z " fill="#B0252A" transform="translate(587.625,225.125)"/>
<path d="M0 0 C2.4375 0.75 2.4375 0.75 4.4375 2.75 C4.0625 6.375 4.0625 6.375 3.4375 9.75 C1.1275 10.08 -1.1825 10.41 -3.5625 10.75 C-5.125 9.0625 -5.125 9.0625 -6.5625 6.75 C-6.4375 4.125 -6.4375 4.125 -5.5625 1.75 C-2.5625 -0.25 -2.5625 -0.25 0 0 Z " fill="#922128" transform="translate(432.5625,63.25)"/>
<path d="M0 0 C1.8125 1.1875 1.8125 1.1875 3 3 C3.5 5.5 3.5 5.5 3 8 C0.8125 9.9375 0.8125 9.9375 -2 11 C-4.43028072 10.33719617 -6.2010972 9.7989028 -8 8 C-8.29573841 5.19048514 -8.38243085 3.58371024 -6.8125 1.1875 C-4.35092224 -0.42525784 -2.88934264 -0.4334014 0 0 Z " fill="#A6242A" transform="translate(529,192)"/>
<path d="M0 0 C0.66 0 1.32 0 2 0 C2.33 1.65 2.66 3.3 3 5 C-5.66666667 5 -14.33333333 5 -23 5 C-23 3.68 -23 2.36 -23 1 C-22.3387915 1.00523682 -21.67758301 1.01047363 -20.99633789 1.01586914 C-18.01840149 1.03657656 -15.04048018 1.04964012 -12.0625 1.0625 C-11.02158203 1.07087891 -9.98066406 1.07925781 -8.90820312 1.08789062 C-7.91884766 1.09111328 -6.92949219 1.09433594 -5.91015625 1.09765625 C-4.99371338 1.10289307 -4.07727051 1.10812988 -3.13305664 1.11352539 C-1.01636977 1.23921211 -1.01636977 1.23921211 0 0 Z " fill="#8D7F84" transform="translate(770,420)"/>
<path d="M0 0 C5.45454545 0.45454545 5.45454545 0.45454545 8 3 C8.375 5.4375 8.375 5.4375 8 8 C6.3125 9.875 6.3125 9.875 4 11 C0.62963689 10.75925978 -0.58798021 10.41201979 -3 8 C-2.54545455 2.54545455 -2.54545455 2.54545455 0 0 Z " fill="#A22228" transform="translate(515,181)"/>
<path d="M0 0 C2.875 0.6875 2.875 0.6875 3.875 1.6875 C4.125 5.125 4.125 5.125 3.875 8.6875 C0.875 10.6875 0.875 10.6875 -2.25 10.375 C-5.125 9.6875 -5.125 9.6875 -6.125 8.6875 C-6.375 5.25 -6.375 5.25 -6.125 1.6875 C-3.125 -0.3125 -3.125 -0.3125 0 0 Z " fill="#9A2229" transform="translate(469.125,129.3125)"/>
<path d="M0 0 C2.5625 0.375 2.5625 0.375 4.4375 2.0625 C5.5625 4.375 5.5625 4.375 5.4375 7 C4.5625 9.375 4.5625 9.375 1.5625 11.375 C-1 11.1875 -1 11.1875 -3.4375 10.375 C-5.4375 7.375 -5.4375 7.375 -5.1875 4.8125 C-4.1927353 1.57951474 -3.3898104 0.52150929 0 0 Z " fill="#902028" transform="translate(429.4375,47.625)"/>
<path d="M0 0 C2.4375 0.75 2.4375 0.75 4.4375 1.75 C4.625 5.125 4.625 5.125 4.4375 8.75 C1.4375 10.75 1.4375 10.75 -1.125 10.5 C-3.5625 9.75 -3.5625 9.75 -5.5625 7.75 C-5.93046448 4.87987704 -5.93759409 3.34225382 -4.375 0.875 C-2.5625 -0.25 -2.5625 -0.25 0 0 Z " fill="#942128" transform="translate(795.5625,349.25)"/>
<path d="M0 0 C3 0.25 3 0.25 5 2.25 C5.25 5.25 5.25 5.25 5 8.25 C3 10.25 3 10.25 0 10.5 C-3 10.25 -3 10.25 -5 8.25 C-5.25 5.25 -5.25 5.25 -5 2.25 C-3 0.25 -3 0.25 0 0 Z " fill="#8B2027" transform="translate(709,366.75)"/>
<path d="M0 0 C0.99 0.103125 1.98 0.20625 3 0.3125 C5 3.3125 5 3.3125 4.8125 5.875 C4 8.3125 4 8.3125 1 10.3125 C-2.32240324 9.9883631 -3.60776303 9.70473697 -6 7.3125 C-5.54792997 2.79179975 -4.85245508 0.50546407 0 0 Z " fill="#B1252B" transform="translate(576,217.6875)"/>
<path d="M0 0 C5.41139241 -0.36075949 5.41139241 -0.36075949 7.9375 1.1875 C9 3 9 3 8.875 5.5625 C8 8 8 8 5 10 C1.67759676 9.6758631 0.39223697 9.39223697 -2 7 C-1.6730244 4.38419521 -1.17960932 2.35921863 0 0 Z " fill="#9B2229" transform="translate(459,116)"/>
<path d="M0 0 C3 0.25 3 0.25 5 2.25 C4.625 5.875 4.625 5.875 4 9.25 C1.1875 9.875 1.1875 9.875 -2 10.25 C-2.99 9.59 -3.98 8.93 -5 8.25 C-5.3125 5.25 -5.3125 5.25 -5 2.25 C-3 0.25 -3 0.25 0 0 Z " fill="#912128" transform="translate(428,32.75)"/>
<path d="M0 0 C2.3125 1.25 2.3125 1.25 3.3125 2.25 C3.6107732 5.08359542 3.66852594 6.68785378 2.125 9.125 C0.3125 10.25 0.3125 10.25 -2.25 10.0625 C-4.6875 9.25 -4.6875 9.25 -6.6875 7.25 C-7.0625 4.8125 -7.0625 4.8125 -6.6875 2.25 C-4.33222347 -0.45420638 -3.50969299 -0.97944921 0 0 Z " fill="#BB262B" transform="translate(639.6875,237.75)"/>
<path d="M0 0 C1.010625 0.0825 2.02125 0.165 3.0625 0.25 C5.0625 3.25 5.0625 3.25 4.6875 6.4375 C4.48125 7.365625 4.275 8.29375 4.0625 9.25 C1.7525 9.58 -0.5575 9.91 -2.9375 10.25 C-4.9375 7.25 -4.9375 7.25 -4.625 4.125 C-3.71417611 0.31610009 -3.71417611 0.31610009 0 0 Z " fill="#891F27" transform="translate(690.9375,364.75)"/>
<path d="M0 0 C2.875 0.75 2.875 0.75 3.875 1.75 C4.0625 4.6875 4.0625 4.6875 3.875 7.75 C1.875 9.75 1.875 9.75 -1.125 10 C-4.125 9.75 -4.125 9.75 -6.125 7.75 C-6.4883156 4.91613833 -6.4818671 3.34477849 -5 0.875 C-3.125 -0.25 -3.125 -0.25 0 0 Z " fill="#A52329" transform="translate(510.125,170.25)"/>
<path d="M0 0 C3 0.0625 3 0.0625 6 1 C7.5625 3.3125 7.5625 3.3125 8 6 C6.9375 8.3125 6.9375 8.3125 5 10 C2.06335703 10.51391252 0.65123669 10.4124499 -1.875 8.8125 C-3 7 -3 7 -2.8125 4.4375 C-2 2 -2 2 0 0 Z " fill="#9A2229" transform="translate(455,102)"/>
<path d="M0 0 C3 0.25 3 0.25 5 2.25 C5.36796448 5.12012296 5.37509409 6.65774618 3.8125 9.125 C2 10.25 2 10.25 -0.5625 10.0625 C-3 9.25 -3 9.25 -5 7.25 C-5.25 4.75 -5.25 4.75 -5 2.25 C-3 0.25 -3 0.25 0 0 Z " fill="#942128" transform="translate(778,351.75)"/>
<path d="M0 0 C5.56818182 0.56818182 5.56818182 0.56818182 7 2 C7.1875 4.9375 7.1875 4.9375 7 8 C5 10 5 10 2 10.3125 C1.01 10.209375 0.02 10.10625 -1 10 C-3 7 -3 7 -2.75 4.4375 C-2 2 -2 2 0 0 Z " fill="#AE242A" transform="translate(563,209)"/>
<path d="M0 0 C5.43806647 -0.36253776 5.43806647 -0.36253776 7.9375 1.25 C9 3 9 3 8.75 5.0625 C8 7 8 7 7 9 C3.625 9.1875 3.625 9.1875 0 9 C-2 6 -2 6 -1.6875 3.9375 C-1 2 -1 2 0 0 Z " fill="#A32329" transform="translate(498,159)"/>
<path d="M0 0 C3.3 0 6.6 0 10 0 C10 2.31 10 4.62 10 7 C11.98 6.67 13.96 6.34 16 6 C15.67 6.99 15.34 7.98 15 9 C9.72 8.67 4.44 8.34 -1 8 C-1 7.34 -1 6.68 -1 6 C-0.01 5.34 0.98 4.68 2 4 C2.33 3.01 2.66 2.02 3 1 C1.02 1.99 1.02 1.99 -1 3 C-0.67 2.01 -0.34 1.02 0 0 Z " fill="#6D6971" transform="translate(114,347)"/>
<path d="M0 0 C5.56818182 0.56818182 5.56818182 0.56818182 7 2 C6.71269945 4.33944736 6.38063221 6.6739143 6 9 C4.02 9.33 2.04 9.66 0 10 C-1.5625 8.25 -1.5625 8.25 -3 6 C-2.73495121 2.99611368 -2.16695725 2.16695725 0 0 Z " fill="#9A2229" transform="translate(451,88)"/>
<path d="M0 0 C0.763125 0.20625 1.52625 0.4125 2.3125 0.625 C3.64091008 6.05940487 3.64091008 6.05940487 2.1875 8.5625 C0.3125 9.625 0.3125 9.625 -2.25 9.4375 C-4.6875 8.625 -4.6875 8.625 -6.6875 6.625 C-6.5 4.125 -6.5 4.125 -5.6875 1.625 C-2.6875 -0.375 -2.6875 -0.375 0 0 Z " fill="#891F27" transform="translate(674.6875,362.375)"/>
<path d="M0 0 C3.0625 0.1875 3.0625 0.1875 5.0625 2.1875 C5.3125 4.6875 5.3125 4.6875 5.0625 7.1875 C3.0625 9.1875 3.0625 9.1875 0.0625 9.5 C-0.9275 9.396875 -1.9175 9.29375 -2.9375 9.1875 C-4.9375 6.1875 -4.9375 6.1875 -4.625 3.5625 C-3.63731654 0.1505026 -3.65603948 0.23336422 0 0 Z " fill="#C4272B" transform="translate(687.9375,238.8125)"/>
<path d="M0 0 C2.4375 0.875 2.4375 0.875 4.4375 3.875 C4.07861965 6.83576291 3.59091979 7.72158021 1.4375 9.875 C-1.0625 10.125 -1.0625 10.125 -3.5625 9.875 C-5.5625 7.875 -5.5625 7.875 -5.875 5.4375 C-5.5625 2.875 -5.5625 2.875 -4.375 1 C-2.5625 -0.125 -2.5625 -0.125 0 0 Z " fill="#B0252A" transform="translate(556.5625,200.125)"/>
<path d="M0 0 C2.375 0.6875 2.375 0.6875 3.375 1.6875 C3.5625 4.625 3.5625 4.625 3.375 7.6875 C2.715 8.3475 2.055 9.0075 1.375 9.6875 C-4.19318182 9.11931818 -4.19318182 9.11931818 -5.625 7.6875 C-5.875 4.75 -5.875 4.75 -5.625 1.6875 C-2.625 -0.3125 -2.625 -0.3125 0 0 Z " fill="#932128" transform="translate(761.625,353.3125)"/>
<path d="M0 0 C2.5 0.25 2.5 0.25 4.5 2.25 C4.8125 5.25 4.8125 5.25 4.5 8.25 C1.5 10.25 1.5 10.25 -1.125 9.9375 C-3.5 9.25 -3.5 9.25 -4.5 8.25 C-4.6875 5.3125 -4.6875 5.3125 -4.5 2.25 C-2.5 0.25 -2.5 0.25 0 0 Z " fill="#BE272C" transform="translate(626.5,231.75)"/>
<path d="M0 0 C2 2 2 2 2.375 4.4375 C2 7 2 7 0.3125 8.9375 C-2 10 -2 10 -4.6875 9.5 C-7 8 -7 8 -8 5.5625 C-8 3 -8 3 -6.875 1.1875 C-4.40774618 -0.37509409 -2.87012296 -0.36796448 0 0 Z " fill="#A4232A" transform="translate(497,147)"/>
<path d="M0 0 C2.97 0.495 2.97 0.495 6 1 C7.32841008 6.43440487 7.32841008 6.43440487 5.875 8.9375 C4 10 4 10 1.4375 10 C-1 9 -1 9 -2.5 6.6875 C-3 4 -3 4 -1.625 1.6875 C-0.820625 0.8521875 -0.820625 0.8521875 0 0 Z " fill="#AC242A" transform="translate(544,191)"/>
<path d="M0 0 C2.375 0.6875 2.375 0.6875 3.375 1.6875 C3.625 4.625 3.625 4.625 3.375 7.6875 C0.375 9.6875 0.375 9.6875 -2.25 9.375 C-4.625 8.6875 -4.625 8.6875 -5.625 7.6875 C-5.875 4.75 -5.875 4.75 -5.625 1.6875 C-2.625 -0.3125 -2.625 -0.3125 0 0 Z " fill="#BB262B" transform="translate(616.625,226.3125)"/>
<path d="M0 0 C2.5625 0.3125 2.5625 0.3125 4.4375 1.5 C5.5625 3.3125 5.5625 3.3125 5.3125 5.9375 C4.5625 8.3125 4.5625 8.3125 3.5625 9.3125 C0.625 9.5 0.625 9.5 -2.4375 9.3125 C-4.4375 7.3125 -4.4375 7.3125 -4.6875 4.8125 C-4.34234788 1.3609788 -3.44095645 0.44114826 0 0 Z " fill="#962128" transform="translate(449.4375,73.6875)"/>
<path d="M0 0 C2.375 0.6875 2.375 0.6875 3.375 1.6875 C3.625 4.625 3.625 4.625 3.375 7.6875 C0.375 9.6875 0.375 9.6875 -2.25 9.375 C-4.625 8.6875 -4.625 8.6875 -5.625 7.6875 C-5.875 4.75 -5.875 4.75 -5.625 1.6875 C-2.625 -0.3125 -2.625 -0.3125 0 0 Z " fill="#902028" transform="translate(428.625,2.3125)"/>
<path d="M0 0 C2 3 2 3 1.6875 5.0625 C1 7 1 7 0 9 C-2.875 9.1875 -2.875 9.1875 -6 9 C-8 6 -8 6 -7.75 3.375 C-7.5025 2.59125 -7.255 1.8075 -7 1 C-4.46578263 -0.26710868 -2.80561762 -0.28056176 0 0 Z " fill="#CC272B" transform="translate(738,230)"/>
<path d="M0 0 C0.99 0.103125 1.98 0.20625 3 0.3125 C5 3.3125 5 3.3125 4.8125 5.375 C4 7.3125 4 7.3125 1 9.3125 C-1.6875 8.9375 -1.6875 8.9375 -4 8.3125 C-4.625 5.4375 -4.625 5.4375 -5 2.3125 C-3 0.3125 -3 0.3125 0 0 Z " fill="#A12329" transform="translate(488,134.6875)"/>
<path d="M0 0 C2.9375 0.1875 2.9375 0.1875 3.9375 1.1875 C4.125 4.125 4.125 4.125 3.9375 7.1875 C1.9375 9.1875 1.9375 9.1875 -0.5625 9.4375 C-3.0625 9.1875 -3.0625 9.1875 -5.0625 7.1875 C-5.3125 4.6875 -5.3125 4.6875 -5.0625 2.1875 C-3.0625 0.1875 -3.0625 0.1875 0 0 Z " fill="#C7282C" transform="translate(677.0625,235.8125)"/>
<path d="M0 0 C2.9375 0.1875 2.9375 0.1875 3.9375 1.1875 C4.125 4.125 4.125 4.125 3.9375 7.1875 C1.9375 9.1875 1.9375 9.1875 -0.5625 9.4375 C-3.0625 9.1875 -3.0625 9.1875 -5.0625 7.1875 C-5.3125 4.6875 -5.3125 4.6875 -5.0625 2.1875 C-3.0625 0.1875 -3.0625 0.1875 0 0 Z " fill="#B9262B" transform="translate(605.0625,219.8125)"/>
<path d="M0 0 C2 2 2 2 2.25 4.5 C2 7 2 7 0 9 C-3.625 8.625 -3.625 8.625 -7 8 C-7 5.69 -7 3.38 -7 1 C-4.48718205 -0.25640898 -2.78302919 -0.20872719 0 0 Z " fill="#952129" transform="translate(430,18)"/>
<path d="M0 0 C0 4.29 0 8.58 0 13 C-5.2371134 11.69072165 -5.2371134 11.69072165 -7 9 C-6.92512071 5.40579431 -6.6779536 3.65608413 -4.0625 1.125 C-2 0 -2 0 0 0 Z " fill="#8E2129" transform="translate(800,363)"/>
<path d="M0 0 C2.5 0.25 2.5 0.25 4.5 2.25 C4.75 4.75 4.75 4.75 4.5 7.25 C2.5 9.25 2.5 9.25 0 9.5 C-2.5 9.25 -2.5 9.25 -4.5 7.25 C-4.75 4.75 -4.75 4.75 -4.5 2.25 C-2.5 0.25 -2.5 0.25 0 0 Z " fill="#881F27" transform="translate(655.5,358.75)"/>
<path d="M0 0 C2.5 0.25 2.5 0.25 4.5 2.25 C4.75 4.75 4.75 4.75 4.5 7.25 C2.5 9.25 2.5 9.25 0 9.5 C-2.5 9.25 -2.5 9.25 -4.5 7.25 C-4.75 4.75 -4.75 4.75 -4.5 2.25 C-2.5 0.25 -2.5 0.25 0 0 Z " fill="#C5272C" transform="translate(665.5,231.75)"/>
<path d="M0 0 C2.875 -0.125 2.875 -0.125 6 0 C6.66 0.66 7.32 1.32 8 2 C7.625 5.125 7.625 5.125 7 8 C4.125 8.625 4.125 8.625 1 9 C0.34 8.34 -0.32 7.68 -1 7 C-0.625 3.375 -0.625 3.375 0 0 Z " fill="#952129" transform="translate(740,354)"/>
<path d="M0 0 C2.875 -0.125 2.875 -0.125 6 0 C6.66 0.66 7.32 1.32 8 2 C7.625 5.125 7.625 5.125 7 8 C4.6875 8.625 4.6875 8.625 2 9 C1.01 8.34 0.02 7.68 -1 7 C-0.67 4.69 -0.34 2.38 0 0 Z " fill="#AF252B" transform="translate(534,182)"/>
<path d="M0 0 C1.010625 0.0825 2.02125 0.165 3.0625 0.25 C5.0625 3.25 5.0625 3.25 4.8125 5.3125 C4.0625 7.25 4.0625 7.25 2.0625 9.25 C-2.49305556 8.69444444 -2.49305556 8.69444444 -3.9375 7.25 C-4.0625 4.25 -4.0625 4.25 -3.9375 1.25 C-2.9375 0.25 -2.9375 0.25 0 0 Z " fill="#982128" transform="translate(446.9375,59.75)"/>
<path d="M0 0 C3.125 0.375 3.125 0.375 6 1 C6.6875 3.3125 6.6875 3.3125 7 6 C5.875 7.875 5.875 7.875 4 9 C-0.42105263 8.57894737 -0.42105263 8.57894737 -2 7 C-2.1875 4.5625 -2.1875 4.5625 -2 2 C-1.34 1.34 -0.68 0.68 0 0 Z " fill="#C2262B" transform="translate(652,228)"/>
<path d="M0 0 C2.5 0.25 2.5 0.25 4.5 2.25 C4.125 5.375 4.125 5.375 3.5 8.25 C1.1875 8.875 1.1875 8.875 -1.5 9.25 C-2.49 8.59 -3.48 7.93 -4.5 7.25 C-4.8125 4.75 -4.8125 4.75 -4.5 2.25 C-2.5 0.25 -2.5 0.25 0 0 Z " fill="#BA262B" transform="translate(594.5,212.75)"/>
<path d="M0 0 C1.9375 0.75 1.9375 0.75 3.9375 2.75 C3.38194444 7.30555556 3.38194444 7.30555556 1.9375 8.75 C-1.0625 8.875 -1.0625 8.875 -4.0625 8.75 C-5.0625 7.75 -5.0625 7.75 -5.3125 4.8125 C-5.23 3.801875 -5.1475 2.79125 -5.0625 1.75 C-2.0625 -0.25 -2.0625 -0.25 0 0 Z " fill="#AA2329" transform="translate(530.0625,171.25)"/>
<path d="M0 0 C2.375 0.75 2.375 0.75 3.375 1.75 C3.5625 4.1875 3.5625 4.1875 3.375 6.75 C2.715 7.41 2.055 8.07 1.375 8.75 C-1.75 8.375 -1.75 8.375 -4.625 7.75 C-5.3125 5.4375 -5.3125 5.4375 -5.625 2.75 C-3.9659358 -0.015107 -3.22812218 -0.30744021 0 0 Z " fill="#CF282C" transform="translate(724.625,229.25)"/>
<path d="M0 0 C4.55555556 0.55555556 4.55555556 0.55555556 6 2 C6.1875 4.4375 6.1875 4.4375 6 7 C4 9 4 9 1.5 9.25 C-1 9 -1 9 -3 7 C-2.67028521 3.70285207 -2.3773161 2.3773161 0 0 Z " fill="#A22329" transform="translate(480,122)"/>
<path d="M0 0 C4.95 0 9.9 0 15 0 C15 1.65 15 3.3 15 5 C10.05 5 5.1 5 0 5 C0 3.33333333 0 1.66666667 0 0 Z " fill="#95888C" transform="translate(680,420)"/>
<path d="M0 0 C2.26274788 0.35355436 3.95088852 0.97544426 6 2 C6.125 4.375 6.125 4.375 6 7 C4 9 4 9 1.5 9.25 C-1 9 -1 9 -3 7 C-2.67028521 3.70285207 -2.3773161 2.3773161 0 0 Z " fill="#B5252A" transform="translate(583,205)"/>
<path d="M0 0 C4.29 0 8.58 0 13 0 C13 0.99 13 1.98 13 3 C11.35 3 9.7 3 8 3 C8 5.64 8 8.28 8 11 C7.01 11 6.02 11 5 11 C5 8.36 5 5.72 5 3 C3.35 3 1.7 3 0 3 C0 2.01 0 1.02 0 0 Z " fill="#D72A2D" transform="translate(51,415)"/>
<path d="M0 0 C3.29714793 0.32971479 4.6226839 0.6226839 7 3 C6.63318342 5.93453261 6.13562754 6.86437246 4 9 C-0.55555556 8.44444444 -0.55555556 8.44444444 -2 7 C-2.1875 4.5625 -2.1875 4.5625 -2 2 C-1.34 1.34 -0.68 0.68 0 0 Z " fill="#881F27" transform="translate(636,354)"/>
<path d="M0 0 C3.0625 0.1875 3.0625 0.1875 5.0625 2.1875 C4.6875 4.8125 4.6875 4.8125 4.0625 7.1875 C1.7364143 7.56813221 -0.59805264 7.90019945 -2.9375 8.1875 C-3.9375 7.1875 -3.9375 7.1875 -4.0625 4.1875 C-3.89838889 0.24883333 -3.89838889 0.24883333 0 0 Z " fill="#932128" transform="translate(725.9375,353.8125)"/>
<path d="M0 0 C4.55555556 0.55555556 4.55555556 0.55555556 6 2 C6.1875 4.4375 6.1875 4.4375 6 7 C5.34 7.66 4.68 8.32 4 9 C0.70285207 8.67028521 -0.6226839 8.3773161 -3 6 C-2.63318342 3.06546739 -2.13562754 2.13562754 0 0 Z " fill="#8E2027" transform="translate(707,352)"/>
<path d="M0 0 C2.5 0.25 2.5 0.25 4.5 2.25 C3.94444444 6.80555556 3.94444444 6.80555556 2.5 8.25 C-0.5 8.375 -0.5 8.375 -3.5 8.25 C-4.5 7.25 -4.5 7.25 -4.6875 4.8125 C-4.42807033 1.26696114 -3.53871738 0.35387174 0 0 Z " fill="#DC2A2D" transform="translate(776.5,212.75)"/>
<path d="M0 0 C1 1 1 1 1.125 3.5 C1 6 1 6 0 7 C-2.9375 7.1875 -2.9375 7.1875 -6 7 C-6.66 6.34 -7.32 5.68 -8 5 C-7.75 2.4375 -7.75 2.4375 -7 0 C-4.31633121 -1.3418344 -2.84719317 -0.73004953 0 0 Z " fill="#CF282C" transform="translate(716,229)"/>
<path d="M0 0 C1.4540625 0.0309375 1.4540625 0.0309375 2.9375 0.0625 C3.5625 2.9375 3.5625 2.9375 3.9375 6.0625 C1.9375 8.0625 1.9375 8.0625 -0.5625 8.3125 C-3.0625 8.0625 -3.0625 8.0625 -5.0625 6.0625 C-4.33395709 0.0884481 -4.33395709 0.0884481 0 0 Z " fill="#A02329" transform="translate(477.0625,109.9375)"/>
<path d="M0 0 C4.55555556 0.55555556 4.55555556 0.55555556 6 2 C6.1875 4.4375 6.1875 4.4375 6 7 C5.34 7.66 4.68 8.32 4 9 C0.875 8.625 0.875 8.625 -2 8 C-2.125 5.125 -2.125 5.125 -2 2 C-1.34 1.34 -0.68 0.68 0 0 Z " fill="#982128" transform="translate(443,45)"/>
<path d="M0 0 C1.98 0.495 1.98 0.495 4 1 C4.33 2.32 4.66 3.64 5 5 C5.61875 4.175 6.2375 3.35 6.875 2.5 C7.57625 1.675 8.2775 0.85 9 0 C9.66 0 10.32 0 11 0 C12.125 5.75 12.125 5.75 11 8 C7.04 8 3.08 8 -1 8 C-0.67 7.01 -0.34 6.02 0 5 C0.66 4.67 1.32 4.34 2 4 C1.67 3.34 1.34 2.68 1 2 C0.01 2.495 0.01 2.495 -1 3 C-0.67 2.01 -0.34 1.02 0 0 Z " fill="#A09DA3" transform="translate(150,347)"/>
<path d="M0 0 C2.5625 0.1875 2.5625 0.1875 4.5625 2.1875 C4.00694444 6.74305556 4.00694444 6.74305556 2.5625 8.1875 C0.125 8.375 0.125 8.375 -2.4375 8.1875 C-3.0975 7.5275 -3.7575 6.8675 -4.4375 6.1875 C-3.71780303 0.28598485 -3.71780303 0.28598485 0 0 Z " fill="#C2272B" transform="translate(643.4375,223.8125)"/>
<path d="M0 0 C2.9375 0.1875 2.9375 0.1875 3.9375 1.1875 C4.125 3.625 4.125 3.625 3.9375 6.1875 C3.2775 6.8475 2.6175 7.5075 1.9375 8.1875 C-1.1875 7.8125 -1.1875 7.8125 -4.0625 7.1875 C-4.6875 4.8125 -4.6875 4.8125 -5.0625 2.1875 C-3.0625 0.1875 -3.0625 0.1875 0 0 Z " fill="#B4252A" transform="translate(575.0625,197.8125)"/>
<path d="M0 0 C4.55555556 0.55555556 4.55555556 0.55555556 6 2 C6.1875 4.4375 6.1875 4.4375 6 7 C5.34 7.66 4.68 8.32 4 9 C-0.55555556 8.44444444 -0.55555556 8.44444444 -2 7 C-2.1875 4.5625 -2.1875 4.5625 -2 2 C-1.34 1.34 -0.68 0.68 0 0 Z " fill="#9E2228" transform="translate(470,96)"/>
<path d="M0 0 C4.55555556 0.55555556 4.55555556 0.55555556 6 2 C6.25 4.4375 6.25 4.4375 6 7 C3 9 3 9 0.875 8.6875 C-1 8 -1 8 -2 7 C-2.1875 4.5625 -2.1875 4.5625 -2 2 C-1.34 1.34 -0.68 0.68 0 0 Z " fill="#DC2A2D" transform="translate(764,214)"/>
<path d="M0 0 C3.0625 0.1875 3.0625 0.1875 5.0625 2.1875 C4.69568342 5.12203261 4.19812754 6.05187246 2.0625 8.1875 C-2.49305556 7.63194444 -2.49305556 7.63194444 -3.9375 6.1875 C-4.0625 3.6875 -4.0625 3.6875 -3.9375 1.1875 C-2.9375 0.1875 -2.9375 0.1875 0 0 Z " fill="#9B2229" transform="translate(790.9375,335.8125)"/>
<path d="M0 0 C1.2065625 0.0309375 1.2065625 0.0309375 2.4375 0.0625 C3.5625 2.375 3.5625 2.375 4.4375 5.0625 C3.4475 6.5475 3.4475 6.5475 2.4375 8.0625 C-0.0625 8.375 -0.0625 8.375 -2.5625 8.0625 C-3.2225 7.4025 -3.8825 6.7425 -4.5625 6.0625 C-3.83457637 0.09352625 -3.83457637 0.09352625 0 0 Z " fill="#AC242A" transform="translate(521.5625,160.9375)"/>
<path d="M0 0 C2.5 -0.3125 2.5 -0.3125 5 0 C5.66 0.66 6.32 1.32 7 2 C6.44444444 6.55555556 6.44444444 6.55555556 5 8 C3.33382885 8.04063832 1.66611905 8.042721 0 8 C-1.125 5.6875 -1.125 5.6875 -2 3 C-1.34 2.01 -0.68 1.02 0 0 Z " fill="#982128" transform="translate(441,31)"/>
<path d="M0 0 C0.625 1.8125 0.625 1.8125 1 4 C0.01 5.485 0.01 5.485 -1 7 C-3.5 7.375 -3.5 7.375 -6 7 C-8 4 -8 4 -7.75 1.875 C-6.17840781 -2.05398047 -3.47179029 -0.82226612 0 0 Z " fill="#BA2529" transform="translate(626,214)"/>
<path d="M0 0 C2.625 0.375 2.625 0.375 5 1 C5.625 3.375 5.625 3.375 6 6 C4 8 4 8 1.5 8.25 C-1 8 -1 8 -3 6 C-2.63318342 3.06546739 -2.13562754 2.13562754 0 0 Z " fill="#B3252A" transform="translate(564,189)"/>
<path d="M0 0 C2.625 0.375 2.625 0.375 5 1 C5.6875 3.3125 5.6875 3.3125 6 6 C4.8125 7.875 4.8125 7.875 3 9 C0.86254078 8.74853421 -0.45925779 8.54074221 -2 7 C-2.1875 4.5625 -2.1875 4.5625 -2 2 C-1.34 1.34 -0.68 0.68 0 0 Z " fill="#C4272C" transform="translate(631,218)"/>
<path d="M0 0 C0.6875 1.8125 0.6875 1.8125 1 4 C-0.0625 5.75 -0.0625 5.75 -2 7 C-5.24944058 7.40618007 -7.14818824 7.59626824 -9.875 5.6875 C-11 4 -11 4 -11 1 C-8.02148438 1.04882812 -8.02148438 1.04882812 -5.04296875 1.09765625 C-2.79694539 1.08263217 -2.79694539 1.08263217 0 0 Z " fill="#170A17" transform="translate(177,44)"/>
<path d="M0 0 C1.051875 0.185625 2.10375 0.37125 3.1875 0.5625 C6.62363423 0.95681049 8.70437302 0.73236155 12 0 C12.99 0.33 13.98 0.66 15 1 C15 2.32 15 3.64 15 5 C10.38 5 5.76 5 1 5 C0.67 3.35 0.34 1.7 0 0 Z " fill="#A09599" transform="translate(697,420)"/>
<path d="M0 0 C4.55555556 0.55555556 4.55555556 0.55555556 6 2 C6.125 4.5 6.125 4.5 6 7 C5 8 5 8 2 8.125 C-1 8 -1 8 -2 7 C-2.1875 4.5625 -2.1875 4.5625 -2 2 C-1.34 1.34 -0.68 0.68 0 0 Z " fill="#D1292C" transform="translate(700,226)"/>
<path d="M0 0 C0.625 2.375 0.625 2.375 1 5 C-1 7 -1 7 -3.5625 7.1875 C-6 7 -6 7 -7 6 C-7.04080783 4.00041636 -7.04254356 1.99954746 -7 0 C-4.3333581 -1.33332095 -2.83319697 -0.67102033 0 0 Z " fill="#DA2A2C" transform="translate(759,216)"/>
<path d="M0 0 C2.93453261 0.36681658 3.86437246 0.86437246 6 3 C5.46428571 6.53571429 5.46428571 6.53571429 4 8 C1.5625 8.1875 1.5625 8.1875 -1 8 C-1.66 7.34 -2.32 6.68 -3 6 C-2.63318342 3.06546739 -2.13562754 2.13562754 0 0 Z " fill="#8E2027" transform="translate(690,350)"/>
<path d="M0 0 C2.375 -0.125 2.375 -0.125 5 0 C5.66 0.66 6.32 1.32 7 2 C6.625 4.625 6.625 4.625 6 7 C1.25 8.125 1.25 8.125 -1 7 C-0.67 4.69 -0.34 2.38 0 0 Z " fill="#8A2028" transform="translate(618,349)"/>
<path d="M0 0 C2.00720923 0.28674418 4.0085944 0.61866701 6 1 C6 2.98 6 4.96 6 7 C3.125 7.625 3.125 7.625 0 8 C-0.66 7.34 -1.32 6.68 -2 6 C-1.44444444 1.44444444 -1.44444444 1.44444444 0 0 Z " fill="#AC242A" transform="translate(512,150)"/>
<path d="M0 0 C0.33 0.66 0.66 1.32 1 2 C2.94603274 2.59070014 2.94603274 2.59070014 5 3 C5.66 3.33 6.32 3.66 7 4 C7 3.34 7 2.68 7 2 C8.65 2.33 10.3 2.66 12 3 C12 3.66 12 4.32 12 5 C11.34 5 10.68 5 10 5 C10 4.34 10 3.68 10 3 C9.34 3 8.68 3 8 3 C8 4.32 8 5.64 8 7 C9.32 6.67 10.64 6.34 12 6 C11.67 6.66 11.34 7.32 11 8 C9.68 8 8.36 8 7 8 C7 7.34 7 6.68 7 6 C6.34 6 5.68 6 5 6 C5 6.66 5 7.32 5 8 C3.35 8 1.7 8 0 8 C0 5.36 0 2.72 0 0 Z " fill="#ACA9AE" transform="translate(64,347)"/>
<path d="M0 0 C2.625 0.375 2.625 0.375 5 1 C5.625 3.375 5.625 3.375 6 6 C4 8 4 8 1.375 8.125 C0.59125 8.08375 -0.1925 8.0425 -1 8 C-1.625 5.125 -1.625 5.125 -2 2 C-1.34 1.34 -0.68 0.68 0 0 Z " fill="#D0292C" transform="translate(689,224)"/>
<path d="M0 0 C2.5 0.125 2.5 0.125 3.5 1.125 C3.54063832 2.79117115 3.542721 4.45888095 3.5 6.125 C1.1875 7.25 1.1875 7.25 -1.5 8.125 C-2.49 7.465 -3.48 6.805 -4.5 6.125 C-3.43143596 0.1715718 -3.43143596 0.1715718 0 0 Z " fill="#882028" transform="translate(604.5,342.875)"/>
<path d="M0 0 C2.625 0.375 2.625 0.375 5 1 C5.625 3.375 5.625 3.375 6 6 C5.34 6.66 4.68 7.32 4 8 C1.375 7.625 1.375 7.625 -1 7 C-1.625 4.625 -1.625 4.625 -2 2 C-1.34 1.34 -0.68 0.68 0 0 Z " fill="#CD282C" transform="translate(678,221)"/>
<path d="M0 0 C2.625 0.375 2.625 0.375 5 1 C5.625 3.375 5.625 3.375 6 6 C5.34 6.66 4.68 7.32 4 8 C1.375 7.625 1.375 7.625 -1 7 C-1.625 4.625 -1.625 4.625 -2 2 C-1.34 1.34 -0.68 0.68 0 0 Z " fill="#A4232A" transform="translate(466,83)"/>
<path d="M0 0 C1.4540625 0.0309375 1.4540625 0.0309375 2.9375 0.0625 C4.0625 4.8125 4.0625 4.8125 2.9375 7.0625 C0.93795254 7.10504356 -1.06291636 7.10330783 -3.0625 7.0625 C-4.0625 6.0625 -4.0625 6.0625 -4.1875 3.5625 C-4.00295237 -0.12845252 -3.76342282 0.07680455 0 0 Z " fill="#9C2229" transform="translate(775.0625,337.9375)"/>
<path d="M0 0 C1.65 0.33 3.3 0.66 5 1 C5.625 3.375 5.625 3.375 6 6 C5.34 6.66 4.68 7.32 4 8 C1.375 7.625 1.375 7.625 -1 7 C-1.625 5.1875 -1.625 5.1875 -2 3 C-1.34 2.01 -0.68 1.02 0 0 Z " fill="#D8292C" transform="translate(743,215)"/>
<path d="M0 0 C2.6875 0.875 2.6875 0.875 5 2 C4.125 6.875 4.125 6.875 3 8 C1.33382885 8.04063832 -0.33388095 8.042721 -2 8 C-2.33 6.02 -2.66 4.04 -3 2 C-2.01 1.34 -1.02 0.68 0 0 Z " fill="#B5252B" transform="translate(556,180)"/>
<path d="M0 0 C2.625 0.375 2.625 0.375 5 1 C5.625 3.375 5.625 3.375 6 6 C5.34 6.66 4.68 7.32 4 8 C1.375 7.625 1.375 7.625 -1 7 C-1.625 4.625 -1.625 4.625 -2 2 C-1.34 1.34 -0.68 0.68 0 0 Z " fill="#A22228" transform="translate(499,127)"/>
<path d="M0 0 C2.625 0.375 2.625 0.375 5 1 C5.625 3.375 5.625 3.375 6 6 C5.34 6.66 4.68 7.32 4 8 C1.375 7.625 1.375 7.625 -1 7 C-1.625 4.625 -1.625 4.625 -2 2 C-1.34 1.34 -0.68 0.68 0 0 Z " fill="#9A2229" transform="translate(441,16)"/>
<path d="M0 0 C1.66611905 -0.042721 3.33382885 -0.04063832 5 0 C6 1 6 1 6.0625 3.5625 C6.041875 4.366875 6.02125 5.17125 6 6 C4.35 6.66 2.7 7.32 1 8 C0.01 7.01 -0.98 6.02 -2 5 C-1.34 3.35 -0.68 1.7 0 0 Z " fill="#AB242A" transform="translate(505,139)"/>
<path d="M0 0 C2.5 0.125 2.5 0.125 3.5 1.125 C3.625 3.625 3.625 3.625 3.5 6.125 C2.5 7.125 2.5 7.125 0.0625 7.3125 C-2.5 7.125 -2.5 7.125 -4.5 5.125 C-3.7519084 0.18759542 -3.7519084 0.18759542 0 0 Z " fill="#912028" transform="translate(674.5,347.875)"/>
<path d="M0 0 C2.5 0.125 2.5 0.125 3.5 1.125 C3.625 3.625 3.625 3.625 3.5 6.125 C2.5 7.125 2.5 7.125 0.0625 7.3125 C-2.5 7.125 -2.5 7.125 -4.5 5.125 C-3.7519084 0.18759542 -3.7519084 0.18759542 0 0 Z " fill="#9D2329" transform="translate(758.5,338.875)"/>
<path d="M0 0 C2.5 0.125 2.5 0.125 3.5 1.125 C3.625 3.625 3.625 3.625 3.5 6.125 C2.5 7.125 2.5 7.125 0.0625 7.3125 C-2.5 7.125 -2.5 7.125 -4.5 5.125 C-3.7519084 0.18759542 -3.7519084 0.18759542 0 0 Z " fill="#992229" transform="translate(443.5,1.875)"/>
<path d="M0 0 C1.67542976 0.28604898 3.34385343 0.61781233 5 1 C5 2.98 5 4.96 5 7 C2.625 7.625 2.625 7.625 0 8 C-0.66 7.34 -1.32 6.68 -2 6 C-1.44444444 1.44444444 -1.44444444 1.44444444 0 0 Z " fill="#D92A2C" transform="translate(733,215)"/>
<path d="M0 0 C1.67542976 0.28604898 3.34385343 0.61781233 5 1 C5 2.98 5 4.96 5 7 C2.625 7.625 2.625 7.625 0 8 C-0.66 7.34 -1.32 6.68 -2 6 C-1.44444444 1.44444444 -1.44444444 1.44444444 0 0 Z " fill="#BB2529" transform="translate(601,200)"/>
<path d="M0 0 C1.2065625 0.0309375 1.2065625 0.0309375 2.4375 0.0625 C3.5625 4.8125 3.5625 4.8125 2.4375 7.0625 C0.0625 7.1875 0.0625 7.1875 -2.5625 7.0625 C-3.2225 6.4025 -3.8825 5.7425 -4.5625 5.0625 C-3.80953264 0.09291543 -3.80953264 0.09291543 0 0 Z " fill="#E52C2E" transform="translate(792.5625,194.9375)"/>
<path d="M0 0 C0.625 1.875 0.625 1.875 1 4 C-1 6 -1 6 -3.5625 6.1875 C-6 6 -6 6 -7 5 C-7.04063832 3.33382885 -7.042721 1.66611905 -7 0 C-4.3333581 -1.33332095 -2.83319697 -0.67102033 0 0 Z " fill="#A02229" transform="translate(468,71)"/>
<path d="M0 0 C0.598125 0.20625 1.19625 0.4125 1.8125 0.625 C2.5 2.4375 2.5 2.4375 2.8125 4.625 C1.625 6.4375 1.625 6.4375 -0.1875 7.625 C-2.375 7.3125 -2.375 7.3125 -4.1875 6.625 C-4.5175 4.975 -4.8475 3.325 -5.1875 1.625 C-2.1875 -0.375 -2.1875 -0.375 0 0 Z " fill="#A72329" transform="translate(497.1875,115.375)"/>
<path d="M0 0 C2.625 0.375 2.625 0.375 5 1 C5.125 3.375 5.125 3.375 5 6 C4.34 6.66 3.68 7.32 3 8 C0.875 7.625 0.875 7.625 -1 7 C-1.625 4.625 -1.625 4.625 -2 2 C-1.34 1.34 -0.68 0.68 0 0 Z " fill="#9A2229" transform="translate(740,339)"/>
<path d="M0 0 C2.5 0.125 2.5 0.125 3.5 1.125 C3.625 3.625 3.625 3.625 3.5 6.125 C2.5 7.125 2.5 7.125 0 7.25 C-2.5 7.125 -2.5 7.125 -3.5 6.125 C-3.625 3.625 -3.625 3.625 -3.5 1.125 C-2.5 0.125 -2.5 0.125 0 0 Z " fill="#882028" transform="translate(587.5,335.875)"/>
<path d="M0 0 C2.5 0.125 2.5 0.125 3.5 1.125 C3.625 3.625 3.625 3.625 3.5 6.125 C2.5 7.125 2.5 7.125 0 7.25 C-2.5 7.125 -2.5 7.125 -3.5 6.125 C-3.625 3.625 -3.625 3.625 -3.5 1.125 C-2.5 0.125 -2.5 0.125 0 0 Z " fill="#D0292C" transform="translate(669.5,217.875)"/>
<path d="M0 0 C2.125 0.375 2.125 0.375 4 1 C4.625 3.375 4.625 3.375 5 6 C4.34 6.66 3.68 7.32 3 8 C0.375 7.625 0.375 7.625 -2 7 C-2.125 4.625 -2.125 4.625 -2 2 C-1.34 1.34 -0.68 0.68 0 0 Z " fill="#DC2B2D" transform="translate(723,214)"/>
<path d="M0 0 C2.5 0.125 2.5 0.125 3.5 1.125 C3.625 3.625 3.625 3.625 3.5 6.125 C2.5 7.125 2.5 7.125 0 7.25 C-2.5 7.125 -2.5 7.125 -3.5 6.125 C-3.625 3.625 -3.625 3.625 -3.5 1.125 C-2.5 0.125 -2.5 0.125 0 0 Z " fill="#C4282C" transform="translate(612.5,206.875)"/>
<path d="M0 0 C2.625 0.375 2.625 0.375 5 1 C5.125 3.375 5.125 3.375 5 6 C4.34 6.66 3.68 7.32 3 8 C0.875 7.625 0.875 7.625 -1 7 C-1.625 4.625 -1.625 4.625 -2 2 C-1.34 1.34 -0.68 0.68 0 0 Z " fill="#B7262B" transform="translate(547,171)"/>
<path d="M0 0 C1.67542976 0.28604898 3.34385343 0.61781233 5 1 C5.04254356 2.99954746 5.04080783 5.00041636 5 7 C4 8 4 8 1.4375 8.0625 C0.633125 8.041875 -0.17125 8.02125 -1 8 C-1.04241723 5.66705225 -1.04092937 3.33297433 -1 1 C-0.67 0.67 -0.34 0.34 0 0 Z " fill="#A09DA2" transform="translate(93,347)"/>
<path d="M0 0 C0.042721 1.66611905 0.04063832 3.33382885 0 5 C-1 6 -1 6 -3.5 6.125 C-6 6 -6 6 -7 5 C-7.04063832 3.33382885 -7.042721 1.66611905 -7 0 C-4.3333581 -1.33332095 -2.83319697 -0.67102033 0 0 Z " fill="#E52C2E" transform="translate(786,198)"/>
<path d="M0 0 C1.65 0 3.3 0 5 0 C5.66 1.32 6.32 2.64 7 4 C6.01 5.485 6.01 5.485 5 7 C3.35 6.67 1.7 6.34 0 6 C-1.125 2.25 -1.125 2.25 0 0 Z " fill="#B12429" transform="translate(538,162)"/>
<path d="M0 0 C0.33 1.65 0.66 3.3 1 5 C-0.65 5.66 -2.3 6.32 -4 7 C-6 5 -6 5 -6.125 2.375 C-6.08375 1.59125 -6.0425 0.8075 -6 0 C-3.50907189 -1.24546405 -2.58919267 -0.7767578 0 0 Z " fill="#A02229" transform="translate(465,57)"/>
<path d="M0 0 C1.67542976 0.28604898 3.34385343 0.61781233 5 1 C5 2.98 5 4.96 5 7 C3.35 7.33 1.7 7.66 0 8 C-0.38063221 5.6739143 -0.71269945 3.33944736 -1 1 C-0.67 0.67 -0.34 0.34 0 0 Z " fill="#88848B" transform="translate(142,347)"/>
<path d="M0 0 C0.042721 1.66611905 0.04063832 3.33382885 0 5 C-1 6 -1 6 -3.5 6.125 C-6 6 -6 6 -7 5 C-7.04063832 3.33382885 -7.042721 1.66611905 -7 0 C-4.3333581 -1.33332095 -2.83319697 -0.67102033 0 0 Z " fill="#902028" transform="translate(661,345)"/>
<path d="M0 0 C0.042721 1.66611905 0.04063832 3.33382885 0 5 C-1 6 -1 6 -3.5 6.125 C-6 6 -6 6 -7 5 C-7.04063832 3.33382885 -7.042721 1.66611905 -7 0 C-4.3333581 -1.33332095 -2.83319697 -0.67102033 0 0 Z " fill="#851F27" transform="translate(575,329)"/>
<path d="M0 0 C1.67542976 0.28604898 3.34385343 0.61781233 5 1 C5.38218767 2.65614657 5.71395102 4.32457024 6 6 C5 7 5 7 2.5 7.125 C0 7 0 7 -1 6 C-1.125 3.5 -1.125 3.5 -1 1 C-0.67 0.67 -0.34 0.34 0 0 Z " fill="#CD292C" transform="translate(657,214)"/>
<path d="M0 0 C1.67542976 0.28604898 3.34385343 0.61781233 5 1 C5.38218767 2.65614657 5.71395102 4.32457024 6 6 C5 7 5 7 2.5 7.125 C0 7 0 7 -1 6 C-1.125 3.5 -1.125 3.5 -1 1 C-0.67 0.67 -0.34 0.34 0 0 Z " fill="#D0272A" transform="translate(712,213)"/>
<path d="M0 0 C1.67542976 0.28604898 3.34385343 0.61781233 5 1 C5.38218767 2.65614657 5.71395102 4.32457024 6 6 C5 7 5 7 2.5 7.125 C0 7 0 7 -1 6 C-1.125 3.5 -1.125 3.5 -1 1 C-0.67 0.67 -0.34 0.34 0 0 Z " fill="#BC262A" transform="translate(591,193)"/>
<path d="M0 0 C1.98 0.99 1.98 0.99 4 2 C4.33 1.34 4.66 0.68 5 0 C5.66 0 6.32 0 7 0 C7 2.64 7 5.28 7 8 C6.01 7.67 5.02 7.34 4 7 C3.67 6.34 3.34 5.68 3 5 C2.67 5.99 2.34 6.98 2 8 C1.34 8 0.68 8 0 8 C0 5.36 0 2.72 0 0 Z " fill="#A19EA3" transform="translate(27,347)"/>
<path d="M0 0 C1.67542976 0.28604898 3.34385343 0.61781233 5 1 C5.33 2.32 5.66 3.64 6 5 C3.6875 6.125 3.6875 6.125 1 7 C0.01 6.34 -0.98 5.68 -2 5 C-1.125 1.125 -1.125 1.125 0 0 Z " fill="#C7272A" transform="translate(647,210)"/>
<path d="M0 0 C2.125 0.375 2.125 0.375 4 1 C4.38218767 2.65614657 4.71395102 4.32457024 5 6 C4 7 4 7 0.9375 7.0625 C-0.5165625 7.0315625 -0.5165625 7.0315625 -2 7 C-2.125 4.625 -2.125 4.625 -2 2 C-1.34 1.34 -0.68 0.68 0 0 Z " fill="#DF2A2C" transform="translate(772,198)"/>
<path d="M0 0 C5.94 0 11.88 0 18 0 C18 0.99 18 1.98 18 3 C17.01 3 16.02 3 15 3 C15 2.34 15 1.68 15 1 C11.04 1 7.08 1 3 1 C3 2.32 3 3.64 3 5 C1.35 4.67 -0.3 4.34 -2 4 C-1.34 2.68 -0.68 1.36 0 0 Z " fill="#722C32" transform="translate(474,0)"/>
<path d="M0 0 C1.67542976 0.28604898 3.34385343 0.61781233 5 1 C5.625 2.875 5.625 2.875 6 5 C5.34 5.66 4.68 6.32 4 7 C1.375 6.625 1.375 6.625 -1 6 C-1.042721 4.33388095 -1.04063832 2.66617115 -1 1 C-0.67 0.67 -0.34 0.34 0 0 Z " fill="#C22629" transform="translate(637,205)"/>
<path d="M0 0 C1.2065625 0.0309375 1.2065625 0.0309375 2.4375 0.0625 C3.0625 2.4375 3.0625 2.4375 3.4375 5.0625 C2.7775 5.7225 2.1175 6.3825 1.4375 7.0625 C-0.6875 6.6875 -0.6875 6.6875 -2.5625 6.0625 C-2.94468767 4.40635343 -3.27645102 2.73792976 -3.5625 1.0625 C-2.5625 0.0625 -2.5625 0.0625 0 0 Z " fill="#DF2A2C" transform="translate(763.5625,199.9375)"/>
<path d="M0 0 C1.2065625 0.0309375 1.2065625 0.0309375 2.4375 0.0625 C3.0625 2.4375 3.0625 2.4375 3.4375 5.0625 C2.7775 5.7225 2.1175 6.3825 1.4375 7.0625 C-0.6875 6.6875 -0.6875 6.6875 -2.5625 6.0625 C-2.94468767 4.40635343 -3.27645102 2.73792976 -3.5625 1.0625 C-2.5625 0.0625 -2.5625 0.0625 0 0 Z " fill="#BC262A" transform="translate(584.5625,185.9375)"/>
<path d="M0 0 C1.2065625 0.0309375 1.2065625 0.0309375 2.4375 0.0625 C3.0625 2.4375 3.0625 2.4375 3.4375 5.0625 C2.7775 5.7225 2.1175 6.3825 1.4375 7.0625 C-0.6875 6.6875 -0.6875 6.6875 -2.5625 6.0625 C-2.94468767 4.40635343 -3.27645102 2.73792976 -3.5625 1.0625 C-2.5625 0.0625 -2.5625 0.0625 0 0 Z " fill="#B3252A" transform="translate(533.5625,151.9375)"/>
<path d="M0 0 C1.67542976 0.28604898 3.34385343 0.61781233 5 1 C5 2.65 5 4.3 5 6 C2.625 6.625 2.625 6.625 0 7 C-0.66 6.34 -1.32 5.68 -2 5 C-1.46428571 1.46428571 -1.46428571 1.46428571 0 0 Z " fill="#A8242A" transform="translate(489,103)"/>
<path d="M0 0 C2.125 0.375 2.125 0.375 4 1 C4.38218767 2.65614657 4.71395102 4.32457024 5 6 C4 7 4 7 1.4375 7.0625 C0.2309375 7.0315625 0.2309375 7.0315625 -1 7 C-1.625 4.625 -1.625 4.625 -2 2 C-1.34 1.34 -0.68 0.68 0 0 Z " fill="#9E2229" transform="translate(459,42)"/>
<path d="M0 0 C0 0.66 0 1.32 0 2 C0.99 2.33 1.98 2.66 3 3 C3 3.66 3 4.32 3 5 C-0.63 5 -4.26 5 -8 5 C-5.5 0 -5.5 0 0 0 Z " fill="#1D0B19" transform="translate(129,29)"/>
<path d="M0 0 C0 0.66 0 1.32 0 2 C0.66 2 1.32 2 2 2 C2.33 2.99 2.66 3.98 3 5 C-0.63 5 -4.26 5 -8 5 C-5.5 0 -5.5 0 0 0 Z " fill="#1E0B17" transform="translate(198,29)"/>
<path d="M0 0 C1.67542976 0.28604898 3.34385343 0.61781233 5 1 C5.33 2.32 5.66 3.64 6 5 C3.625 6.0625 3.625 6.0625 1 7 C0.34 6.67 -0.32 6.34 -1 6 C-1.042721 4.33388095 -1.04063832 2.66617115 -1 1 C-0.67 0.67 -0.34 0.34 0 0 Z " fill="#9A2229" transform="translate(723,339)"/>
<path d="M0 0 C1.32 0.33 2.64 0.66 4 1 C4.38218767 2.65614657 4.71395102 4.32457024 5 6 C4 7 4 7 1.4375 7.0625 C0.2309375 7.0315625 0.2309375 7.0315625 -1 7 C-1.625 5.1875 -1.625 5.1875 -2 3 C-1.34 2.01 -0.68 1.02 0 0 Z " fill="#D4292B" transform="translate(702,211)"/>
<path d="M0 0 C2.0625 0.4375 2.0625 0.4375 4 1 C4.33 2.65 4.66 4.3 5 6 C2.625 6.625 2.625 6.625 0 7 C-0.66 6.34 -1.32 5.68 -2 5 C-1.46428571 1.46428571 -1.46428571 1.46428571 0 0 Z " fill="#D0282A" transform="translate(692,209)"/>
<path d="M0 0 C1.32 0 2.64 0 4 0 C5.125 4.75 5.125 4.75 4 7 C2.35 6.67 0.7 6.34 -1 6 C-1.625 4.125 -1.625 4.125 -2 2 C-1.34 1.34 -0.68 0.68 0 0 Z " fill="#AD2328" transform="translate(525,141)"/>
<path d="M0 0 C1.67542976 0.28604898 3.34385343 0.61781233 5 1 C4.67 2.65 4.34 4.3 4 6 C2.125 6.625 2.125 6.625 0 7 C-0.66 6.34 -1.32 5.68 -2 5 C-1.46428571 1.46428571 -1.46428571 1.46428571 0 0 Z " fill="#A62329" transform="translate(485,91)"/>
<path d="M0 0 C1.67542976 0.28604898 3.34385343 0.61781233 5 1 C5 2.32 5 3.64 5 5 C4.34 5.66 3.68 6.32 3 7 C0.875 6.625 0.875 6.625 -1 6 C-1.042721 4.33388095 -1.04063832 2.66617115 -1 1 C-0.67 0.67 -0.34 0.34 0 0 Z " fill="#8E2028" transform="translate(639,340)"/>
<path d="M0 0 C1.67542976 0.28604898 3.34385343 0.61781233 5 1 C5 2.65 5 4.3 5 6 C3.34385343 6.38218767 1.67542976 6.71395102 0 7 C-1 6 -1 6 -1.125 3.5 C-1 1 -1 1 0 0 Z " fill="#DE2A2C" transform="translate(752,200)"/>
<path d="M0 0 C2.125 0.375 2.125 0.375 4 1 C4.625 2.875 4.625 2.875 5 5 C4.34 5.66 3.68 6.32 3 7 C1.68 7 0.36 7 -1 7 C-1.625 4.625 -1.625 4.625 -2 2 C-1.34 1.34 -0.68 0.68 0 0 Z " fill="#D8282A" transform="translate(743,200)"/>
<path d="M0 0 C1.2065625 0.0309375 1.2065625 0.0309375 2.4375 0.0625 C2.81968767 1.71864657 3.15145102 3.38707024 3.4375 5.0625 C2.4375 6.0625 2.4375 6.0625 -0.125 6.125 C-1.3315625 6.0940625 -1.3315625 6.0940625 -2.5625 6.0625 C-2.94468767 4.40635343 -3.27645102 2.73792976 -3.5625 1.0625 C-2.5625 0.0625 -2.5625 0.0625 0 0 Z " fill="#C22629" transform="translate(629.5625,199.9375)"/>
<path d="M0 0 C1.67542976 0.28604898 3.34385343 0.61781233 5 1 C5 2.65 5 4.3 5 6 C3.34385343 6.38218767 1.67542976 6.71395102 0 7 C-1 6 -1 6 -1.125 3.5 C-1 1 -1 1 0 0 Z " fill="#9E2127" transform="translate(481,78)"/>
<path d="M0 0 C1.2065625 0.0309375 1.2065625 0.0309375 2.4375 0.0625 C2.81968767 1.71864657 3.15145102 3.38707024 3.4375 5.0625 C2.4375 6.0625 2.4375 6.0625 -0.125 6.125 C-1.3315625 6.0940625 -1.3315625 6.0940625 -2.5625 6.0625 C-2.94468767 4.40635343 -3.27645102 2.73792976 -3.5625 1.0625 C-2.5625 0.0625 -2.5625 0.0625 0 0 Z " fill="#972128" transform="translate(708.5625,337.9375)"/>
<path d="M0 0 C2.125 0.375 2.125 0.375 4 1 C4.625 2.875 4.625 2.875 5 5 C4.34 5.66 3.68 6.32 3 7 C0.875 6.625 0.875 6.625 -1 6 C-1.625 4.125 -1.625 4.125 -2 2 C-1.34 1.34 -0.68 0.68 0 0 Z " fill="#8C1F27" transform="translate(623,334)"/>
<path d="M0 0 C2.125 0.375 2.125 0.375 4 1 C4.625 2.875 4.625 2.875 5 5 C4.34 5.66 3.68 6.32 3 7 C0.875 6.625 0.875 6.625 -1 6 C-1.625 4.125 -1.625 4.125 -2 2 C-1.34 1.34 -0.68 0.68 0 0 Z " fill="#A6242A" transform="translate(786,321)"/>
<path d="M0 0 C1.65 0 3.3 0 5 0 C5.33 1.65 5.66 3.3 6 5 C3.625 5.625 3.625 5.625 1 6 C0.34 5.34 -0.32 4.68 -1 4 C-0.625 1.875 -0.625 1.875 0 0 Z " fill="#862028" transform="translate(553,320)"/>
<path d="M0 0 C2.625 0.375 2.625 0.375 5 1 C4.67 2.65 4.34 4.3 4 6 C2.35 6 0.7 6 -1 6 C-1.625 4.125 -1.625 4.125 -2 2 C-1.34 1.34 -0.68 0.68 0 0 Z " fill="#BC262A" transform="translate(574,178)"/>
<path d="M0 0 C1.2065625 0.0309375 1.2065625 0.0309375 2.4375 0.0625 C3.5625 3.8125 3.5625 3.8125 2.4375 6.0625 C0.7875 6.0625 -0.8625 6.0625 -2.5625 6.0625 C-2.94468767 4.40635343 -3.27645102 2.73792976 -3.5625 1.0625 C-2.5625 0.0625 -2.5625 0.0625 0 0 Z " fill="#A12329" transform="translate(459.5625,28.9375)"/>
<path d="M0 0 C2.0625 0.4375 2.0625 0.4375 4 1 C4.33 2.32 4.66 3.64 5 5 C3.02 5.99 3.02 5.99 1 7 C0.01 6.34 -0.98 5.68 -2 5 C-1.125 1.125 -1.125 1.125 0 0 Z " fill="#811E26" transform="translate(539,310)"/>
<path d="M0 0 C7.75 -0.125 7.75 -0.125 10 1 C10 1.66 10 2.32 10 3 C10.66 3.33 11.32 3.66 12 4 C8 4 4 4 0 4 C0 2.68 0 1.36 0 0 Z " fill="#ACA2A6" transform="translate(747,421)"/>
<path d="M0 0 C2.0625 0.4375 2.0625 0.4375 4 1 C4.625 2.875 4.625 2.875 5 5 C4.34 5.66 3.68 6.32 3 7 C0.875 6.625 0.875 6.625 -1 6 C-1.042721 4.33388095 -1.04063832 2.66617115 -1 1 C-0.67 0.67 -0.34 0.34 0 0 Z " fill="#DB292B" transform="translate(733,200)"/>
<path d="M0 0 C0.99 0 1.98 0 3 0 C3 3.63 3 7.26 3 11 C2.01 11 1.02 11 0 11 C0 7.37 0 3.74 0 0 Z " fill="#E72D2F" transform="translate(97,415)"/>
<path d="M0 0 C1.67542976 0.28604898 3.34385343 0.61781233 5 1 C4.67 2.65 4.34 4.3 4 6 C2.35 6 0.7 6 -1 6 C-1.042721 4.33388095 -1.04063832 2.66617115 -1 1 C-0.67 0.67 -0.34 0.34 0 0 Z " fill="#A22329" transform="translate(770,323)"/>
<path d="M0 0 C1.65 0 3.3 0 5 0 C5.33 1.65 5.66 3.3 6 5 C4.34385343 5.38218767 2.67542976 5.71395102 1 6 C0 5 0 5 -0.0625 2.4375 C-0.041875 1.633125 -0.02125 0.82875 0 0 Z " fill="#D72A2D" transform="translate(681,207)"/>
<path d="M0 0 C1.65 0 3.3 0 5 0 C5.625 1.875 5.625 1.875 6 4 C5.34 4.66 4.68 5.32 4 6 C1.9375 5.8125 1.9375 5.8125 0 5 C-0.33 4.01 -0.66 3.02 -1 2 C-0.67 1.34 -0.34 0.68 0 0 Z " fill="#BB262A" transform="translate(565,170)"/>
<path d="M0 0 C1.65 0 3.3 0 5 0 C5.625 1.875 5.625 1.875 6 4 C5.34 4.66 4.68 5.32 4 6 C2.68 6 1.36 6 0 6 C-1.125 2.25 -1.125 2.25 0 0 Z " fill="#B1252A" transform="translate(518,131)"/>
<path d="M0 0 C1.98 0.495 1.98 0.495 4 1 C4.33 2.32 4.66 3.64 5 5 C3.02 5.99 3.02 5.99 1 7 C0.34 6.34 -0.32 5.68 -1 5 C-0.625 2.375 -0.625 2.375 0 0 Z " fill="#DC2C2F" transform="translate(145,421)"/>
<path d="M0 0 C1.65 0.33 3.3 0.66 5 1 C4.67 2.65 4.34 4.3 4 6 C2.35 5.67 0.7 5.34 -1 5 C-0.67 3.35 -0.34 1.7 0 0 Z " fill="#992228" transform="translate(690,336)"/>
<path d="M0 0 C1.65 0.33 3.3 0.66 5 1 C4.67 2.65 4.34 4.3 4 6 C2.35 5.67 0.7 5.34 -1 5 C-0.67 3.35 -0.34 1.7 0 0 Z " fill="#9D2228" transform="translate(754,324)"/>
<path d="M0 0 C1.65 0.33 3.3 0.66 5 1 C4.67 2.65 4.34 4.3 4 6 C2.35 5.67 0.7 5.34 -1 5 C-0.67 3.35 -0.34 1.7 0 0 Z " fill="#C9282C" transform="translate(618,194)"/>
<path d="M0 0 C1.65 0.33 3.3 0.66 5 1 C4.67 2.65 4.34 4.3 4 6 C2.35 5.67 0.7 5.34 -1 5 C-0.67 3.35 -0.34 1.7 0 0 Z " fill="#B8252A" transform="translate(558,161)"/>
<path d="M0 0 C1.65 0.33 3.3 0.66 5 1 C4.67 2.65 4.34 4.3 4 6 C2.35 5.67 0.7 5.34 -1 5 C-0.67 3.35 -0.34 1.7 0 0 Z " fill="#AC2328" transform="translate(513,120)"/>
<path d="M0 0 C1.65 0.33 3.3 0.66 5 1 C4.67 2.65 4.34 4.3 4 6 C2.35 5.67 0.7 5.34 -1 5 C-0.67 3.35 -0.34 1.7 0 0 Z " fill="#A1232A" transform="translate(457,15)"/>
<path d="M0 0 C1.65 0.33 3.3 0.66 5 1 C4.67 2.65 4.34 4.3 4 6 C2.35 5.67 0.7 5.34 -1 5 C-0.67 3.35 -0.34 1.7 0 0 Z " fill="#9D2228" transform="translate(457,1)"/>
<path d="M0 0 C1.67542976 0.28604898 3.34385343 0.61781233 5 1 C5 2.32 5 3.64 5 5 C3.35 5.33 1.7 5.66 0 6 C-0.38218767 4.34385343 -0.71395102 2.67542976 -1 1 C-0.67 0.67 -0.34 0.34 0 0 Z " fill="#922027" transform="translate(674,333)"/>
<path d="M0 0 C1.65 0 3.3 0 5 0 C5 1.65 5 3.3 5 5 C3.125 5.625 3.125 5.625 1 6 C0.34 5.34 -0.32 4.68 -1 4 C-0.625 1.875 -0.625 1.875 0 0 Z " fill="#8A1F27" transform="translate(606,329)"/>
<path d="M0 0 C1.65 0.33 3.3 0.66 5 1 C4.67 2.65 4.34 4.3 4 6 C2.35 5.67 0.7 5.34 -1 5 C-0.67 3.35 -0.34 1.7 0 0 Z " fill="#821E27" transform="translate(524,300)"/>
<path d="M0 0 C1.65 0.33 3.3 0.66 5 1 C4.67 2.65 4.34 4.3 4 6 C2.35 5.67 0.7 5.34 -1 5 C-0.67 3.35 -0.34 1.7 0 0 Z " fill="#D1282B" transform="translate(672,204)"/>
<path d="M0 0 C1.67542976 0.28604898 3.34385343 0.61781233 5 1 C4.67 2.65 4.34 4.3 4 6 C2.68 6 1.36 6 0 6 C-0.38218767 4.34385343 -0.71395102 2.67542976 -1 1 C-0.67 0.67 -0.34 0.34 0 0 Z " fill="#C1262A" transform="translate(609,188)"/>
<path d="M0 0 C1.65 0.33 3.3 0.66 5 1 C4.67 2.65 4.34 4.3 4 6 C2.35 5.67 0.7 5.34 -1 5 C-0.67 3.35 -0.34 1.7 0 0 Z " fill="#A42329" transform="translate(478,66)"/>
<path d="M0 0 C3.63 0 7.26 0 11 0 C9.3125 2.0625 9.3125 2.0625 7 4 C4.375 3.9375 4.375 3.9375 2 3 C1.34 2.01 0.68 1.02 0 0 Z " fill="#190B18" transform="translate(121,38)"/>
<path d="M0 0 C0.33 1.65 0.66 3.3 1 5 C-1.64 5 -4.28 5 -7 5 C-7 3.68 -7 2.36 -7 1 C-2.25 0 -2.25 0 0 0 Z " fill="#9B8F93" transform="translate(772,420)"/>
<path d="M0 0 C2.64 0.33 5.28 0.66 8 1 C8 2.32 8 3.64 8 5 C5.36 5 2.72 5 0 5 C0 3.35 0 1.7 0 0 Z " fill="#B2A9AC" transform="translate(737,420)"/>
<path d="M0 0 C1.65 0.33 3.3 0.66 5 1 C4.67 2.65 4.34 4.3 4 6 C2.0625 5.6875 2.0625 5.6875 0 5 C-0.33 4.01 -0.66 3.02 -1 2 C-0.67 1.34 -0.34 0.68 0 0 Z " fill="#D3292C" transform="translate(662,200)"/>
<path d="M0 0 C1.65 0.33 3.3 0.66 5 1 C5 2.32 5 3.64 5 5 C3.125 5.625 3.125 5.625 1 6 C0.34 5.34 -0.32 4.68 -1 4 C-0.625 1.875 -0.625 1.875 0 0 Z " fill="#E12B2D" transform="translate(723,200)"/>
<path d="M0 0 C1.32 0 2.64 0 4 0 C4.625 1.875 4.625 1.875 5 4 C4.34 4.66 3.68 5.32 3 6 C0.875 5.625 0.875 5.625 -1 5 C-0.67 3.35 -0.34 1.7 0 0 Z " fill="#B42429" transform="translate(551,152)"/>
<path d="M0 0 C0.66 0 1.32 0 2 0 C3.125 5.75 3.125 5.75 2 8 C1.34 8 0.68 8 0 8 C0 7.34 0 6.68 0 6 C-0.99 6 -1.98 6 -3 6 C-1.125 1.125 -1.125 1.125 0 0 Z " fill="#B3B1B6" transform="translate(159,347)"/>
<path d="M0 0 C1.98 0.495 1.98 0.495 4 1 C4.33 2.32 4.66 3.64 5 5 C3.35 5.33 1.7 5.66 0 6 C-1.125 2.25 -1.125 2.25 0 0 Z " fill="#912027" transform="translate(658,329)"/>
<path d="M0 0 C1.67542976 0.28604898 3.34385343 0.61781233 5 1 C4.67 2.32 4.34 3.64 4 5 C2.68 5 1.36 5 0 5 C-0.5625 3.0625 -0.5625 3.0625 -1 1 C-0.67 0.67 -0.34 0.34 0 0 Z " fill="#D3292C" transform="translate(653,196)"/>
<path d="M0 0 C1.65 0 3.3 0 5 0 C5.5625 1.9375 5.5625 1.9375 6 4 C5 5 5 5 2.4375 5.0625 C1.2309375 5.0315625 1.2309375 5.0315625 0 5 C0 3.35 0 1.7 0 0 Z " fill="#AE2429" transform="translate(507,109)"/>
<path d="M0 0 C-0.33 1.65 -0.66 3.3 -1 5 C-2.32 4.67 -3.64 4.34 -5 4 C-5.33 2.68 -5.66 1.36 -6 0 C-3.50907189 -1.24546405 -2.58919267 -0.7767578 0 0 Z " fill="#A92328" transform="translate(508,98)"/>
<path d="M0 0 C1.98 0 3.96 0 6 0 C6 1.65 6 3.3 6 5 C3.69 5 1.38 5 -1 5 C-0.67 3.35 -0.34 1.7 0 0 Z " fill="#9F9397" transform="translate(722,420)"/>
<path d="M0 0 C1.98 0.495 1.98 0.495 4 1 C4 2.65 4 4.3 4 6 C2.35 5.67 0.7 5.34 -1 5 C-0.67 3.35 -0.34 1.7 0 0 Z " fill="#98959B" transform="translate(36,349)"/>
<path d="M0 0 C1.32 0.66 2.64 1.32 4 2 C3.67 3.32 3.34 4.64 3 6 C1.35 5.67 -0.3 5.34 -2 5 C-1.125 1.125 -1.125 1.125 0 0 Z " fill="#801E26" transform="translate(511,289)"/>
<path d="M0 0 C0.99 0.33 1.98 0.66 3 1 C3 2.65 3 4.3 3 6 C1.35 6 -0.3 6 -2 6 C-2 4.35 -2 2.7 -2 1 C-1.34 0.67 -0.68 0.34 0 0 Z " fill="#DF2B2D" transform="translate(715,198)"/>
<path d="M0 0 C2.125 0.9375 2.125 0.9375 4 2 C3.34 3.32 2.68 4.64 2 6 C0.68 5.67 -0.64 5.34 -2 5 C-2 3.68 -2 2.36 -2 1 C-1.34 0.67 -0.68 0.34 0 0 Z " fill="#CB272A" transform="translate(645,191)"/>
<path d="M0 0 C2.0625 0.4375 2.0625 0.4375 4 1 C3.67 2.65 3.34 4.3 3 6 C1.68 6 0.36 6 -1 6 C-1.042721 4.33388095 -1.04063832 2.66617115 -1 1 C-0.67 0.67 -0.34 0.34 0 0 Z " fill="#C3272A" transform="translate(601,181)"/>
<path d="M0 0 C1.65 0.33 3.3 0.66 5 1 C4.67 2.32 4.34 3.64 4 5 C2.35 4.67 0.7 4.34 -1 4 C-0.67 2.68 -0.34 1.36 0 0 Z " fill="#A02329" transform="translate(738,325)"/>
<path d="M0 0 C1.98 0.495 1.98 0.495 4 1 C3.67 2.65 3.34 4.3 3 6 C1.68 5.67 0.36 5.34 -1 5 C-0.67 3.35 -0.34 1.7 0 0 Z " fill="#881F26" transform="translate(576,314)"/>
<path d="M0 0 C2.0625 0.4375 2.0625 0.4375 4 1 C3.67 2.32 3.34 3.64 3 5 C1.68 5 0.36 5 -1 5 C-1 1 -1 1 0 0 Z " fill="#7C1D26" transform="translate(497,278)"/>
<path d="M0 0 C1.65 0.33 3.3 0.66 5 1 C4.67 2.32 4.34 3.64 4 5 C2.35 4.67 0.7 4.34 -1 4 C-0.67 2.68 -0.34 1.36 0 0 Z " fill="#D9292B" transform="translate(704,197)"/>
<path d="M0 0 C1.65 0 3.3 0 5 0 C5.33 0.99 5.66 1.98 6 3 C5.67 3.66 5.34 4.32 5 5 C3.35 5 1.7 5 0 5 C0 3.35 0 1.7 0 0 Z " fill="#A62329" transform="translate(475,53)"/>
<path d="M0 0 C1.65 0.33 3.3 0.66 5 1 C4.67 2.32 4.34 3.64 4 5 C2.35 4.67 0.7 4.34 -1 4 C-0.67 2.68 -0.34 1.36 0 0 Z " fill="#A72329" transform="translate(474,40)"/>
<path d="M0 0 C0.33 1.65 0.66 3.3 1 5 C-1.31 4.67 -3.62 4.34 -6 4 C-6 2.68 -6 1.36 -6 0 C-3.50907189 -1.24546405 -2.58919267 -0.7767578 0 0 Z " fill="#B1A8AB" transform="translate(736,421)"/>
<path d="M0 0 C4 0 4 0 6 1 C4.86695008 4.39914975 3.87481525 5.05254451 1 7 C0 6 0 6 -0.0625 2.9375 C-0.041875 1.968125 -0.02125 0.99875 0 0 Z " fill="#28232F" transform="translate(147,348)"/>
<path d="M0 0 C2.0625 0.4375 2.0625 0.4375 4 1 C3.67 2.32 3.34 3.64 3 5 C1.68 5 0.36 5 -1 5 C-1 1 -1 1 0 0 Z " fill="#C5272B" transform="translate(593,174)"/>
<path d="M0 0 C1.65 0.33 3.3 0.66 5 1 C4.67 2.32 4.34 3.64 4 5 C2.35 4.67 0.7 4.34 -1 4 C-0.67 2.68 -0.34 1.36 0 0 Z " fill="#B9252A" transform="translate(544,143)"/>
<path d="M0 0 C0.66 0 1.32 0 2 0 C2 2.31 2 4.62 2 7 C3.98 6.67 5.96 6.34 8 6 C7.67 6.99 7.34 7.98 7 9 C4.36 8.67 1.72 8.34 -1 8 C-0.34 7.67 0.32 7.34 1 7 C0.34 5.02 -0.32 3.04 -1 1 C-0.67 0.67 -0.34 0.34 0 0 Z " fill="#C0BEC2" transform="translate(122,347)"/>
<path d="M0 0 C0 2.31 0 4.62 0 7 C0.66 7.33 1.32 7.66 2 8 C0.02 8 -1.96 8 -4 8 C-3.34 7.67 -2.68 7.34 -2 7 C-2 5.68 -2 4.36 -2 3 C-2.66 3 -3.32 3 -4 3 C-4 2.34 -4 1.68 -4 1 C-2 0 -2 0 0 0 Z " fill="#B8B6BA" transform="translate(89,347)"/>
<path d="M0 0 C1.32 0 2.64 0 4 0 C4 1.65 4 3.3 4 5 C2.35 5 0.7 5 -1 5 C-0.67 3.35 -0.34 1.7 0 0 Z " fill="#8F2129" transform="translate(591,322)"/>
<path d="M0 0 C1.98 0.495 1.98 0.495 4 1 C4 2.32 4 3.64 4 5 C2.35 4.67 0.7 4.34 -1 4 C-0.67 2.68 -0.34 1.36 0 0 Z " fill="#932027" transform="translate(642,325)"/>
<path d="M0 0 C1.32 0 2.64 0 4 0 C4 1.65 4 3.3 4 5 C2.35 4.67 0.7 4.34 -1 4 C-0.67 2.68 -0.34 1.36 0 0 Z " fill="#DB2A2C" transform="translate(695,195)"/>
<path d="M0 0 C1.32 0.66 2.64 1.32 4 2 C4 2.99 4 3.98 4 5 C2.68 5.33 1.36 5.66 0 6 C-0.38218767 4.34385343 -0.71395102 2.67542976 -1 1 C-0.67 0.67 -0.34 0.34 0 0 Z " fill="#AC2429" transform="translate(500,85)"/>
<path d="M0 0 C1.98 0.495 1.98 0.495 4 1 C3.67 2.32 3.34 3.64 3 5 C1.68 5 0.36 5 -1 5 C-0.67 3.35 -0.34 1.7 0 0 Z " fill="#A12329" transform="translate(723,324)"/>
<path d="M0 0 C1.32 0 2.64 0 4 0 C3.67 1.65 3.34 3.3 3 5 C1.68 4.67 0.36 4.34 -1 4 C-0.67 2.68 -0.34 1.36 0 0 Z " fill="#A92329" transform="translate(782,307)"/>
<path d="M0 0 C0.99 0.33 1.98 0.66 3 1 C3 2.32 3 3.64 3 5 C2.01 5.33 1.02 5.66 0 6 C-0.66 5.67 -1.32 5.34 -2 5 C-2 3.68 -2 2.36 -2 1 C-1.34 0.67 -0.68 0.34 0 0 Z " fill="#D7282B" transform="translate(687,192)"/>
<path d="M0 0 C1.98 0.495 1.98 0.495 4 1 C4 2.32 4 3.64 4 5 C2.35 4.67 0.7 4.34 -1 4 C-0.67 2.68 -0.34 1.36 0 0 Z " fill="#BA2326" transform="translate(618,175)"/>
<path d="M0 0 C2.475 0.495 2.475 0.495 5 1 C4.67 2.32 4.34 3.64 4 5 C2.68 4.67 1.36 4.34 0 4 C0 2.68 0 1.36 0 0 Z " fill="#C1262A" transform="translate(584,167)"/>
<path d="M0 0 C1.32 0 2.64 0 4 0 C3.67 1.65 3.34 3.3 3 5 C1.68 4.67 0.36 4.34 -1 4 C-0.67 2.68 -0.34 1.36 0 0 Z " fill="#AE2327" transform="translate(532,123)"/>
<path d="M0 0 C1.32 0 2.64 0 4 0 C3.67 1.65 3.34 3.3 3 5 C1.68 4.67 0.36 4.34 -1 4 C-0.67 2.68 -0.34 1.36 0 0 Z " fill="#A42329" transform="translate(473,27)"/>
<path d="M0 0 C1.32 0 2.64 0 4 0 C3.67 1.65 3.34 3.3 3 5 C1.68 4.67 0.36 4.34 -1 4 C-0.67 2.68 -0.34 1.36 0 0 Z " fill="#9D2127" transform="translate(473,14)"/>
<path d="M0 0 C1.98 0.495 1.98 0.495 4 1 C3.67 2.32 3.34 3.64 3 5 C1.68 4.67 0.36 4.34 -1 4 C-0.67 2.68 -0.34 1.36 0 0 Z " fill="#9C9195" transform="translate(674,420)"/>
<path d="M0 0 C1.98 0.495 1.98 0.495 4 1 C3.67 2.32 3.34 3.64 3 5 C1.68 4.67 0.36 4.34 -1 4 C-0.67 2.68 -0.34 1.36 0 0 Z " fill="#A12329" transform="translate(707,323)"/>
<path d="M0 0 C1.98 0.495 1.98 0.495 4 1 C3.67 2.32 3.34 3.64 3 5 C1.68 4.67 0.36 4.34 -1 4 C-0.67 2.68 -0.34 1.36 0 0 Z " fill="#902027" transform="translate(627,320)"/>
<path d="M0 0 C1.98 0.495 1.98 0.495 4 1 C3.67 2.32 3.34 3.64 3 5 C1.68 4.67 0.36 4.34 -1 4 C-0.67 2.68 -0.34 1.36 0 0 Z " fill="#871C23" transform="translate(676,318)"/>
<path d="M0 0 C1.98 0.495 1.98 0.495 4 1 C3.67 2.32 3.34 3.64 3 5 C1.68 4.67 0.36 4.34 -1 4 C-0.67 2.68 -0.34 1.36 0 0 Z " fill="#8C2028" transform="translate(561,306)"/>
<path d="M0 0 C1.98 0.495 1.98 0.495 4 1 C3.67 2.32 3.34 3.64 3 5 C1.68 4.67 0.36 4.34 -1 4 C-0.67 2.68 -0.34 1.36 0 0 Z " fill="#801D25" transform="translate(546,297)"/>
<path d="M0 0 C1.98 0.495 1.98 0.495 4 1 C3.67 2.32 3.34 3.64 3 5 C1.68 4.67 0.36 4.34 -1 4 C-0.67 2.68 -0.34 1.36 0 0 Z " fill="#7E1D26" transform="translate(484,266)"/>
<path d="M0 0 C1.98 0.495 1.98 0.495 4 1 C3.67 2.32 3.34 3.64 3 5 C1.68 4.67 0.36 4.34 -1 4 C-0.67 2.68 -0.34 1.36 0 0 Z " fill="#D8292C" transform="translate(677,189)"/>
<path d="M0 0 C1.98 0.495 1.98 0.495 4 1 C3.67 2.32 3.34 3.64 3 5 C1.68 4.67 0.36 4.34 -1 4 C-0.67 2.68 -0.34 1.36 0 0 Z " fill="#CB2528" transform="translate(668,186)"/>
<path d="M0 0 C1.32 0 2.64 0 4 0 C3.67 1.65 3.34 3.3 3 5 C1.68 4.67 0.36 4.34 -1 4 C-0.67 2.68 -0.34 1.36 0 0 Z " fill="#CE282B" transform="translate(635,187)"/>
<path d="M0 0 C1.98 0.495 1.98 0.495 4 1 C3.67 2.32 3.34 3.64 3 5 C1.68 4.67 0.36 4.34 -1 4 C-0.67 2.68 -0.34 1.36 0 0 Z " fill="#C2272B" transform="translate(577,159)"/>
<path d="M0 0 C1.98 0.495 1.98 0.495 4 1 C3.67 2.32 3.34 3.64 3 5 C1.68 4.67 0.36 4.34 -1 4 C-0.67 2.68 -0.34 1.36 0 0 Z " fill="#C1282D" transform="translate(538,133)"/>
<path d="M0 0 C0.66 0 1.32 0 2 0 C2 1.98 2 3.96 2 6 C0.68 5.67 -0.64 5.34 -2 5 C-1.125 1.125 -1.125 1.125 0 0 Z " fill="#A8242A" transform="translate(798,304)"/>
<path d="M0 0 C1.98 0.495 1.98 0.495 4 1 C3.67 2.32 3.34 3.64 3 5 C1.68 4.67 0.36 4.34 -1 4 C-0.67 2.68 -0.34 1.36 0 0 Z " fill="#CF282C" transform="translate(627,181)"/>
<path d="M0 0 C1.98 0.495 1.98 0.495 4 1 C3.67 2.32 3.34 3.64 3 5 C1.68 4.67 0.36 4.34 -1 4 C-0.67 2.68 -0.34 1.36 0 0 Z " fill="#B12328" transform="translate(527,112)"/>
<path d="M0 0 C2.475 0.495 2.475 0.495 5 1 C5 2.32 5 3.64 5 5 C3.35 5 1.7 5 0 5 C0 3.35 0 1.7 0 0 Z " fill="#908387" transform="translate(707,420)"/>
<path d="M0 0 C0.66 0 1.32 0 2 0 C2 0.66 2 1.32 2 2 C2.66 2 3.32 2 4 2 C4 1.34 4 0.68 4 0 C4.66 0 5.32 0 6 0 C5.34 1.98 4.68 3.96 4 6 C3.34 6 2.68 6 2 6 C1.34 4.02 0.68 2.04 0 0 Z " fill="#ACA9AE" transform="translate(41,349)"/>
<path d="M0 0 C1.98 0.495 1.98 0.495 4 1 C4 1.99 4 2.98 4 4 C3.01 4.33 2.02 4.66 1 5 C0.34 4.67 -0.32 4.34 -1 4 C-0.67 2.68 -0.34 1.36 0 0 Z " fill="#B52327" transform="translate(563,142)"/>
<path d="M0 0 C1.32 0 2.64 0 4 0 C4 1.32 4 2.64 4 4 C2.35 4 0.7 4 -1 4 C-0.67 2.68 -0.34 1.36 0 0 Z " fill="#AB2429" transform="translate(496,74)"/>
<path d="M0 0 C1.32 0 2.64 0 4 0 C3.67 1.65 3.34 3.3 3 5 C2.01 4.67 1.02 4.34 0 4 C0 2.68 0 1.36 0 0 Z " fill="#9B2128" transform="translate(691,321)"/>
<path d="M0 0 C1.32 0 2.64 0 4 0 C3.67 1.65 3.34 3.3 3 5 C2.01 4.67 1.02 4.34 0 4 C0 2.68 0 1.36 0 0 Z " fill="#CC2629" transform="translate(659,182)"/>
<path d="M0 0 C2.475 0.495 2.475 0.495 5 1 C4.67 1.99 4.34 2.98 4 4 C2.68 4 1.36 4 0 4 C0 2.68 0 1.36 0 0 Z " fill="#AA2328" transform="translate(493,62)"/>
<path d="M0 0 C1.32 0 2.64 0 4 0 C4 1.32 4 2.64 4 4 C2.35 3.67 0.7 3.34 -1 3 C-0.67 2.01 -0.34 1.02 0 0 Z " fill="#9F2127" transform="translate(473,1)"/>
<path d="M0 0 C1.32 0 2.64 0 4 0 C2.25 4.875 2.25 4.875 0 6 C0 4.02 0 2.04 0 0 Z " fill="#EC2E30" transform="translate(43,421)"/>
<path d="M0 0 C0.99 0.33 1.98 0.66 3 1 C2.67 2.32 2.34 3.64 2 5 C1.01 5 0.02 5 -1 5 C-0.67 3.35 -0.34 1.7 0 0 Z " fill="#A42228" transform="translate(753,309)"/>
<path d="M0 0 C1.32 0 2.64 0 4 0 C3.67 1.32 3.34 2.64 3 4 C1.68 3.67 0.36 3.34 -1 3 C-0.67 2.01 -0.34 1.02 0 0 Z " fill="#7E1E26" transform="translate(471,254)"/>
<path d="M0 0 C1.98 0.495 1.98 0.495 4 1 C4 1.99 4 2.98 4 4 C2.35 3.67 0.7 3.34 -1 3 C-0.67 2.01 -0.34 1.02 0 0 Z " fill="#C9272A" transform="translate(610,169)"/>
<path d="M0 0 C1.98 0.495 1.98 0.495 4 1 C3.67 1.99 3.34 2.98 3 4 C1.68 4 0.36 4 -1 4 C-0.67 2.68 -0.34 1.36 0 0 Z " fill="#C9292D" transform="translate(570,151)"/>
</svg>
