<?xml version="1.0" encoding="UTF-8"?>
<svg version="1.1" xmlns="http://www.w3.org/2000/svg" width="800" height="450">
<path d="M0 0 C264 0 528 0 800 0 C800 148.5 800 297 800 450 C536 450 272 450 0 450 C0 301.5 0 153 0 0 Z " fill="#161E29" transform="translate(0,0)"/>
<path d="M0 0 C3.49406769 1.66762322 4.82670681 2.74006022 7 6 C7.47499843 9.10887417 7.41627436 12.23360491 7.4375 15.375 C7.47037109 16.22578125 7.50324219 17.0765625 7.53710938 17.953125 C7.5759014 22.48121206 7.49203628 24.3775541 4.59765625 28.0390625 C0.81147488 30.89720242 -1.22915419 31.55048221 -6 31 C-9.85186407 28.52899286 -11.69244542 27.16431376 -12.875 22.6875 C-12.91625 21.800625 -12.9575 20.91375 -13 20 C-11.68 20 -10.36 20 -9 20 C-8.525625 20.804375 -8.05125 21.60875 -7.5625 22.4375 C-6.23081006 25.19737684 -6.23081006 25.19737684 -3.5 26 C-0.97604877 26.2365554 -0.97604877 26.2365554 0.8125 24.75 C2.28075071 22.9387397 2.28075071 22.9387397 2 20 C1.34 20.33 0.68 20.66 0 21 C-4.63554388 21.41204834 -7.30416098 20.87454146 -11 18 C-13.57189679 14.57080428 -13.502142 11.16060514 -13 7 C-9.64003653 1.40422441 -6.47131024 -0.50755374 0 0 Z " fill="#DA3839" transform="translate(170,25)"/>
<path d="M0 0 C5.57894737 3.15789474 5.57894737 3.15789474 7 6 C7.52893101 10.41353907 7.49914819 13.95829942 5.5625 18 C1.88791418 20.86796942 -1.38017497 21.51153772 -6 21 C-9.77082851 18.9799133 -11.33622284 17.85517207 -12.76171875 13.87109375 C-13.36863047 10.58040725 -13.60190276 8.13091886 -12 5.12109375 C-8.31658033 0.57163195 -5.74720167 -0.55261555 0 0 Z " fill="#DA3839" transform="translate(61,25)"/>
<path d="M0 0 C2.875 2.125 2.875 2.125 5 5 C5.33 7.31 5.66 9.62 6 12 C1.05 12.33 -3.9 12.66 -9 13 C-9 13.66 -9 14.32 -9 15 C-3.42169984 15.12469099 -3.42169984 15.12469099 2 14 C2.33 15.32 2.66 16.64 3 18 C-0.67248619 20.35039116 -3.71157095 20.51756902 -8 20 C-11.19886977 18.10437347 -13.36160051 16.65372633 -14.734375 13.09765625 C-15.49424672 9.13872459 -15.15324099 7.30648199 -13.3125 3.625 C-9.05070746 -1.21271045 -6.3329994 -1.66657879 0 0 Z " fill="#D53738" transform="translate(127,26)"/>
<path d="M0 0 C3.5539547 1.5390557 4.86082706 3.48555927 6.8671875 6.80859375 C6.8671875 8.78859375 6.8671875 10.76859375 6.8671875 12.80859375 C1.9171875 13.13859375 -3.0328125 13.46859375 -8.1328125 13.80859375 C-7.4728125 14.46859375 -6.8128125 15.12859375 -6.1328125 15.80859375 C-3.91152695 15.83167972 -3.91152695 15.83167972 -1.5078125 15.43359375 C-0.69054687 15.32273437 0.12671875 15.211875 0.96875 15.09765625 C1.59523437 15.00226562 2.22171875 14.906875 2.8671875 14.80859375 C3.8571875 16.29359375 3.8571875 16.29359375 4.8671875 17.80859375 C0.77612509 20.78391187 -2.10343195 21.43726632 -7.1328125 20.80859375 C-9.88610271 19.0129697 -11.65908711 17.75604453 -13.1328125 14.80859375 C-13.83022742 10.84600895 -14.11333395 7.30926987 -11.8515625 3.84765625 C-8.17734014 0.29034096 -5.07211106 -1.115075 0 0 Z " fill="#D53739" transform="translate(193.1328125,25.19140625)"/>
<path d="M0 0 C2.38660893 1.45785781 3.98596082 2.98596082 6 5 C6 5.99 6 6.98 6 8 C1.71 8 -2.58 8 -7 8 C-7 9.32 -7 10.64 -7 12 C-5.35 12 -3.7 12 -2 12 C-2 14.64 -2 17.28 -2 20 C-6.40147657 19.49697411 -8.75395419 17.97554199 -12 15 C-13.45147903 12.09704195 -13.37239025 10.22738221 -13 7 C-9.88758243 1.79661464 -6.16090958 -0.8596618 0 0 Z " fill="#E52D2F" transform="translate(41,408)"/>
<path d="M0 0 C5.70769231 3.12307692 5.70769231 3.12307692 7 7 C5.125 7.625 5.125 7.625 3 8 C2.34 7.34 1.68 6.68 1 6 C-2.5 5.66666667 -2.5 5.66666667 -6 6 C-8.22966747 7.82203581 -8.22966747 7.82203581 -8.3125 10.4375 C-8.17724408 12.99282027 -8.17724408 12.99282027 -6.875 14.875 C-4.9163662 16.29027526 -4.9163662 16.29027526 -1.875 15.8125 C-0.451875 15.4103125 -0.451875 15.4103125 1 15 C1.33 14.34 1.66 13.68 2 13 C3.32 13.33 4.64 13.66 6 14 C5.8125 15.8125 5.8125 15.8125 5 18 C2.35219618 20.11824306 0.4058631 20.93091692 -2.9375 21.5 C-6.24078857 20.96068758 -8.32353204 19.98344371 -10.7890625 17.6875 C-13.14567184 14.40345085 -13.55516213 10.94859063 -13 7 C-9.97873593 1.32332805 -6.28277359 -0.60411284 0 0 Z " fill="#D83739" transform="translate(40,25)"/>
<path d="M0 0 C4.30191516 0.27777267 6.62805316 0.73621954 10.171875 3.33984375 C13.59440827 8.09857151 12.4798777 14.54053669 12.109375 20.08984375 C10.789375 20.08984375 9.469375 20.08984375 8.109375 20.08984375 C8.06039062 19.24679688 8.01140625 18.40375 7.9609375 17.53515625 C7.84878906 15.89160156 7.84878906 15.89160156 7.734375 14.21484375 C7.66476563 13.12429687 7.59515625 12.03375 7.5234375 10.91015625 C7.37684009 7.95937901 7.37684009 7.95937901 5.109375 6.08984375 C1.52593524 5.92307093 1.52593524 5.92307093 -1.890625 6.08984375 C-3.30697333 8.92254041 -3.2369255 11.56450813 -3.453125 14.71484375 C-3.53691406 15.90335938 -3.62070313 17.091875 -3.70703125 18.31640625 C-3.76761719 19.23164062 -3.82820313 20.146875 -3.890625 21.08984375 C-5.210625 21.08984375 -6.530625 21.08984375 -7.890625 21.08984375 C-8.02634655 18.6920963 -8.12499368 16.3020913 -8.203125 13.90234375 C-8.24501953 13.22880859 -8.28691406 12.55527344 -8.33007812 11.86132812 C-8.42848099 7.82681054 -8.06436055 6.2967244 -5.43359375 3.1640625 C-4.59441406 2.47957031 -3.75523438 1.79507812 -2.890625 1.08984375 C-1.890625 0.08984375 -1.890625 0.08984375 0 0 Z " fill="#DA3839" transform="translate(78.890625,24.91015625)"/>
<path d="M0 0 C1.65 0 3.3 0 5 0 C3.3003494 4.73474097 0.86340973 8.96167111 -1.625 13.3125 C-2.04523438 14.05306641 -2.46546875 14.79363281 -2.8984375 15.55664062 C-3.92948495 17.37269011 -4.96436046 19.18656533 -6 21 C-9.12038083 17.32043588 -11.48019088 13.56596709 -13.75 9.3125 C-14.36359375 8.17425781 -14.9771875 7.03601562 -15.609375 5.86328125 C-17 3 -17 3 -17 1 C-15.35 1 -13.7 1 -12 1 C-11.65066406 1.63808594 -11.30132812 2.27617187 -10.94140625 2.93359375 C-10.48636719 3.75988281 -10.03132813 4.58617187 -9.5625 5.4375 C-9.11003906 6.26121094 -8.65757813 7.08492187 -8.19140625 7.93359375 C-7.16337603 9.92308798 -7.16337603 9.92308798 -6 11 C-4.02 7.37 -2.04 3.74 0 0 Z " fill="#D83739" transform="translate(108,25)"/>
<path d="M0 0 C1.3479743 0.63654342 2.68596724 1.29605388 4 2 C4.99 1.67 5.98 1.34 7 1 C7 3.97 7 6.94 7 10 C5.02 9.34 3.04 8.68 1 8 C0.67 8.99 0.34 9.98 0 11 C-2.75 11.75 -2.75 11.75 -6 12 C-8.375 10.375 -8.375 10.375 -10 8 C-10.49089348 5.12476676 -10.41359492 3.70554428 -8.9375 1.1875 C-5.92932949 -0.65621741 -3.44932782 -0.30257262 0 0 Z " fill="#1B1921" transform="translate(41,30)"/>
<path d="M0 0 C3.49406769 1.66762322 4.82670681 2.74006022 7 6 C7 7.32 7 8.64 7 10 C5.68 10 4.36 10 3 10 C2.67 8.68 2.34 7.36 2 6 C-3.05009595 5.06213918 -3.05009595 5.06213918 -8 6 C-8.33 10.95 -8.66 15.9 -9 21 C-10.32 21 -11.64 21 -13 21 C-13.13572155 18.60225255 -13.23436868 16.21224755 -13.3125 13.8125 C-13.35439453 13.13896484 -13.39628906 12.46542969 -13.43945312 11.77148438 C-13.53676648 7.78163682 -13.16454409 6.2010498 -10.60546875 3.07421875 C-6.81554087 0.05704978 -4.84331062 -0.3798675 0 0 Z " fill="#DA3839" transform="translate(148,25)"/>
<path d="M0 0 C1.65 0 3.3 0 5 0 C6.6875 2.4375 6.6875 2.4375 8 5 C8.66 5.33 9.32 5.66 10 6 C10.66 4.02 11.32 2.04 12 0 C13.98 0 15.96 0 18 0 C18 3.63 18 7.26 18 11 C16.68 11 15.36 11 14 11 C13.67 9.35 13.34 7.7 13 6 C12.566875 6.825 12.13375 7.65 11.6875 8.5 C10.8521875 9.7375 10.8521875 9.7375 10 11 C9.01 11 8.02 11 7 11 C5.515 8.03 5.515 8.03 4 5 C3.67 6.98 3.34 8.96 3 11 C2.01 11 1.02 11 0 11 C0 7.37 0 3.74 0 0 Z " fill="#D72C2E" transform="translate(118,414)"/>
<path d="M0 0 C2 2 2 2 2.375 5.4375 C2 9 2 9 0.3125 11 C-2.64288086 12.27800253 -3.98998383 12.08051862 -7 11 C-8.8125 9.75 -8.8125 9.75 -10 8 C-10.42317323 5.17884512 -10.38718434 3.66049093 -8.9375 1.1875 C-5.94449731 -0.646921 -3.42183337 -0.31107576 0 0 Z " fill="#1E1A22" transform="translate(62,30)"/>
<path d="M0 0 C1.9375 1.0625 1.9375 1.0625 3 3 C2.875 6.5625 2.875 6.5625 2 10 C-1 12 -1 12 -3.5 11.8125 C-6.23145737 10.92477635 -7.39120004 10.37086309 -9 8 C-9.42822025 5.14519831 -9.40659584 3.65507108 -7.875 1.1875 C-5.12844028 -0.55198782 -3.18153026 -0.39769128 0 0 Z " fill="#1C1B23" transform="translate(170,30)"/>
<path d="M0 0 C5 0 5 0 6.58203125 1.3125 C7.72135417 2.875 8.86067708 4.4375 10 6 C10.33 4.02 10.66 2.04 11 0 C12.32 0 13.64 0 15 0 C15 3.63 15 7.26 15 11 C12.3125 11.4375 12.3125 11.4375 9 11 C6.95224699 8.88875077 5.46519774 6.54140493 4 4 C3.67 6.31 3.34 8.62 3 11 C2.01 11 1.02 11 0 11 C0 7.37 0 3.74 0 0 Z " fill="#D72C2E" transform="translate(80,414)"/>
<path d="M0 0 C1.65 0 3.3 0 5 0 C6.98 3.63 8.96 7.26 11 11 C9.68 11 8.36 11 7 11 C7 10.34 7 9.68 7 9 C4.36 9 1.72 9 -1 9 C-1 9.66 -1 10.32 -1 11 C-2.32 11 -3.64 11 -5 11 C-3.55049545 7.2089881 -1.84827434 3.6125362 0 0 Z " fill="#CC2B2D" transform="translate(68,414)"/>
<path d="M0 0 C0.66 0 1.32 0 2 0 C2.33 1.65 2.66 3.3 3 5 C-5.66666667 5 -14.33333333 5 -23 5 C-23 3.68 -23 2.36 -23 1 C-22.3387915 1.00523682 -21.67758301 1.01047363 -20.99633789 1.01586914 C-18.01840149 1.03657656 -15.04048018 1.04964012 -12.0625 1.0625 C-11.02158203 1.07087891 -9.98066406 1.07925781 -8.90820312 1.08789062 C-7.91884766 1.09111328 -6.92949219 1.09433594 -5.91015625 1.09765625 C-4.99371338 1.10289307 -4.07727051 1.10812988 -3.13305664 1.11352539 C-1.01636977 1.23921211 -1.01636977 1.23921211 0 0 Z " fill="#878C92" transform="translate(770,419)"/>
<path d="M0 0 C0.99 0 1.98 0 3 0 C3.33 2.64 3.66 5.28 4 8 C5.98 7.67 7.96 7.34 10 7 C10.33 4.69 10.66 2.38 11 0 C11.99 0 12.98 0 14 0 C14.08096803 1.45742463 14.13917774 2.91612807 14.1875 4.375 C14.22230469 5.18710937 14.25710937 5.99921875 14.29296875 6.8359375 C14.19628906 7.55007813 14.09960938 8.26421875 14 9 C10.86588698 11.08940868 10.02549528 11.27364412 6.4375 11.25 C5.25994141 11.25773437 5.25994141 11.25773437 4.05859375 11.265625 C2 11 2 11 0 9 C-0.1953125 6.8359375 -0.1953125 6.8359375 -0.125 4.375 C-0.10695313 3.55773437 -0.08890625 2.74046875 -0.0703125 1.8984375 C-0.04710938 1.27195312 -0.02390625 0.64546875 0 0 Z " fill="#E02C2F" transform="translate(102,414)"/>
<path d="M0 0 C8.58 0 17.16 0 26 0 C26 0.99 26 1.98 26 3 C17.42 3 8.84 3 0 3 C0 2.01 0 1.02 0 0 Z " fill="#E72D30" transform="translate(708,26)"/>
<path d="M0 0 C0.75 1.75 0.75 1.75 1 4 C-0.625 6.3125 -0.625 6.3125 -3 8 C-5.96270001 7.92773902 -7.45714649 7.4118199 -9.8125 5.625 C-11 4 -11 4 -11 1 C-10.06027344 1.01740234 -10.06027344 1.01740234 -9.1015625 1.03515625 C-7.87566406 1.04869141 -7.87566406 1.04869141 -6.625 1.0625 C-5.40683594 1.07990234 -5.40683594 1.07990234 -4.1640625 1.09765625 C-1.95062858 1.14466334 -1.95062858 1.14466334 0 0 Z " fill="#231C24" transform="translate(172,44)"/>
<path d="M0 0 C1.98 0.495 1.98 0.495 4 1 C4.33 2.32 4.66 3.64 5 5 C5.61875 4.175 6.2375 3.35 6.875 2.5 C7.57625 1.675 8.2775 0.85 9 0 C9.66 0 10.32 0 11 0 C12.125 5.75 12.125 5.75 11 8 C7.04 8 3.08 8 -1 8 C-0.67 7.01 -0.34 6.02 0 5 C0.66 4.67 1.32 4.34 2 4 C1.67 3.34 1.34 2.68 1 2 C0.01 2.495 0.01 2.495 -1 3 C-0.67 2.01 -0.34 1.02 0 0 Z " fill="#A1A3A7" transform="translate(150,384)"/>
<path d="M0 0 C4.95 0 9.9 0 15 0 C15 1.65 15 3.3 15 5 C12.69 5 10.38 5 8 5 C8 4.34 8 3.68 8 3 C7.67 3.66 7.34 4.32 7 5 C4.69 5 2.38 5 0 5 C0 3.33333333 0 1.66666667 0 0 Z " fill="#989CA2" transform="translate(680,419)"/>
<path d="M0 0 C1.051875 0.185625 2.10375 0.37125 3.1875 0.5625 C6.62363423 0.95681049 8.70437302 0.73236155 12 0 C12.99 0.33 13.98 0.66 15 1 C15 2.32 15 3.64 15 5 C10.38 5 5.76 5 1 5 C0.67 3.35 0.34 1.7 0 0 Z " fill="#9CA0A4" transform="translate(697,419)"/>
<path d="M0 0 C4.29 0 8.58 0 13 0 C13 0.66 13 1.32 13 2 C11.68 2.33 10.36 2.66 9 3 C8.67 5.64 8.34 8.28 8 11 C7.01 11 6.02 11 5 11 C5 8.03 5 5.06 5 2 C3.35 2 1.7 2 0 2 C0 1.34 0 0.68 0 0 Z " fill="#E62D2F" transform="translate(51,414)"/>
<path d="M0 0 C0.33 0.66 0.66 1.32 1 2 C2.94603274 2.59070014 2.94603274 2.59070014 5 3 C5.66 3.33 6.32 3.66 7 4 C7 3.34 7 2.68 7 2 C8.65 2.33 10.3 2.66 12 3 C12 3.66 12 4.32 12 5 C11.34 5 10.68 5 10 5 C10 4.34 10 3.68 10 3 C9.34 3 8.68 3 8 3 C8 4.32 8 5.64 8 7 C9.32 6.67 10.64 6.34 12 6 C11.67 6.66 11.34 7.32 11 8 C9.68 8 8.36 8 7 8 C7 7.34 7 6.68 7 6 C6.34 6 5.68 6 5 6 C5 6.66 5 7.32 5 8 C3.35 8 1.7 8 0 8 C0 5.36 0 2.72 0 0 Z " fill="#ADAEB1" transform="translate(64,384)"/>
<path d="M0 0 C3.33333333 0 6.66666667 0 10 0 C10 1.98 10 3.96 10 6 C6.66666667 6 3.33333333 6 0 6 C0 4.02 0 2.04 0 0 Z " fill="#BCBDC2" transform="translate(714,40)"/>
<path d="M0 0 C0.721875 0.185625 1.44375 0.37125 2.1875 0.5625 C5.12826973 1.01995307 7.14103058 0.73516357 10 0 C10 1.98 10 3.96 10 6 C7.66666667 6 5.33333333 6 3 6 C3 5.34 3 4.68 3 4 C2.34 4 1.68 4 1 4 C0.67 4.66 0.34 5.32 0 6 C0 4.02 0 2.04 0 0 Z " fill="#A3A6AB" transform="translate(735,40)"/>
<path d="M0 0 C1.67542976 0.28604898 3.34385343 0.61781233 5 1 C5.04254356 2.99954746 5.04080783 5.00041636 5 7 C4 8 4 8 1.4375 8.0625 C0.633125 8.041875 -0.17125 8.02125 -1 8 C-1.04241723 5.66705225 -1.04092937 3.33297433 -1 1 C-0.67 0.67 -0.34 0.34 0 0 Z " fill="#A1A2A6" transform="translate(93,384)"/>
<path d="M0 0 C1.67542976 0.28604898 3.34385343 0.61781233 5 1 C5 2.98 5 4.96 5 7 C3.35 7.33 1.7 7.66 0 8 C-0.38063221 5.6739143 -0.71269945 3.33944736 -1 1 C-0.67 0.67 -0.34 0.34 0 0 Z " fill="#898C90" transform="translate(142,384)"/>
<path d="M0 0 C1.32 0 2.64 0 4 0 C4.33 0.99 4.66 1.98 5 3 C5.33 3 5.66 3 6 3 C6 2.01 6 1.02 6 0 C6.99 0.33 7.98 0.66 9 1 C9.6875 3.0625 9.6875 3.0625 10 5 C6.61981469 6.04005702 3.5219721 6.08004482 0 6 C0 4.02 0 2.04 0 0 Z " fill="#C4C5C9" transform="translate(763,40)"/>
<path d="M0 0 C0.66 0 1.32 0 2 0 C2 1.32 2 2.64 2 4 C2.66 3.67 3.32 3.34 4 3 C4.33 2.01 4.66 1.02 5 0 C5.99 0 6.98 0 8 0 C8.33 1.98 8.66 3.96 9 6 C6.03 6 3.06 6 0 6 C0 4.02 0 2.04 0 0 Z " fill="#B4B6BB" transform="translate(753,40)"/>
<path d="M0 0 C2.31 0 4.62 0 7 0 C7.66 1.32 8.32 2.64 9 4 C5.37 4 1.74 4 -2 4 C-1.34 2.68 -0.68 1.36 0 0 Z " fill="#201A23" transform="translate(119,30)"/>
<path d="M0 0 C3.875 1.75 3.875 1.75 5 4 C5.66 2.68 6.32 1.36 7 0 C7 2.64 7 5.28 7 8 C6.01 7.67 5.02 7.34 4 7 C3.67 6.34 3.34 5.68 3 5 C2.67 5.99 2.34 6.98 2 8 C1.34 8 0.68 8 0 8 C0 5.36 0 2.72 0 0 Z " fill="#ACADB0" transform="translate(27,384)"/>
<path d="M0 0 C7.75 -0.125 7.75 -0.125 10 1 C10 1.66 10 2.32 10 3 C10.66 3.33 11.32 3.66 12 4 C8 4 4 4 0 4 C0 2.68 0 1.36 0 0 Z " fill="#A8ABAF" transform="translate(747,420)"/>
<path d="M0 0 C1.98 0 3.96 0 6 0 C6.66 1.32 7.32 2.64 8 4 C4.7 4 1.4 4 -2 4 C-1.34 2.68 -0.68 1.36 0 0 Z " fill="#171A23" transform="translate(187,30)"/>
<path d="M0 0 C0.99 0 1.98 0 3 0 C3 3.63 3 7.26 3 11 C2.01 11 1.02 11 0 11 C0 7.37 0 3.74 0 0 Z " fill="#E72D2F" transform="translate(97,414)"/>
<path d="M0 0 C0.33 1.65 0.66 3.3 1 5 C-1.64 5 -4.28 5 -7 5 C-7 3.68 -7 2.36 -7 1 C-2.25 0 -2.25 0 0 0 Z " fill="#979AA0" transform="translate(772,419)"/>
<path d="M0 0 C2.64 0.33 5.28 0.66 8 1 C8 2.32 8 3.64 8 5 C5.36 5 2.72 5 0 5 C0 3.35 0 1.7 0 0 Z " fill="#AEB1B5" transform="translate(737,419)"/>
<path d="M0 0 C0.66 0 1.32 0 2 0 C3.125 5.75 3.125 5.75 2 8 C1.34 8 0.68 8 0 8 C0 7.34 0 6.68 0 6 C-0.99 6 -1.98 6 -3 6 C-1.125 1.125 -1.125 1.125 0 0 Z " fill="#B4B6B9" transform="translate(159,384)"/>
<path d="M0 0 C1.98 0 3.96 0 6 0 C6 1.65 6 3.3 6 5 C3.69 5 1.38 5 -1 5 C-0.67 3.35 -0.34 1.7 0 0 Z " fill="#9A9DA3" transform="translate(722,419)"/>
<path d="M0 0 C1.98 0.495 1.98 0.495 4 1 C4 2.65 4 4.3 4 6 C2.35 5.67 0.7 5.34 -1 5 C-0.67 3.35 -0.34 1.7 0 0 Z " fill="#999B9E" transform="translate(36,386)"/>
<path d="M0 0 C0.33 1.65 0.66 3.3 1 5 C-1.31 4.67 -3.62 4.34 -6 4 C-6 2.68 -6 1.36 -6 0 C-3.50907189 -1.24546405 -2.58919267 -0.7767578 0 0 Z " fill="#ADB0B4" transform="translate(736,420)"/>
<path d="M0 0 C0.66 0 1.32 0 2 0 C2 2.31 2 4.62 2 7 C3.98 6.67 5.96 6.34 8 6 C7.67 6.99 7.34 7.98 7 9 C4.36 8.67 1.72 8.34 -1 8 C-0.34 7.67 0.32 7.34 1 7 C0.34 5.02 -0.32 3.04 -1 1 C-0.67 0.67 -0.34 0.34 0 0 Z " fill="#C0C1C4" transform="translate(122,384)"/>
<path d="M0 0 C0 2.31 0 4.62 0 7 C0.66 7.33 1.32 7.66 2 8 C0.02 8 -1.96 8 -4 8 C-3.34 7.67 -2.68 7.34 -2 7 C-2 5.68 -2 4.36 -2 3 C-2.66 3 -3.32 3 -4 3 C-4 2.34 -4 1.68 -4 1 C-2 0 -2 0 0 0 Z " fill="#B9B9BC" transform="translate(89,384)"/>
<path d="M0 0 C2.475 0.495 2.475 0.495 5 1 C5 2.65 5 4.3 5 6 C4.34 6 3.68 6 3 6 C3 5.34 3 4.68 3 4 C2.34 4 1.68 4 1 4 C0.67 4.66 0.34 5.32 0 6 C0 4.02 0 2.04 0 0 Z " fill="#C3C4C8" transform="translate(735,40)"/>
<path d="M0 0 C1.98 0.495 1.98 0.495 4 1 C3.67 2.32 3.34 3.64 3 5 C1.68 4.67 0.36 4.34 -1 4 C-0.67 2.68 -0.34 1.36 0 0 Z " fill="#989DA3" transform="translate(674,419)"/>
<path d="M0 0 C0.66 0.33 1.32 0.66 2 1 C0.86695008 4.39914975 -0.12518475 5.05254451 -3 7 C-3.33 5.35 -3.66 3.7 -4 2 C-2.125 0.9375 -2.125 0.9375 0 0 Z " fill="#2C323A" transform="translate(151,385)"/>
<path d="M0 0 C2.475 0.495 2.475 0.495 5 1 C5 2.32 5 3.64 5 5 C3.35 5 1.7 5 0 5 C0 3.35 0 1.7 0 0 Z " fill="#8A8E94" transform="translate(707,419)"/>
<path d="M0 0 C0.66 0 1.32 0 2 0 C2 0.66 2 1.32 2 2 C2.66 2 3.32 2 4 2 C4 1.34 4 0.68 4 0 C4.66 0 5.32 0 6 0 C5.34 1.98 4.68 3.96 4 6 C3.34 6 2.68 6 2 6 C1.34 4.02 0.68 2.04 0 0 Z " fill="#ACADB1" transform="translate(41,386)"/>
<path d="M0 0 C1.32 0.33 2.64 0.66 4 1 C4 1.66 4 2.32 4 3 C3.34 3 2.68 3 2 3 C2 3.66 2 4.32 2 5 C2.66 5.33 3.32 5.66 4 6 C2.68 6 1.36 6 0 6 C0 4.02 0 2.04 0 0 Z " fill="#C6C7CB" transform="translate(746,40)"/>
<path d="M0 0 C1.32 0 2.64 0 4 0 C2.25 4.875 2.25 4.875 0 6 C0 4.02 0 2.04 0 0 Z " fill="#EC2E30" transform="translate(43,420)"/>
<path d="M0 0 C1.98 0.495 1.98 0.495 4 1 C3.67 2.32 3.34 3.64 3 5 C1.68 4.67 0.36 4.34 -1 4 C-0.67 2.68 -0.34 1.36 0 0 Z " fill="#7E838A" transform="translate(715,41)"/>
</svg>
