<?xml version="1.0" encoding="UTF-8"?>
<svg version="1.1" xmlns="http://www.w3.org/2000/svg" width="1920" height="1080">
<path d="M0 0 C633.6 0 1267.2 0 1920 0 C1920 356.4 1920 712.8 1920 1080 C1286.4 1080 652.8 1080 0 1080 C0 723.6 0 367.2 0 0 Z " fill="#F0E8DA" transform="translate(0,0)"/>
<path d="M0 0 C1.72098338 -0.00115368 3.44196652 -0.00274286 5.16294914 -0.00472724 C9.86939194 -0.00888669 14.57581435 -0.0068452 19.2822572 -0.00374103 C24.36686852 -0.00147332 29.4514764 -0.00497338 34.53608704 -0.00772095 C44.48818411 -0.01216304 54.44027363 -0.01120908 64.39237099 -0.00830831 C72.48268178 -0.00604803 80.57299045 -0.00574447 88.66330147 -0.00683212 C89.81567204 -0.00698536 90.96804261 -0.00713859 92.15533351 -0.00729647 C94.49651686 -0.0076162 96.83770021 -0.00794041 99.17888356 -0.00826906 C121.12257518 -0.01111931 143.06626263 -0.00784401 165.00995357 -0.00246869 C183.82809471 0.00199834 202.64622969 0.00122337 221.46437073 -0.00338745 C243.3291104 -0.00874225 265.19384642 -0.01084404 287.05858666 -0.00777519 C289.3913635 -0.00745665 291.72414035 -0.00714228 294.05691719 -0.00683212 C295.20461776 -0.00667785 296.35231833 -0.00652357 297.53479771 -0.00636462 C305.61245756 -0.00550214 313.69011509 -0.00695657 321.76777458 -0.00931168 C331.61600228 -0.01211995 341.46422201 -0.01134974 351.31244879 -0.00603093 C356.33465215 -0.00340771 361.35684224 -0.00236546 366.37904549 -0.00568008 C370.98124557 -0.0086715 375.58342014 -0.007003 380.18561793 -0.00170253 C381.8456529 -0.00059046 383.50569006 -0.00114252 385.16572361 -0.00357832 C398.31844797 -0.021389 410.72512562 0.25968966 423.36451721 4.25198364 C424.36587708 4.56474243 425.36723694 4.87750122 426.39894104 5.19973755 C438.29196603 9.04552487 448.55332056 14.65822279 458.20177078 22.7098074 C459.55702502 23.82305944 460.95898439 24.87947629 462.37611008 25.91281986 C469.35076267 31.40535442 469.35076267 31.40535442 470.86569977 35.93140984 C471.22450082 39.17539332 471.27941445 42.29306481 471.22096252 45.556427 C471.24724731 47.37772881 471.24724731 47.37772881 471.27406311 49.23582458 C471.3103696 52.54386843 471.3021222 55.84559893 471.27027225 59.15327907 C471.24478559 62.62934051 471.26848102 66.10514942 471.28413391 69.58122253 C471.30228212 75.41784574 471.2784773 81.25320004 471.23072815 87.08963013 C471.17633277 93.81564721 471.19392069 100.53863158 471.2489922 107.26457494 C471.29453654 113.06130507 471.3006972 118.85712791 471.27460551 124.65397936 C471.25909902 128.10651906 471.25669445 131.55763856 471.2899704 135.01008415 C471.49146426 159.16609605 471.49146426 159.16609605 465.06349182 165.70852661 C462.4107666 167.64672852 462.4107666 167.64672852 459.92701721 169.12698364 C458.74723053 170.08844323 457.57532452 171.05974141 456.41529846 172.04495239 C444.86513314 180.29912958 432.67657636 186.31969102 418.92701721 190.12698364 C417.73949073 190.46860629 416.55196424 190.81022894 415.32845211 191.16220379 C407.85144509 192.79200698 400.14018362 192.40597163 392.52749634 192.38768005 C390.74651712 192.39070273 388.96553921 192.39459279 387.18456358 192.39927262 C382.30274486 192.40954701 377.42099964 192.40737217 372.53917491 192.40309203 C367.26899289 192.40062368 361.99882851 192.40964053 356.72865295 192.41712952 C346.40662792 192.42987724 336.08462891 192.43166997 325.76259733 192.42932925 C317.36813076 192.42754538 308.97367209 192.42929724 300.57920647 192.4335537 C299.38389147 192.43414888 298.18857648 192.43474407 296.95703981 192.4353573 C294.52857578 192.43656908 292.10011175 192.43778321 289.67164772 192.43899968 C266.89607869 192.4498763 244.12052447 192.44771262 221.3449546 192.44161483 C200.53221979 192.43645024 179.71953184 192.44768881 158.9068063 192.46671305 C137.51981533 192.48611171 116.13284651 192.49434359 94.74584669 192.4905898 C82.74551727 192.48868023 70.7452277 192.49114109 58.74490547 192.50530434 C48.52421705 192.51724524 38.30359298 192.51859299 28.08290363 192.50651417 C22.87360888 192.5006434 17.66443166 192.4994758 12.45514488 192.51151657 C7.6748448 192.5224367 2.89475952 192.51919981 -1.88553078 192.50525489 C-3.60360555 192.50262463 -5.3216975 192.50492114 -7.03975534 192.51299075 C-34.34335578 192.63220603 -59.42379665 185.84140788 -80.07298279 167.12698364 C-80.90184998 166.37932739 -81.73071716 165.63167114 -82.58470154 164.86135864 C-99.55064708 148.75280391 -111.40674982 125.50235433 -112.27610779 101.88479614 C-112.75500266 74.13283832 -104.51569454 50.98003406 -85.43211365 30.44265747 C-72.54510846 17.13515924 -55.47290155 6.90016207 -37.32298279 3.00198364 C-36.58821716 2.83311646 -35.85345154 2.66424927 -35.09642029 2.49026489 C-23.4965328 -0.05849931 -11.81435276 -0.01731007 0 0 Z " fill="#FAF6F2" transform="translate(1450.072982788086,550.8730163574219)"/>
<path d="M0 0 C3.72837865 0.01752555 7.45673584 0.01141087 11.18514419 0.0083909 C17.6209757 0.00630914 24.05664307 0.01869357 30.49243331 0.04134226 C39.79709471 0.07406542 49.101678 0.08428986 58.4063907 0.08929422 C73.50827973 0.0980153 88.61008157 0.12454363 103.71192336 0.16250467 C118.36849456 0.19930778 133.02504184 0.22753279 147.68164992 0.24453592 C148.5966284 0.24560791 149.51160687 0.2466799 150.45431197 0.24778438 C157.61168796 0.25610369 164.76906448 0.26393082 171.92644119 0.27160263 C206.91539942 0.30923203 241.90413901 0.38972984 276.8930757 0.46426249 C276.8930757 63.82426249 276.8930757 127.18426249 276.8930757 192.46426249 C201.37038395 192.62558788 201.37038395 192.62558788 169.75831008 192.65957499 C162.52352781 192.66740556 155.28874589 192.67548722 148.05396438 192.68398905 C147.14729937 192.68504404 146.24063436 192.68609904 145.30649465 192.687186 C130.70100769 192.70454648 116.09558421 192.73606132 101.4901348 192.77287367 C86.48235232 192.81038242 71.4746029 192.83251926 56.46677548 192.84061646 C47.21859693 192.84608372 37.97059782 192.86330242 28.72247455 192.89592835 C22.36629189 192.91719914 16.01020094 192.92343437 9.65398534 192.918268 C5.99590243 192.91572557 2.33813132 192.91940602 -1.31989503 192.94108438 C-35.78981517 193.13511978 -64.08342755 186.30867991 -89.2944243 161.58926249 C-108.0825972 142.60630174 -115.44328008 119.27811176 -115.42381883 93.04434061 C-115.35956469 83.21917915 -114.52754496 74.70313513 -111.1069243 65.46426249 C-110.68282273 64.2744578 -110.25872117 63.08465311 -109.82176805 61.85879374 C-99.75487288 36.14474675 -78.19889568 17.42160628 -53.4819243 6.21426249 C-36.00415342 0.07121813 -18.30362234 -0.10826602 0 0 Z " fill="#FAF6F2" transform="translate(1643.1069242954254,334.53573751449585)"/>
<path d="M0 0 C2.26651171 -0.00243156 4.53302233 -0.00615439 6.79953003 -0.01106262 C12.92346262 -0.02042535 19.04723407 -0.01108504 25.17115402 0.00226951 C31.59790808 0.01363403 38.02465479 0.00947264 44.45141602 0.00752258 C55.24140395 0.00664119 66.03131937 0.017616 76.82128906 0.03613281 C87.89617821 0.05513328 98.97099416 0.06221928 110.04589844 0.05664062 C123.43067228 0.04991827 136.81539207 0.05325287 150.20016479 0.0657444 C155.29711508 0.0703733 160.39404551 0.07127166 165.49099731 0.06915855 C171.4993273 0.06726658 177.50756419 0.07544922 183.51587296 0.09121895 C185.71317281 0.09543959 187.91048215 0.09632742 190.10778427 0.09352875 C204.54729249 0.07793542 218.21225757 0.23000719 231.87109375 5.49731445 C233.07958984 5.95581787 233.07958984 5.95581787 234.3125 6.42358398 C246.39143617 11.15689727 256.76687662 17.66477546 266.43359375 26.37231445 C267.21347656 27.06969727 267.99335937 27.76708008 268.796875 28.4855957 C286.12721686 44.85812938 296.62507853 68.58849182 297.43359375 92.37231445 C297.48515625 93.44739258 297.53671875 94.5224707 297.58984375 95.63012695 C298.26613484 120.82196993 287.34698604 144.17884255 270.43359375 162.37231445 C253.69330297 179.34650152 228.31011927 192.07848085 204.21161652 192.50932884 C202.55520555 192.51998076 200.8987545 192.52524546 199.24230957 192.5262146 C198.32573908 192.53059685 197.4091686 192.53497911 196.46482325 192.53949416 C193.39777064 192.55283317 190.33074674 192.55905019 187.26367188 192.56518555 C185.06205619 192.57309087 182.86044179 192.58136009 180.65882874 192.58996582 C173.42751293 192.61615342 166.19619146 192.63149812 158.96484375 192.64575195 C156.46844988 192.65111446 153.97205604 192.65649198 151.47566223 192.66188431 C141.08021328 192.68351526 130.68476494 192.70239683 120.28929901 192.7135067 C117.59439591 192.71643582 114.89949285 192.71939755 112.20458984 192.72241211 C111.53488413 192.72315816 110.86517841 192.72390421 110.17517859 192.72467287 C99.36214285 192.73728645 88.54927304 192.77045759 77.73631459 192.81221394 C66.60088102 192.85485781 55.46551597 192.87782175 44.32999945 192.88342726 C38.09179237 192.8870609 31.85386623 192.89886794 25.61573792 192.93153 C19.73214038 192.96189248 13.84898957 192.96782315 7.96533012 192.95614624 C5.82339743 192.95592779 3.68144228 192.96403953 1.53958321 192.98180008 C-29.01979966 193.22109221 -55.60688497 184.93336113 -78.1640625 163.80200195 C-97.03686392 144.71438816 -106.9758343 121.50862817 -106.9375 94.70336914 C-106.62653788 80.03113977 -103.66811475 66.28919007 -96.56640625 53.37231445 C-96.05335937 52.37071289 -95.5403125 51.36911133 -95.01171875 50.3371582 C-90.62114303 42.19673672 -84.97800218 35.92681371 -78.56640625 29.37231445 C-77.62087891 28.35137695 -77.62087891 28.35137695 -76.65625 27.30981445 C-65.92033283 15.93938681 -50.40336976 7.93166846 -35.56640625 3.37231445 C-34.71655655 3.10568906 -33.86670685 2.83906366 -32.99110413 2.56435871 C-22.09090001 -0.39659386 -11.21373381 -0.04228071 0 0 Z " fill="#FAF6F2" transform="translate(1217.56640625,770.627685546875)"/>
<path d="M0 0 C3.58393646 0.01310092 7.16785947 0.0085611 10.75181317 0.00629318 C16.94322884 0.00472921 23.13454878 0.01404588 29.32594037 0.03100669 C38.27735302 0.05551225 47.22871994 0.0632137 56.18016249 0.06697067 C70.70746474 0.07351715 85.23471612 0.09342905 99.76199079 0.1218785 C113.86387628 0.14946598 127.96574783 0.17064209 142.06765485 0.18340194 C143.38741549 0.18460793 143.38741549 0.18460793 144.73383796 0.18583828 C151.61599 0.19207749 158.49814234 0.19794794 165.3802948 0.20370197 C199.0441946 0.23194192 232.70796687 0.29231117 266.37185407 0.34819686 C266.37185407 63.70819686 266.37185407 127.06819686 266.37185407 192.34819686 C193.98156375 192.54985361 193.98156375 192.54985361 163.64919782 192.59233749 C156.70762821 192.6021253 149.76605916 192.61222727 142.82449079 192.62285507 C141.95460424 192.62417381 141.0847177 192.62549255 140.18847096 192.62685126 C126.18627109 192.64853563 112.184175 192.68791998 98.18203644 192.73396084 C83.78783873 192.7808924 69.39369494 192.80852735 54.99942386 192.81863934 C46.13353722 192.82546408 37.26794386 192.84693543 28.40214761 192.8877792 C22.30383503 192.91442436 16.20567174 192.92214926 10.10730533 192.91570375 C6.60066799 192.91253424 3.09453922 192.9170236 -0.41200519 192.94422424 C-30.19495044 193.14090754 -55.05656881 188.15867759 -78.62814593 169.34819686 C-79.52017718 168.64050155 -80.41220843 167.93280624 -81.33127093 167.20366561 C-99.30564009 151.97067037 -111.10599048 129.81188546 -113.62814593 106.34819686 C-114.30464698 94.33929453 -113.74450032 83.00417171 -110.62814593 71.34819686 C-110.36131 70.33757186 -110.09447406 69.32694686 -109.81955218 68.28569686 C-102.13169244 42.59116119 -83.22578314 23.09887778 -60.06564593 10.59819686 C-59.02114276 10.03225814 -59.02114276 10.03225814 -57.95553851 9.45488632 C-39.61995359 -0.15704671 -20.22190109 -0.09292399 0 0 Z " fill="#FAF6F2" transform="translate(1653.6281459331512,767.6518031358719)"/>
<path d="M0 0 C2.15598581 -0.00135657 4.3119714 -0.00313795 6.46795654 -0.00531006 C12.29577179 -0.00985145 18.12356924 -0.00810907 23.95138478 -0.00493097 C30.05364481 -0.00239326 36.15590336 -0.00474857 42.25816345 -0.00631714 C52.49421461 -0.00813347 62.73025854 -0.0057453 72.96630859 -0.00097656 C84.81178459 0.00447811 96.6572434 0.00269252 108.50271899 -0.00280297 C118.67528845 -0.0073338 128.84785273 -0.00798519 139.02042288 -0.0053643 C145.09571613 -0.00380304 151.17100129 -0.00360391 157.24629402 -0.00690079 C162.94838394 -0.00977949 168.65045156 -0.00780384 174.35253906 -0.00200653 C176.44964498 -0.00067949 178.54675277 -0.0010721 180.64385796 -0.0032692 C183.49555363 -0.00598254 186.34717681 -0.00259742 189.1988678 0.00241089 C190.03765647 0.00018017 190.87644515 -0.00205055 191.74065167 -0.00434887 C197.45114155 0.01524362 197.45114155 0.01524362 199.67944336 1.12939453 C199.34944336 31.48939453 199.01944336 61.84939453 198.67944336 93.12939453 C209.56944336 93.12939453 220.45944336 93.12939453 231.67944336 93.12939453 C231.67944336 89.82939453 231.67944336 86.52939453 231.67944336 83.12939453 C233.11591202 72.6456934 237.3435172 62.97564258 245.83178711 56.37158203 C254.32716852 50.66009939 262.52300384 48.70620955 272.67944336 49.12939453 C273.00944336 48.46939453 273.33944336 47.80939453 273.67944336 47.12939453 C274.85385871 49.22956076 276.01908348 51.33398209 277.17944336 53.44189453 C277.51331055 54.03679687 277.84717773 54.63169922 278.19116211 55.24462891 C279.7476945 58.08768297 280.67944336 59.83600441 280.67944336 63.12939453 C279.71264648 63.07138672 278.74584961 63.01337891 277.74975586 62.95361328 C268.33728818 62.62743866 261.1807455 63.30697648 253.84350586 69.73876953 C248.51278809 75.40753282 246.54756373 81.30473301 246.24194336 89.00439453 C246.46136094 95.96432023 247.80329693 102.01019347 252.62084961 107.23486328 C261.05616251 114.7691667 267.60341321 115.50931113 278.67944336 115.12939453 C281.05331168 114.89915312 283.33112075 114.55636228 285.67944336 114.12939453 C285.34944336 116.76939453 285.01944336 119.40939453 284.67944336 122.12939453 C283.98496094 122.13874023 283.29047852 122.14808594 282.57495117 122.15771484 C259.96622656 121.7899263 259.96622656 121.7899263 240.67944336 132.12939453 C236.05887898 139.24573821 236.02625804 145.79453046 235.92944336 154.12939453 C235.89979492 155.38107422 235.87014648 156.63275391 235.83959961 157.92236328 C235.76932472 160.99103341 235.72207084 164.06021584 235.67944336 167.12939453 C241.94944336 167.12939453 248.21944336 167.12939453 254.67944336 167.12939453 C235.23882763 186.57001026 209.28781672 192.3592548 182.79525757 192.41156006 C180.74005103 192.40926703 178.68484471 192.40675744 176.62963867 192.40405273 C174.43020455 192.40840763 172.23077194 192.41359336 170.03134155 192.41954041 C164.09311757 192.43285888 158.15495752 192.43351701 152.21672153 192.43097711 C147.24208342 192.42990239 142.26745798 192.43480359 137.2928226 192.43958253 C124.87674664 192.45128471 112.460702 192.45046685 100.04462418 192.44402572 C89.30380465 192.43886111 78.56307594 192.45010576 67.82227436 192.46912394 C56.74987339 192.48857643 45.67751733 192.49645507 34.60509944 192.49300069 C28.40635042 192.49119628 22.20768457 192.49373922 16.00894928 192.50771523 C10.17457206 192.52037905 4.34037528 192.51826926 -1.49399948 192.50530434 C-3.62147714 192.50295741 -5.74896784 192.50560462 -7.87643051 192.51392746 C-39.58636476 192.62892585 -66.40615651 185.07706222 -89.63305664 162.19189453 C-107.38358931 144.11857342 -116.64094219 119.93613654 -116.56274414 94.73681641 C-116.16441354 68.54657948 -105.34813377 45.92356208 -86.80493164 27.53613281 C-74.34792536 15.73066074 -58.36482353 6.61141062 -41.57055664 3.00439453 C-40.83579102 2.83552734 -40.10102539 2.66666016 -39.34399414 2.49267578 C-26.35738352 -0.36078364 -13.22016153 -0.01398231 0 0 Z " fill="#FAF6F2" transform="translate(1454.320556640625,117.87060546875)"/>
<path d="M0 0 C4.24092211 3.4585451 8.28388338 7.09537093 12.265625 10.84765625 C12.88179687 11.399375 13.49796875 11.95109375 14.1328125 12.51953125 C30.63508734 27.88109585 39.45307216 50.69901335 40.50390625 72.86328125 C41.22300114 100.21468433 32.25935484 123.51489548 13.62060547 143.53344727 C-6.44239206 164.23221981 -32.7198037 173.41672342 -61.16845703 174.20361328 C-85.84880193 174.40121818 -108.91790708 165.82390259 -127.734375 149.84765625 C-128.45882813 149.26757812 -129.18328125 148.6875 -129.9296875 148.08984375 C-145.96358865 134.73757067 -154.76606684 116.72088887 -159.734375 96.84765625 C-159.98058594 95.9453125 -160.22679687 95.04296875 -160.48046875 94.11328125 C-165.67184121 72.7749503 -159.78817381 49.33395967 -149.421875 30.59765625 C-135.36969532 7.58914227 -112.83640731 -9.28740006 -86.734375 -16.15234375 C-56.62141204 -22.18914655 -25.05354385 -18.70494175 0 0 Z " fill="#FAF6F2" transform="translate(1461.734375,353.15234375)"/>
<path d="M0 0 C19.72497944 18.28702532 28.67021246 42.31814609 30.15625 68.6953125 C30.36510601 77.17138557 29.3741606 84.70255792 26.9375 92.8125 C26.63948486 93.80685059 26.63948486 93.80685059 26.33544922 94.82128906 C19.51530815 117.04422064 5.75062884 136.31798477 -14.0625 148.8125 C-15.1246875 149.48410156 -16.186875 150.15570313 -17.28125 150.84765625 C-34.07244599 161.11946599 -52.3236157 165.03710839 -71.8125 165.125 C-73.35623291 165.13333862 -73.35623291 165.13333862 -74.93115234 165.1418457 C-101.31727585 164.89499008 -126.23751352 153.86022925 -144.9375 135.375 C-164.09414021 115.76801268 -172.50007388 91.14732641 -172.2109375 64.05078125 C-171.66301076 38.88657188 -159.49894107 16.14948908 -141.51953125 -1.07421875 C-99.99911108 -36.78574071 -41.09462958 -35.05885586 0 0 Z " fill="#FAF6F2" transform="translate(1283.0625,145.1875)"/>
<path d="M0 0 C5.94 0 11.88 0 18 0 C18 63.36 18 126.72 18 192 C-76.28571429 192 -76.28571429 192 -102 168 C-102 167.67 -102 167.34 -102 167 C-80.88 167 -59.76 167 -38 167 C-36.58121361 141.38852003 -36.58121361 141.38852003 -44 131 C-45.90528078 129.17379878 -45.90528078 129.17379878 -47.9375 128.125 C-48.56527344 127.75632812 -49.19304687 127.38765625 -49.83984375 127.0078125 C-57.16894862 123.58844712 -64.13774487 123.66101029 -72.05737305 123.68432617 C-74.29591015 123.68747665 -76.53311112 123.66402681 -78.77148438 123.63867188 C-88.78079943 123.59346955 -97.89132431 123.97858884 -105.49609375 131.23046875 C-111.83545154 138.68950532 -111.75355898 147.64756343 -112 157 C-126.25785864 143.66927804 -134.40868461 120.81484456 -135.24609375 101.62109375 C-135.91648428 73.61366721 -126.47953223 50.67455189 -108.09375 29.83984375 C-106.5 28.1875 -106.5 28.1875 -104 26 C-103.34 26 -102.68 26 -102 26 C-102 27.98 -102 29.96 -102 32 C-68.34 32 -34.68 32 0 32 C0 21.44 0 10.88 0 0 Z " fill="#FAF6F2" transform="translate(1902,118)"/>
<path d="M0 0 C33.33 0 66.66 0 101 0 C101 39.93 101 79.86 101 121 C67.67 121 34.34 121 0 121 C0 90 0 90 5.859375 83.0546875 C8.49874952 81.50201432 11.00374471 80.17593659 13.75 78.875 C15.13723771 78.10693067 16.51802937 77.32711055 17.89233398 76.53613281 C20.62342183 74.98139409 23.37490282 73.48897208 26.16552734 72.04394531 C31.37756988 69.3171311 36.20085036 66.05057843 41.0625 62.75 C48.28111303 58.0148841 55.63699398 53.50549736 63 49 C58.6438971 50.43166037 54.28996887 51.86983368 49.9375 53.3125 C49.27649292 53.53153992 48.61548584 53.75057983 47.93444824 53.97625732 C35.78660026 58.00909731 23.71748248 62.24598767 11.67944336 66.5949707 C10.4394458 67.0405835 9.19944824 67.48619629 7.921875 67.9453125 C6.82456055 68.34250488 5.72724609 68.73969727 4.59667969 69.14892578 C2 70 2 70 0 70 C0 46.9 0 23.8 0 0 Z " fill="#E22626" transform="translate(1801,29)"/>
<path d="M0 0 C2.84024522 1.80742878 4.2825748 2.73362598 5.75 5.75 C6.28701898 10.50645379 6.40633446 12.51698332 4.140625 16.7734375 C1.46725704 20.1020427 -1.14389497 21.74932833 -4.9375 23.5 C-5.61594971 23.82291016 -6.29439941 24.14582031 -6.9934082 24.47851562 C-9.39942469 25.59982753 -11.82156705 26.67810267 -14.25 27.75 C-15.23484375 28.19021484 -16.2196875 28.63042969 -17.234375 29.08398438 C-20.45544414 30.50609434 -23.69225405 31.88404052 -26.9375 33.25 C-27.95739014 33.69569336 -28.97728027 34.14138672 -30.02807617 34.60058594 C-41.06913435 39.1065624 -49.68896468 38.31911896 -61.25 35.75 C-61.25 44.33 -61.25 52.91 -61.25 61.75 C-63.374375 61.9975 -65.49875 62.245 -67.6875 62.5 C-77.93547378 63.986111 -87.37535507 67.57397927 -93.9765625 75.9375 C-100.05307862 85.27677601 -101.15476933 94.79769333 -102.25 105.75 C-113.14 105.75 -124.03 105.75 -135.25 105.75 C-135.38587167 94.44896076 -135.49581418 83.14846919 -135.56087303 71.84679604 C-135.59210738 66.59823746 -135.63443548 61.3502695 -135.70263672 56.10205078 C-135.76811144 51.03157165 -135.80376536 45.96165848 -135.81926346 40.89078903 C-135.83029951 38.96194939 -135.85185038 37.03313867 -135.88438034 35.10454178 C-136.20362399 15.38270948 -136.20362399 15.38270948 -129.25 7.75 C-126.65234375 5.49609375 -126.65234375 5.49609375 -124.1875 4.1875 C-123.37152344 3.73246094 -122.55554687 3.27742188 -121.71484375 2.80859375 C-116.77546545 0.68724427 -111.79729635 0.54595992 -106.484375 0.44140625 C-105.73783157 0.42618927 -104.99128815 0.41097229 -104.22212219 0.39529419 C-74.995556 -0.09073707 -74.995556 -0.09073707 -61.25 6.75 C-58.90633235 7.73373035 -56.55239502 8.69345557 -54.1875 9.625 C-53.22714844 10.03492187 -52.26679687 10.44484375 -51.27734375 10.8671875 C-43.37644914 13.17119032 -37.66716947 11.17493524 -30.375 8.0625 C-29.49239502 7.69962891 -28.60979004 7.33675781 -27.70043945 6.96289062 C-23.16858262 5.07660626 -18.7692239 3.06603728 -14.4375 0.75 C-9.276001 -1.93506802 -5.48543818 -2.10978392 0 0 Z " fill="#E22726" transform="translate(1788.25,105.25)"/>
<path d="M0 0 C2.17982066 0.00097043 4.35608729 -0.04071093 6.53540039 -0.08496094 C16.03081565 -0.16652021 25.5426353 0.71340835 32.93701172 7.34472656 C43.03384604 18.40458553 38.88110352 26.86406385 38.88110352 44.50097656 C14.46110352 44.50097656 -9.95889648 44.50097656 -35.11889648 44.50097656 C-35.11889648 14.7894381 -35.11889648 14.7894381 -26.86889648 6.06347656 C-18.85174203 0.00793245 -9.65233454 -0.03022088 0 0 Z " fill="#E22727" transform="translate(1825.118896484375,240.4990234375)"/>
<path d="M0 0 C2.19928402 0.0084877 4.39594358 -0.02027457 6.5949707 -0.05200195 C16.70412878 -0.10323923 26.01845126 0.75626018 33.90161133 7.69604492 C43.42206354 17.31170166 39.90161133 32.55812108 39.90161133 44.44604492 C15.48161133 44.44604492 -8.93838867 44.44604492 -34.09838867 44.44604492 C-34.09838867 13.72335585 -34.09838867 13.72335585 -28.23901367 7.45776367 C-27.61510742 7.02077148 -26.99120117 6.5837793 -26.34838867 6.13354492 C-25.73479492 5.68366211 -25.12120117 5.2337793 -24.48901367 4.77026367 C-16.36744727 0.27155287 -9.07496905 -0.0533289 0 0 Z " fill="#E22626" transform="translate(1724.098388671875,240.553955078125)"/>
<path d="M0 0 C6.62675062 6.35063601 9.4131554 12.96512161 11.625 21.8125 C-4.545 21.8125 -20.715 21.8125 -37.375 21.8125 C-37.375 25.4425 -37.375 29.0725 -37.375 32.8125 C-31.105 32.8125 -24.835 32.8125 -18.375 32.8125 C-18.375 42.7125 -18.375 52.6125 -18.375 62.8125 C-31.90065625 62.8125 -38.80429153 62.1841211 -48.890625 53.6953125 C-53.68352 48.70715141 -56.28511044 43.35373625 -58.375 36.8125 C-58.87 35.3275 -58.87 35.3275 -59.375 33.8125 C-60.30307804 22.11263095 -58.59796522 12.96099709 -51.21484375 3.69921875 C-37.19964731 -10.67305276 -15.83266973 -12.72645071 0 0 Z " fill="#EC3032" transform="translate(177.375,126.1875)"/>
<path d="M0 0 C7.38550297 5.07260525 10.23153944 10.69461833 13 19 C13.74100683 27.29927646 11.31818611 34.27685261 6.9375 41.3125 C0.59134094 47.11856042 -5.40932638 50.3611742 -14.125 50.625 C-23.0319017 50.18695565 -29.46041486 47.60991478 -35.4921875 40.9609375 C-41.34332456 33.35142764 -42.21116406 25.43207407 -41 16 C-38.5954192 7.8443711 -33.40367615 2.10046992 -26.09375 -2.09375 C-17.38517658 -5.94836446 -7.98267461 -4.94165571 0 0 Z " fill="#E22727" transform="translate(1842,184)"/>
<path d="M0 0 C7.6362479 4.82064812 12.18891327 10.12080405 14.84765625 18.76171875 C14.93015625 19.60734375 15.01265625 20.45296875 15.09765625 21.32421875 C15.17242188 21.96875 15.2471875 22.61328125 15.32421875 23.27734375 C15.8489047 31.17524802 12.71392227 37.31551282 7.59765625 43.19921875 C6.77265625 43.90046875 5.94765625 44.60171875 5.09765625 45.32421875 C4.29328125 46.04609375 3.48890625 46.76796875 2.66015625 47.51171875 C-3.70441117 52.01348595 -10.36401111 51.82262091 -17.90234375 51.32421875 C-25.71227513 49.58867844 -31.4114271 44.77577157 -35.90234375 38.32421875 C-39.81297583 31.54286049 -39.91539582 23.61764397 -38.46875 16.05859375 C-36.12985663 8.67873143 -30.85353673 3.11318339 -24.21484375 -0.67578125 C-16.24958039 -4.24683397 -7.74997601 -4.00860828 0 0 Z " fill="#E22727" transform="translate(1738.90234375,182.67578125)"/>
<path d="M0 0 C1.05453369 0.00858032 1.05453369 0.00858032 2.13037109 0.01733398 C9.30053752 0.26171537 14.70064277 2.31390322 20.08203125 7.14453125 C25.20031125 12.66131481 27.91358753 19.21074101 28.5 26.6875 C27.95739276 34.96226039 24.89582757 41.44206823 19.25 47.5 C11.31822924 53.77931852 3.07436885 54.42068371 -6.75 53.5 C-9.78561353 52.58412282 -12.16242493 51.31130255 -14.75 49.5 C-15.636875 48.943125 -16.52375 48.38625 -17.4375 47.8125 C-23.22250865 42.02749135 -25.89466247 35.00817267 -26.125 26.9375 C-26.05261847 19.14442232 -24.36848046 13.46349836 -19.0703125 7.66015625 C-13.3798913 2.48819565 -7.76618794 -0.07340618 0 0 Z " fill="#E22727" transform="translate(1688.75,45.5)"/>
<path d="M0 0 C6.27 0 12.54 0 19 0 C20.60494203 3.04125976 22.20897799 6.08299163 23.8125 9.125 C24.26431641 9.9809375 24.71613281 10.836875 25.18164062 11.71875 C25.62314453 12.55664062 26.06464844 13.39453125 26.51953125 14.2578125 C26.92276611 15.0223877 27.32600098 15.78696289 27.74145508 16.57470703 C29.19087249 19.36782295 30.5927113 22.18542261 32 25 C36.29 16.75 40.58 8.5 45 0 C51.27 0 57.54 0 64 0 C64 13.53 64 27.06 64 41 C60.37 41 56.74 41 53 41 C51.25493385 39.25493385 51.76717216 36.80960857 51.68359375 34.43359375 C51.64169922 33.30888672 51.59980469 32.18417969 51.55664062 31.02539062 C51.51732422 29.84138672 51.47800781 28.65738281 51.4375 27.4375 C51.39431641 26.24962891 51.35113281 25.06175781 51.30664062 23.83789062 C51.20016454 20.89205216 51.09815159 17.9461257 51 15 C50.61142822 15.72179443 50.22285645 16.44358887 49.82250977 17.18725586 C48.07100483 20.43832796 46.31679017 23.68793004 44.5625 26.9375 C43.95083984 28.07380859 43.33917969 29.21011719 42.70898438 30.38085938 C42.12568359 31.46044922 41.54238281 32.54003906 40.94140625 33.65234375 C40.40201416 34.65257568 39.86262207 35.65280762 39.30688477 36.68334961 C38 39 38 39 37 40 C33.7 40 30.4 40 27 40 C22.38 31.42 17.76 22.84 13 14 C12.67 22.91 12.34 31.82 12 41 C8.04 41 4.08 41 0 41 C0 27.47 0 13.94 0 0 Z " fill="#EC3334" transform="translate(441,138)"/>
<path d="M0 0 C3.19297688 -0.21236754 6.38412538 -0.3398853 9.58203125 -0.453125 C10.47990356 -0.51387207 11.37777588 -0.57461914 12.30285645 -0.63720703 C18.88607125 -0.8118361 18.88607125 -0.8118361 22.04685974 1.49176025 C24.94154683 4.56694103 27.38679493 7.94393341 29.43359375 11.640625 C31.76726621 15.67465858 34.39761795 19.32268745 37.25 23 C38.4875 24.65 39.725 26.3 41 28 C41.33 18.76 41.66 9.52 42 0 C45.96 0 49.92 0 54 0 C54 13.53 54 27.06 54 41 C35 41 35 41 30.328125 37.4140625 C28.6953125 35.08984375 28.6953125 35.08984375 27.25 32.625 C26.72664063 31.85027344 26.20328125 31.07554687 25.6640625 30.27734375 C24.61024243 28.70699611 23.58307276 27.11841971 22.58398438 25.51269531 C19.88483771 21.23100335 16.92749177 17.12748001 14 13 C13.97494385 13.81267334 13.9498877 14.62534668 13.92407227 15.46264648 C13.80850882 19.12110752 13.68560416 22.77928528 13.5625 26.4375 C13.52318359 27.71689453 13.48386719 28.99628906 13.44335938 30.31445312 C13.40146484 31.52939453 13.35957031 32.74433594 13.31640625 33.99609375 C13.26141968 35.68496704 13.26141968 35.68496704 13.20532227 37.40795898 C13 40 13 40 12 41 C10.16884117 41.09851171 8.33380067 41.12972629 6.5 41.125 C5.4996875 41.12757813 4.499375 41.13015625 3.46875 41.1328125 C1 41 1 41 0 40 C-0.08868299 37.04294679 -0.11520296 34.10934944 -0.09765625 31.15234375 C-0.0962413 30.2659169 -0.09482635 29.37949005 -0.09336853 28.46620178 C-0.08775215 25.62326746 -0.07519691 22.78041069 -0.0625 19.9375 C-0.05748711 18.01497509 -0.05292384 16.09244896 -0.04882812 14.16992188 C-0.03777741 9.44658451 -0.02050183 4.72330542 0 0 Z " fill="#EC3637" transform="translate(304,138)"/>
<path d="M0 0 C5.28 0 10.56 0 16 0 C21.79493038 10.57991519 27.5891134 21.16006873 33.25 31.8125 C33.63212646 32.52849365 34.01425293 33.2444873 34.40795898 33.98217773 C37 38.87986981 37 38.87986981 37 40 C34.9192457 40.162371 32.83485081 40.27856417 30.75 40.375 C29.00976562 40.47941406 29.00976562 40.47941406 27.234375 40.5859375 C26.16703125 40.39257812 25.0996875 40.19921875 24 40 C23.18015625 38.515 23.18015625 38.515 22.34375 37 C20.35608509 33.77881727 20.35608509 33.77881727 17.44628906 33.50634766 C14.19658152 33.40919569 10.99778071 33.47805865 7.75 33.625 C6.62335938 33.65207031 5.49671875 33.67914063 4.3359375 33.70703125 C1.55535763 33.77772396 -1.22135359 33.8763496 -4 34 C-5.32 36.31 -6.64 38.62 -8 41 C-12.29 41 -16.58 41 -21 41 C-19.03252853 36.08132132 -16.80515602 31.41921788 -14.4375 26.6875 C-13.78128662 25.37410645 -13.78128662 25.37410645 -13.11181641 24.03417969 C-8.99591593 15.86749905 -4.55287451 7.93081365 0 0 Z " fill="#EC3234" transform="translate(264,138)"/>
<path d="M0 0 C3.96 0 7.92 0 12 0 C12.06058594 1.92585937 12.12117188 3.85171875 12.18359375 5.8359375 C12.26798651 8.34896649 12.35263514 10.8619869 12.4375 13.375 C12.47681641 14.64601562 12.51613281 15.91703125 12.55664062 17.2265625 C12.59853516 18.43828125 12.64042969 19.65 12.68359375 20.8984375 C12.72025146 22.01911621 12.75690918 23.13979492 12.79467773 24.29443359 C12.82596013 26.96712771 12.82596013 26.96712771 14 29 C20.93 29 27.86 29 35 29 C36.36839363 26.26321275 36.21634818 23.95735576 36.31640625 20.8984375 C36.37924805 19.08085937 36.37924805 19.08085937 36.44335938 17.2265625 C36.48267578 15.95554688 36.52199219 14.68453125 36.5625 13.375 C36.62727539 11.456875 36.62727539 11.456875 36.69335938 9.5 C36.7996981 6.33346918 36.9003767 3.16674921 37 0 C40.96 0 44.92 0 49 0 C49.09932276 4.44736742 49.17168003 8.89413713 49.21972656 13.34228516 C49.23976791 14.85346736 49.26700905 16.36457272 49.30175781 17.87548828 C49.35061109 20.05520643 49.37304224 22.23389431 49.390625 24.4140625 C49.41157227 25.7232666 49.43251953 27.0324707 49.45410156 28.38134766 C48.92250676 32.61752944 47.67970718 34.71660751 45 38 C38.59273698 42.10343032 31.46574424 41.51538336 24.0625 41.5 C22.82564453 41.52835938 21.58878906 41.55671875 20.31445312 41.5859375 C13.83587204 41.59978802 8.93006441 41.26866745 3.45092773 37.66210938 C-0.25889315 33.41232634 -0.24133425 28.23610675 -0.1953125 22.8515625 C-0.1924826 22.19417084 -0.18965271 21.53677917 -0.18673706 20.85946655 C-0.17563447 18.78111767 -0.15054986 16.70321634 -0.125 14.625 C-0.11495731 13.20703752 -0.10583373 11.78906821 -0.09765625 10.37109375 C-0.07572805 6.91391963 -0.04126818 3.45700358 0 0 Z " fill="#EC3233" transform="translate(385,138)"/>
<path d="M0 0 C15.18 0 30.36 0 46 0 C46 3.3 46 6.6 46 10 C40.39 10 34.78 10 29 10 C29 20.23 29 30.46 29 41 C25.04 41 21.08 41 17 41 C17 30.77 17 20.54 17 10 C11.39 10 5.78 10 0 10 C0 6.7 0 3.4 0 0 Z " fill="#EC3032" transform="translate(202,138)"/>
<path d="M0 0 C3.96 0 7.92 0 12 0 C12 13.53 12 27.06 12 41 C8.04 41 4.08 41 0 41 C0 27.47 0 13.94 0 0 Z " fill="#EC3537" transform="translate(365,138)"/>
<path d="M0 0 C5.28 0 10.56 0 16 0 C14.60248973 9.78257191 10.80952073 16.78199297 3 23 C2.01 23.33 1.02 23.66 0 24 C0 16.08 0 8.16 0 0 Z " fill="#EC2F31" transform="translate(172,160)"/>
<path d="M0 0 C0.66 0 1.32 0 2 0 C3.00484204 1.95585325 4.00373805 3.91476237 5 5.875 C5.556875 6.96554688 6.11375 8.05609375 6.6875 9.1796875 C8 12 8 12 8 14 C3.38 14 -1.24 14 -6 14 C-4.7290827 10.1872481 -3.66918099 7.09374991 -1.875 3.625 C-1.34519531 2.59246094 -1.34519531 2.59246094 -0.8046875 1.5390625 C-0.53914063 1.03117188 -0.27359375 0.52328125 0 0 Z " fill="#EFE0D3" transform="translate(271,148)"/>
<path d="M0 0 C-1.45449401 1.0055761 -2.91372443 2.00430435 -4.375 3 C-5.59316406 3.8353125 -5.59316406 3.8353125 -6.8359375 4.6875 C-9 6 -9 6 -11 6 C-11 4.68 -11 3.36 -11 2 C-9.54494642 1.47007308 -8.08581873 0.9513211 -6.625 0.4375 C-5.81289062 0.14746094 -5.00078125 -0.14257812 -4.1640625 -0.44140625 C-2 -1 -2 -1 0 0 Z " fill="#EBBEB3" transform="translate(1865,78)"/>
<path d="M0 0 C2.31 0 4.62 0 7 0 C7 1.32 7 2.64 7 4 C4.69 4 2.38 4 0 4 C0 2.68 0 1.36 0 0 Z " fill="#EE8A85" transform="translate(511,174)"/>
</svg>
