<?xml version="1.0" encoding="UTF-8"?>
<svg version="1.1" xmlns="http://www.w3.org/2000/svg" width="1920" height="1080">
<path d="M0 0 C633.6 0 1267.2 0 1920 0 C1920 356.4 1920 712.8 1920 1080 C1286.4 1080 652.8 1080 0 1080 C0 723.6 0 367.2 0 0 Z " fill="#175282" transform="translate(0,0)"/>
<path d="M0 0 C1.77251041 -0.00346412 3.54501865 -0.00823371 5.31752247 -0.01418173 C10.14793846 -0.02661767 14.97817491 -0.02055537 19.80859125 -0.01122308 C25.033605 -0.00440239 30.25858905 -0.01492868 35.4835968 -0.02316284 C45.70320742 -0.03647 55.92275176 -0.03363599 66.14236493 -0.02492492 C74.45091255 -0.01813725 82.75944166 -0.01723633 91.06799126 -0.02049637 C92.25254676 -0.02095607 93.43710226 -0.02141577 94.65755339 -0.0218894 C97.06428314 -0.02284861 99.47101289 -0.02382126 101.87774264 -0.02480717 C124.42050275 -0.03335213 146.96322621 -0.02354078 169.50598031 -0.00740607 C188.83171823 0.00599802 208.15740209 0.00366651 227.48313904 -0.01016235 C249.94929151 -0.02623097 272.41541191 -0.03253006 294.88156933 -0.02332556 C297.27891504 -0.02236996 299.67626076 -0.02142684 302.07360649 -0.02049637 C303.25301501 -0.02003354 304.43242353 -0.01957072 305.6475717 -0.01909386 C313.94275507 -0.01650795 322.23791802 -0.02086633 330.53309822 -0.02793503 C340.64689477 -0.03636438 350.76062151 -0.03403963 360.8744101 -0.0180928 C366.03059126 -0.0102297 371.18665618 -0.007085 376.34283638 -0.01704025 C381.06964848 -0.02602824 385.79623738 -0.02098713 390.52302944 -0.0051076 C392.22604682 -0.00177712 393.92908335 -0.00341444 395.63208825 -0.01073496 C409.13437428 -0.06428965 421.33703406 1.81027244 434.19139099 6.19345093 C434.95403259 6.45279419 435.71667419 6.71213745 436.50242615 6.9793396 C446.85125825 10.61075905 455.77701357 15.95435456 464.24663162 22.94776821 C465.61680754 24.06525404 467.03079212 25.1290915 468.45985031 26.17022038 C475.42777469 31.65931523 475.42777469 31.65931523 476.94229889 36.18523979 C477.30139117 39.42931465 477.3562904 42.54691084 477.2978363 45.81039429 C477.32412109 47.63169609 477.32412109 47.63169609 477.35093689 49.48979187 C477.38724338 52.79783572 477.37899598 56.09956621 477.34714603 59.40724635 C477.32165937 62.88330779 477.3453548 66.3591167 477.36100769 69.83518982 C477.3791559 75.67181302 477.35535108 81.50716732 477.30760193 87.34359741 C477.25320655 94.06961449 477.27079447 100.79259887 477.32586598 107.51854223 C477.37141032 113.31527236 477.37757098 119.11109519 477.35147929 124.90794665 C477.3359728 128.36048634 477.33356823 131.81160585 477.36684418 135.26405144 C477.56833804 159.42006333 477.56833804 159.42006333 471.1403656 165.9624939 C468.48764038 167.9006958 468.48764038 167.9006958 466.00389099 169.38095093 C464.82410431 170.34241051 463.6521983 171.31370869 462.49217224 172.29891968 C452.3853803 179.52160863 441.71782087 185.58071684 429.58212411 188.70641363 C427.88868991 189.14946299 426.20417003 189.62842191 424.53197062 190.14587843 C415.44711446 192.78127283 406.64014002 192.80174545 397.28157043 192.76190186 C395.50212557 192.76536344 393.72268285 192.77013136 391.94324458 192.77608359 C387.07956894 192.78855513 382.21607092 192.78244068 377.35239482 192.77312493 C372.09657665 192.76631868 366.84078837 192.77682368 361.5849762 192.7850647 C351.29743772 192.79838908 341.00996499 192.79552956 330.72242396 192.78682677 C322.356154 192.78004334 313.98990244 192.77913637 305.62363052 192.78239822 C304.43149736 192.78285792 303.2393642 192.78331762 302.01110578 192.78379125 C299.58900335 192.78475047 297.16690092 192.78572311 294.7447985 192.78670903 C272.04217139 192.7952597 249.33958065 192.78543498 226.63695951 192.76930793 C207.18226609 192.7559154 187.7276264 192.75822469 168.27293396 192.77206421 C145.65917248 192.78814357 123.0454429 192.79442488 100.43167651 192.78522742 C98.01679969 192.78427182 95.60192287 192.78332871 93.18704605 192.78239822 C91.99902309 192.7819354 90.81100012 192.78147257 89.58697646 192.78099572 C81.23960566 192.77841212 72.89225519 192.78276343 64.54488754 192.78983688 C54.35903518 192.79827874 44.17325211 192.79591594 33.98740761 192.77999465 C28.79632248 192.77214637 23.6053526 192.76896102 18.41426849 192.77894211 C13.65073665 192.78796203 8.88742553 192.78283754 4.12391336 192.76700945 C2.41198685 192.76369212 0.70004122 192.76528584 -1.01187272 192.77263682 C-29.2062674 192.88429827 -53.7067372 185.55788895 -74.99610901 166.38095093 C-76.16593323 165.33487671 -76.16593323 165.33487671 -77.35939026 164.26766968 C-94.08886382 148.46279569 -105.2778255 124.94167963 -106.23439026 101.83407593 C-106.7630759 77.24189577 -100.40860169 56.62984711 -84.99610901 37.38095093 C-84.27552307 36.47602905 -83.55493713 35.57110718 -82.81251526 34.63876343 C-61.93042474 10.04004396 -31.38331076 -0.13509749 0 0 Z " fill="#1E6E9A" transform="translate(1443.996109008789,550.6190490722656)"/>
<path d="M0 0 C3.76798651 0.01745398 7.53594994 0.01141577 11.30396557 0.0083909 C17.81462263 0.00630475 24.32511797 0.01873607 30.83573437 0.04134226 C40.24868702 0.07400448 49.66156236 0.08428373 59.07456553 0.08929422 C74.35060033 0.09802471 89.62654916 0.12457895 104.90253735 0.16250467 C119.73196016 0.19928317 134.56135941 0.22752035 149.3908186 0.24453592 C150.31592157 0.24560791 151.24102454 0.2466799 152.19416094 0.24778438 C159.43026724 0.25610323 166.66637406 0.26393052 173.90248108 0.27160263 C209.3029694 0.30926171 244.70324222 0.38975262 280.10370922 0.46426249 C280.10370922 63.82426249 280.10370922 127.18426249 280.10370922 192.46426249 C204.70201151 192.66591923 204.70201151 192.66591923 173.11542797 192.70840311 C165.88674901 192.71819101 158.65807059 192.72829301 151.42939281 192.73892069 C150.07058217 192.7408988 150.07058217 192.7408988 148.68432081 192.74291688 C134.10023664 192.76460502 119.51625203 192.8039915 104.9322267 192.85002647 C89.94138217 192.89694744 74.95058941 192.92459076 59.95967448 192.93470496 C50.72527943 192.94153187 41.49116579 192.96301529 32.25685747 193.00384482 C25.90624874 193.03047683 19.55578338 193.03821777 13.20512299 193.03176937 C9.55267455 193.02859789 5.9007143 193.03311309 2.24835491 193.06028986 C-18.17700138 193.20469063 -38.51511361 192.33708746 -57.02129078 182.71426249 C-57.88689625 182.28089579 -58.75250172 181.84752909 -59.64433765 181.40103006 C-66.69180316 177.77618495 -72.95847548 173.75446904 -78.89629078 168.46426249 C-79.42126148 167.9968162 -79.94623219 167.52936991 -80.48711109 167.04775858 C-96.86049436 152.2234681 -110.76597253 131.05384707 -112.07329273 108.39663553 C-112.61188586 78.33198108 -112.61188586 78.33198108 -107.89629078 65.46426249 C-107.33554859 63.86518045 -107.33554859 63.86518045 -106.76347828 62.23379374 C-97.45406851 37.91219007 -77.24725492 18.73811956 -53.81035328 8.05801249 C-50.53817234 6.73298119 -47.24164759 5.59157686 -43.89629078 4.46426249 C-42.87285069 4.10625685 -41.84941059 3.74825121 -40.79495716 3.37939692 C-27.43674151 -0.62537467 -13.81564473 -0.08042936 0 0 Z " fill="#1E6E9A" transform="translate(1639.8962907791138,334.53573751449585)"/>
<path d="M0 0 C2.25179261 -0.00599331 4.50358318 -0.01280069 6.75537109 -0.02035522 C12.84020337 -0.0379385 18.9249793 -0.0427073 25.00983453 -0.0439868 C28.81903871 -0.04541306 32.62822877 -0.04969159 36.43742943 -0.05498123 C49.06255258 -0.07250347 61.68763498 -0.08182465 74.31276701 -0.08032028 C74.99120917 -0.08024037 75.66965133 -0.08016046 76.36865234 -0.08007812 C77.04793587 -0.07999636 77.72721939 -0.0799146 78.42708727 -0.07983036 C89.43123842 -0.07901776 100.43525261 -0.09815707 111.43936417 -0.12635486 C122.7761515 -0.15517281 134.11285144 -0.16852516 145.44968385 -0.16716731 C151.79932089 -0.16665927 158.14880268 -0.17225498 164.49840736 -0.19352341 C170.47315377 -0.21299233 176.44759813 -0.21297121 182.42235565 -0.19849014 C184.60389082 -0.19641182 186.78544533 -0.201044 188.96694756 -0.21321106 C217.77226396 -0.36335311 241.69791617 7.99522088 263.57299805 27.29052734 C264.19561523 27.82935547 264.81823242 28.36818359 265.4597168 28.92333984 C285.01672347 47.06713624 292.05269525 71.93159133 293.79956055 97.62255859 C294.42180212 118.75048821 284.81296686 141.87390641 270.51049805 157.22802734 C268.54922097 159.2673577 266.56268516 161.2786401 264.57299805 163.29052734 C263.96842773 163.96728516 263.36385742 164.64404297 262.7409668 165.34130859 C251.18139523 178.07146969 231.92282679 186.31608741 215.57299805 190.29052734 C214.91605894 190.45864583 214.25911983 190.62676432 213.58227348 190.7999773 C203.61383959 192.99402876 193.48307386 192.56294356 183.33520508 192.53344727 C181.18721458 192.53452151 179.03922437 192.53646231 176.89123535 192.53919983 C171.08125293 192.54402909 165.27134784 192.5364158 159.46137476 192.52624679 C153.36559806 192.51743079 147.26982353 192.51922444 141.17404175 192.51960754 C130.93705968 192.51867225 120.70010733 192.51000756 110.46313477 192.49633789 C98.65082206 192.48062227 86.83854189 192.47533961 75.02621949 192.47607344 C62.4206539 192.47675064 49.81510075 192.46979894 37.20953894 192.46062684 C33.59115012 192.45850217 29.97276332 192.45778656 26.35437393 192.45738792 C20.65306675 192.45637817 14.95178654 192.45023023 9.25048828 192.44022179 C7.1660669 192.43731834 5.08164241 192.43606701 2.99721909 192.43664932 C-30.78650513 192.44251227 -59.17313211 186.2511544 -84.0949707 161.65771484 C-89.73464936 155.66822254 -94.36738059 149.43986052 -98.42700195 142.29052734 C-98.95036133 141.37916016 -99.4737207 140.46779297 -100.01293945 139.52880859 C-111.78613342 117.62588683 -113.9514162 91.10925599 -106.84106445 67.33105469 C-102.16394744 53.02903714 -93.88135073 41.025907 -83.42700195 30.29052734 C-82.76958008 29.58283203 -82.1121582 28.87513672 -81.43481445 28.14599609 C-59.40246313 5.00760303 -30.47259233 -0.01625058 0 0 Z " fill="#1E6E9A" transform="translate(1221.427001953125,770.70947265625)"/>
<path d="M0 0 C1.20350481 -0.00170885 2.40700962 -0.0034177 3.64698428 -0.00517833 C6.94693244 -0.00787913 10.24671903 -0.00172037 13.54664814 0.00837779 C17.12041311 0.01708542 20.69417173 0.014087 24.26794434 0.01257324 C30.44629472 0.01152898 36.62460258 0.01775738 42.80294228 0.02904892 C51.73557092 0.0453635 60.66817918 0.050518 69.6008211 0.0530249 C84.09649714 0.0573927 98.59215056 0.07067685 113.08781433 0.08963013 C127.16170643 0.1080127 141.23559234 0.12213459 155.30949402 0.13064575 C156.18712094 0.13118175 157.06474785 0.13171774 157.96896952 0.13226998 C164.8334793 0.13642928 171.6979892 0.14034297 178.56249917 0.14417911 C212.15876757 0.16301669 245.75497928 0.20326033 279.35124207 0.24050903 C279.35124207 63.60050903 279.35124207 126.96050903 279.35124207 192.24050903 C207.26119624 192.36150308 207.26119624 192.36150308 177.09538269 192.38699341 C170.1914925 192.39286641 163.28760251 192.39892768 156.38371277 192.40530396 C155.08590164 192.40649082 155.08590164 192.40649082 153.76187211 192.40770167 C139.82098533 192.42072496 125.88013594 192.44436275 111.93927128 192.47196742 C97.61628434 192.50009074 83.29331689 192.51669989 68.97030348 192.52277452 C60.14287097 192.52687664 51.31554411 192.53980006 42.48814415 192.56425843 C36.42259322 192.58020129 30.35709636 192.5848902 24.29152603 192.58101317 C20.79981323 192.57910481 17.30828416 192.5818852 13.81660461 192.59812546 C-16.09168355 192.71668478 -43.47053878 188.65292389 -66.64875793 168.24050903 C-67.87658997 167.22730591 -67.87658997 167.22730591 -69.12922668 166.19363403 C-84.24508795 153.35101081 -93.87175445 136.39880723 -98.64875793 117.24050903 C-98.87305481 116.42324341 -99.09735168 115.60597778 -99.32844543 114.76394653 C-104.71579113 91.51718086 -99.41762863 67.53358343 -87.64875793 47.24050903 C-84.70440323 42.55789188 -81.3225804 38.38033258 -77.64875793 34.24050903 C-77.19661926 33.72939575 -76.74448059 33.21828247 -76.27864075 32.69168091 C-56.58350838 10.7899262 -29.24931066 -0.15514774 0 0 Z " fill="#1E6E9A" transform="translate(1640.6487579345703,767.7594909667969)"/>
<path d="M0 0 C2.22878508 0.0008478 4.45757099 0.00036816 6.68635559 -0.00132751 C12.69361497 -0.00218293 18.70069207 0.01536899 24.70790935 0.03639436 C31.00192368 0.05523722 37.29594289 0.05691757 43.58998108 0.06047058 C54.14009671 0.06871451 64.69015312 0.0874116 75.24023438 0.11425781 C86.09928052 0.14186123 96.95830859 0.16306391 107.81738281 0.17578125 C108.48850296 0.17656942 109.15962311 0.17735759 109.85108023 0.17816965 C113.21842071 0.1820852 116.58576131 0.18587622 119.95310199 0.18960536 C147.81912256 0.22090393 175.68506929 0.2736209 203.55102539 0.34057617 C203.22676889 1.24835627 202.9025124 2.15613636 202.56842995 3.09142494 C201.323554 7.06702167 201.24355792 10.79345019 201.23217773 14.91625977 C201.22213211 15.75594299 201.21208649 16.59562622 201.20173645 17.46075439 C201.17098875 20.22016756 201.15389279 22.97948407 201.13696289 25.73901367 C201.11824447 27.65858792 201.09867056 29.578154 201.07827759 31.49771118 C201.02702162 36.53805722 200.98736091 41.57842991 200.95013428 46.61889648 C200.91005365 51.76707519 200.85897983 56.91514362 200.80883789 62.06323242 C200.71215591 72.15561046 200.62874295 82.24803426 200.55102539 92.34057617 C211.77102539 92.34057617 222.99102539 92.34057617 234.55102539 92.34057617 C234.55102539 89.04057617 234.55102539 85.74057617 234.55102539 82.34057617 C236.02867538 73.4522876 239.57810243 63.40466872 246.55102539 57.34057617 C256.09459517 50.79916831 264.00020436 47.85929196 275.55102539 48.34057617 C275.55102539 46.36057617 275.55102539 44.38057617 275.55102539 42.34057617 C278.65229356 46.00446379 281.02829538 49.74062935 283.30102539 53.96557617 C283.91461914 55.0922168 284.52821289 56.21885742 285.16040039 57.37963867 C286.55102539 60.34057617 286.55102539 60.34057617 286.55102539 63.34057617 C285.52041992 63.10661133 285.52041992 63.10661133 284.46899414 62.86791992 C276.77681628 61.4777673 269.01021776 60.93242924 262.05102539 64.90307617 C254.78155879 70.01199523 250.34508204 75.53338896 248.55102539 84.34057617 C247.58295285 91.24855058 249.25920432 96.29414094 252.55102539 102.34057617 C253.12852539 103.41307617 253.70602539 104.48557617 254.30102539 105.59057617 C258.82735499 111.12275679 265.4926713 114.81110359 272.64086914 115.55932617 C278.23050942 115.78864475 282.4852351 114.59815663 287.55102539 112.34057617 C289.03602539 111.75276367 289.03602539 111.75276367 290.55102539 111.15307617 C291.21102539 110.88495117 291.87102539 110.61682617 292.55102539 110.34057617 C292.04000946 114.68421161 291.25759433 118.32389563 289.55102539 122.34057617 C288.13007568 122.3467395 288.13007568 122.3467395 286.68041992 122.35302734 C283.11995508 122.38021477 279.56115082 122.42951317 276.0012207 122.49316406 C274.46909989 122.5161684 272.93682488 122.53069801 271.40454102 122.53613281 C261.61862842 122.57765268 252.50763575 122.8205107 244.91870117 129.85327148 C240.64501792 134.69606715 239.31107129 138.47222671 239.13696289 144.85620117 C239.09829102 146.1065918 239.05961914 147.35698242 239.01977539 148.64526367 C238.98883789 149.9472168 238.95790039 151.24916992 238.92602539 152.59057617 C238.88735352 153.90799805 238.84868164 155.22541992 238.80883789 156.58276367 C238.7145662 159.83513695 238.6317069 163.08783739 238.55102539 166.34057617 C246.14102539 166.34057617 253.73102539 166.34057617 261.55102539 166.34057617 C241.90203269 185.98956887 215.90647461 192.56938551 188.91567993 192.6227417 C186.85321021 192.62044846 184.79074071 192.61793885 182.72827148 192.61523438 C180.52913236 192.61958757 178.32999476 192.62477274 176.13085938 192.63072205 C170.18425282 192.6440606 164.23771003 192.64469625 158.29109144 192.64215875 C153.31158303 192.64108514 148.3320873 192.64598256 143.35258162 192.65076417 C130.92293128 192.6624747 118.49330918 192.66164456 106.06365784 192.65520736 C95.30977812 192.65004523 84.55598918 192.66127939 73.80212741 192.68030558 C62.72074967 192.69975854 51.63941679 192.70763647 40.55802214 192.70418233 C34.35253645 192.70237761 28.14713382 192.70492369 21.94166183 192.71889687 C16.09910345 192.7315614 10.25672524 192.72945023 4.41416931 192.71648598 C2.28346824 192.71413899 0.15275414 192.7167865 -1.97793198 192.7251091 C-31.64629579 192.83253629 -56.86771464 186.681215 -79.44897461 166.34057617 C-80.61879883 165.29450195 -80.61879883 165.29450195 -81.81225586 164.22729492 C-97.16448912 149.72354433 -104.87253924 131.5448612 -109.44897461 111.34057617 C-109.65135742 110.53104492 -109.85374023 109.72151367 -110.06225586 108.88745117 C-113.50469448 86.21603721 -107.81935321 62.58482313 -94.57397461 43.96557617 C-92.90906849 41.72106854 -91.19557818 39.5219359 -89.44897461 37.34057617 C-88.72838867 36.4356543 -88.00780273 35.53073242 -87.26538086 34.59838867 C-64.89676071 8.24856457 -33.21465061 -0.17831671 0 0 Z " fill="#1F6E9A" transform="translate(1448.448974609375,117.659423828125)"/>
<path d="M0 0 C1.12884109 0.00314209 1.12884109 0.00314209 2.28048706 0.00634766 C14.25506057 0.07506374 25.30657128 0.98159997 36.5 5.5 C37.24507812 5.8000293 37.99015625 6.10005859 38.7578125 6.40917969 C52.19280934 11.99381185 62.9133479 19.52342616 73.5 29.5 C74.11617187 30.05171875 74.73234375 30.6034375 75.3671875 31.171875 C91.44615635 46.13939439 100.51084803 68.96424861 101.60839844 90.64086914 C101.85596733 99.74714311 101.83431923 108.64187282 99.5 117.5 C99.03980469 119.31177734 99.03980469 119.31177734 98.5703125 121.16015625 C91.69472639 146.39340208 74.64058161 166.30114928 52.2890625 179.49072266 C47.51518302 182.18384735 42.56516474 184.41870225 37.5 186.5 C36.38625 186.95826172 36.38625 186.95826172 35.25 187.42578125 C10.79058542 196.45908777 -17.08860403 194.28260552 -41 184.75 C-64.65002017 173.67198102 -85.32571582 154.96823516 -94.40332031 130.01708984 C-103.08878628 104.22403298 -102.29444742 79.28708048 -91.125 54.44140625 C-79.39863833 31.48838582 -58.64688191 14.3504178 -34.6484375 5.44140625 C-33.10639407 4.96900247 -31.55310203 4.53050217 -29.98754883 4.14306641 C-28.38296981 3.72826013 -26.78971833 3.26531474 -25.21606445 2.74536133 C-16.85412831 0.08493254 -8.67773009 -0.05523653 0 0 Z " fill="#1E6E9A" transform="translate(1400.5,334.5)"/>
<path d="M0 0 C0.72574219 0.70769531 1.45148438 1.41539062 2.19921875 2.14453125 C4.29152831 4.24527918 4.29152831 4.24527918 6.75 6.0546875 C23.44407948 19.94945487 32.70581024 42.8455075 34.84375 63.97436523 C35.0220895 66.04447891 35.17395315 68.11437228 35.3125 70.1875 C35.39628906 71.35925781 35.48007813 72.53101563 35.56640625 73.73828125 C36.47196928 99.06483429 24.54675239 120.84758897 8.33203125 139.4609375 C-8.62528283 157.59540096 -34.50809871 168.5717968 -59.1328125 169.40625 C-89.68561241 170.0548981 -115.8036725 162.40954218 -138.44018555 140.78686523 C-155.28238743 124.19245909 -166.74422672 100.56961921 -167.01708984 76.65478516 C-167.0114502 75.79933105 -167.00581055 74.94387695 -167 74.0625 C-166.99436035 73.15161621 -166.9887207 72.24073242 -166.98291016 71.30224609 C-166.52919791 45.66525789 -155.87224685 24.0814839 -138.375 5.5625 C-102.22873263 -29.09490509 -38.32482332 -34.52072975 0 0 Z " fill="#1E6E9A" transform="translate(1277.6875,140.8125)"/>
<path d="M0 0 C6.93 0 13.86 0 21 0 C21 63.36 21 126.72 21 192 C-52.93287363 192 -52.93287363 192 -66.375 186.875 C-67.18445068 186.57005615 -67.99390137 186.2651123 -68.82788086 185.95092773 C-80.31243412 181.48024025 -90.89875196 175.40921766 -100 167 C-100 166.67 -100 166.34 -100 166 C-79.21 166 -58.42 166 -37 166 C-36.4942416 143.63669812 -36.4942416 143.63669812 -47 127 C-54.27854642 121.84609442 -62.98772733 122.38875682 -71.51049805 122.47851562 C-73.92924621 122.49992694 -76.34501505 122.47866468 -78.76367188 122.453125 C-88.26854881 122.43459256 -96.71621895 122.74079829 -104.4375 128.96484375 C-104.953125 129.61582031 -105.46875 130.26679688 -106 130.9375 C-106.53625 131.58589844 -107.0725 132.23429688 -107.625 132.90234375 C-110.59546978 137.43399793 -111.29939374 141.43999669 -111.625 146.8125 C-111.69976563 147.97394531 -111.77453125 149.13539063 -111.8515625 150.33203125 C-111.90054687 151.21246094 -111.94953125 152.09289062 -112 153 C-125.03704001 140.84731062 -131.20787195 118.84700768 -132.203125 101.44921875 C-132.52998711 75.21853475 -124.4208189 51.91350842 -107 32 C-105.37004499 30.62202968 -103.71406507 29.27182408 -102 28 C-102 29.32 -102 30.64 -102 32 C-68.34 32 -34.68 32 0 32 C0 21.44 0 10.88 0 0 Z " fill="#1F6E9A" transform="translate(1899,118)"/>
<path d="M0 0 C33.66 0 67.32 0 102 0 C102 40.26 102 80.52 102 122 C68.67 122 35.34 122 1 122 C1 111.77 1 101.54 1 91 C8.29683679 85.69320961 15.55837325 80.56879636 23.125 75.6875 C24.11910889 75.04304932 25.11321777 74.39859863 26.13745117 73.73461914 C28.14371855 72.43445471 30.15078366 71.13552032 32.15869141 69.83789062 C34.74850277 68.16268011 37.33421126 66.48140183 39.91796875 64.796875 C47.19733134 60.05656797 54.4909803 55.37257413 62 51 C54.76071077 53.01750684 47.77840312 55.53139661 40.74707031 58.16357422 C33.68145756 60.79018075 26.55305573 63.19380406 19.3815918 65.51464844 C14.16800454 67.21708619 9.09318549 69.12285533 4.03344727 71.24145508 C2 72 2 72 0 72 C0 48.24 0 24.48 0 0 Z " fill="#E12627" transform="translate(1797,27)"/>
<path d="M0 0 C3.00416685 2.33657422 4.92941283 4.34220419 5.7890625 8.1171875 C6.0132152 14.65837098 6.0132152 14.65837098 3.9609375 17.59375 C-0.07891407 21.20932492 -4.81656308 23.59012697 -9.75 25.75 C-11.33361328 26.44416016 -11.33361328 26.44416016 -12.94921875 27.15234375 C-20.51803954 30.42467221 -28.12400169 33.61322573 -35.75 36.75 C-36.58015625 37.11996094 -37.4103125 37.48992187 -38.265625 37.87109375 C-40.96795176 38.82710557 -43.07705425 39.04982446 -45.9375 39.0625 C-46.79730469 39.07925781 -47.65710937 39.09601563 -48.54296875 39.11328125 C-53.05694986 38.60195331 -57.39873933 37.0553782 -61.75 35.75 C-61.75 44.33 -61.75 52.91 -61.75 61.75 C-67.69 62.74 -67.69 62.74 -73.75 63.75 C-83.51551887 66.35413837 -91.20790638 70.49675893 -96.5390625 79.34765625 C-100.77464476 87.75050494 -101.41007413 96.37051893 -102.75 105.75 C-113.97 105.75 -125.19 105.75 -136.75 105.75 C-136.863239 94.70972002 -136.95485311 83.66982965 -137.00906086 72.62909889 C-137.03508599 67.50169821 -137.07035401 62.37471758 -137.12719727 57.24755859 C-137.18177046 52.29380577 -137.21147375 47.3404554 -137.22438622 42.38642502 C-137.23358083 40.50226893 -137.2515355 38.61813334 -137.27865028 36.73414993 C-137.56510122 15.99458238 -137.56510122 15.99458238 -129.99409485 7.8644104 C-123.7265385 1.85692672 -117.07045582 0.28073586 -108.66015625 0.24609375 C-107.79796982 0.23610855 -106.93578339 0.22612335 -106.04747009 0.21583557 C-104.22627522 0.20070679 -102.40499788 0.19360815 -100.58374023 0.1940918 C-97.85058072 0.18759058 -95.12118014 0.13322777 -92.38867188 0.07617188 C-80.51014929 -0.03742654 -71.57538021 1.81160989 -60.75 6.75 C-49.39215948 11.90369819 -49.39215948 11.90369819 -37.4375 10.5 C-36.85484375 10.22285156 -36.2721875 9.94570312 -35.671875 9.66015625 C-33.54282171 8.65188508 -31.38179566 7.79442265 -29.1875 6.9375 C-26.16496799 5.7497466 -23.20110058 4.50122265 -20.2421875 3.16015625 C-19.63318604 2.88598877 -19.02418457 2.61182129 -18.39672852 2.3293457 C-16.64188191 1.5358925 -14.8930447 0.72918864 -13.14453125 -0.078125 C-8.44931257 -1.69902903 -4.57034882 -2.07743128 0 0 Z " fill="#E02627" transform="translate(1785.75,104.25)"/>
<path d="M0 0 C1.14603195 -0.01142029 1.14603195 -0.01142029 2.31521606 -0.02307129 C3.92023477 -0.03380213 5.5253229 -0.0367542 7.13037109 -0.03222656 C9.55817594 -0.03125486 11.98280667 -0.07293766 14.41015625 -0.1171875 C24.59445476 -0.19659507 32.03583194 0.76158588 40.1328125 7.49609375 C40.6484375 8.12644531 41.1640625 8.75679687 41.6953125 9.40625 C42.2315625 10.03402344 42.7678125 10.66179687 43.3203125 11.30859375 C49.75147052 21.41208916 46.6953125 32.472669 46.6953125 44.46875 C21.9453125 44.46875 -2.8046875 44.46875 -28.3046875 44.46875 C-28.3046875 15.21664916 -28.3046875 15.21664916 -22.4453125 8.26171875 C-21.82140625 7.73191406 -21.1975 7.20210937 -20.5546875 6.65625 C-19.94109375 6.11355469 -19.3275 5.57085937 -18.6953125 5.01171875 C-12.71148321 1.14960671 -6.96518703 0.00196266 0 0 Z " fill="#E12627" transform="translate(1815.3046875,239.53125)"/>
<path d="M0 0 C0.78288895 -0.0099852 1.56577789 -0.0199704 2.37239075 -0.03025818 C4.02205162 -0.04536878 5.6718032 -0.05248617 7.3215332 -0.05200195 C9.80904582 -0.0585334 12.29249418 -0.11299477 14.77929688 -0.16992188 C24.54672831 -0.27404459 32.45460147 0.52795938 40.64453125 6.50390625 C51.48643187 17.68736434 47.64453125 27.119669 47.64453125 44.50390625 C23.22453125 44.50390625 -1.19546875 44.50390625 -26.35546875 44.50390625 C-26.35546875 16.50390625 -26.35546875 16.50390625 -21.35546875 8.50390625 C-14.88961193 2.17861153 -8.77514985 0.03982779 0 0 Z " fill="#E12626" transform="translate(1713.35546875,239.49609375)"/>
<path d="M0 0 C7.57088918 6.5059729 10.58362998 12.08540987 12 22 C-4.17 22 -20.34 22 -37 22 C-37 25.96 -37 29.92 -37 34 C-30.73 34 -24.46 34 -18 34 C-18 43.9 -18 53.8 -18 64 C-31.25474822 64 -38.94293131 62.4297737 -48.8125 53.4375 C-57.14591921 44.15169002 -59.41973816 35.88261662 -59.265625 23.56640625 C-58.51101109 13.43460482 -53.25573116 6.78761947 -46 0 C-32.47657185 -11.44290074 -13.76318892 -10.7047025 0 0 Z " fill="#E5D8C2" transform="translate(177,126)"/>
<path d="M0 0 C6.17340149 4.19281677 10.72111761 10.33132158 13.08203125 17.4140625 C13.94119503 26.16525929 13.32822394 33.18144733 8.08203125 40.4140625 C2.81319257 46.37014101 -3.65853238 50.67576246 -11.6171875 51.79296875 C-20.54125883 52.17880726 -27.75871442 49.25305888 -34.34765625 43.26171875 C-39.51179052 37.18551101 -42.23918545 29.71024826 -42.13671875 21.8203125 C-41.43229966 14.07170253 -37.27977356 7.39309955 -31.60546875 2.2265625 C-22.12395274 -5.37861139 -10.61379661 -6.13851242 0 0 Z " fill="#E02628" transform="translate(1700.91796875,47.5859375)"/>
<path d="M0 0 C6.11222358 3.56462463 12.83066672 8.92024519 15.21484375 15.8359375 C16.94952519 24.98844717 16.36769936 32.68191856 11.4140625 40.65234375 C6.4997109 47.10108897 0.56111655 51.20797368 -7.375 53 C-15.55318148 54.03175573 -22.3362907 51.60272377 -29.1875 47.1875 C-35.21657383 41.15842617 -39.40284574 34.24135644 -39.75 25.5625 C-39.37063104 17.05588052 -36.50620856 11.13549835 -30.59375 5.01953125 C-21.88553942 -2.90678014 -11.03146438 -4.99730435 0 0 Z " fill="#E02728" transform="translate(1735.375,181)"/>
<path d="M0 0 C6.17340149 4.19281677 10.72111761 10.33132158 13.08203125 17.4140625 C14.10700846 26.42041964 12.00965054 35.07856113 6.39453125 42.2890625 C0.99429788 48.00534006 -6.19703792 51.45152064 -14.04296875 51.7265625 C-22.19587346 51.61911071 -29.23007256 48.10195869 -34.91796875 42.4140625 C-41.34082159 34.02867129 -41.79119902 25.69386189 -40.91796875 15.4140625 C-39.09373268 8.40113103 -33.84506837 3.01932037 -27.921875 -0.91015625 C-18.86117753 -5.64831915 -8.74251424 -5.05625218 0 0 Z " fill="#E02728" transform="translate(1838.91796875,182.5859375)"/>
<path d="M0 0 C6.27 0 12.54 0 19 0 C19.67546875 1.21816406 20.3509375 2.43632812 21.046875 3.69140625 C21.94789365 5.31511694 22.84893661 6.93881414 23.75 8.5625 C24.1934375 9.36236328 24.636875 10.16222656 25.09375 10.98632812 C25.75117188 12.1706543 25.75117188 12.1706543 26.421875 13.37890625 C27.01887207 14.45507202 27.01887207 14.45507202 27.62792969 15.55297852 C29.39962481 18.71271166 31.20271541 21.85475196 33 25 C37.29 16.75 41.58 8.5 46 0 C52.27 0 58.54 0 65 0 C65 13.53 65 27.06 65 41 C61.04 41 57.08 41 53 41 C52.505 28.13 52.505 28.13 52 15 C50.06125 18.5475 48.1225 22.095 46.125 25.75 C45.51672363 26.86213867 44.90844727 27.97427734 44.28173828 29.12011719 C43.79946777 30.00344727 43.31719727 30.88677734 42.8203125 31.796875 C42.32805176 32.69760742 41.83579102 33.59833984 41.32861328 34.52636719 C40.17892756 36.66686989 39.0722439 38.81991903 38 41 C34.49945029 41.62262742 31.48032807 41.81643786 28 41 C25.11295354 38.14510328 23.67921082 34.6587683 22 31 C21.389531 29.78372461 20.77339476 28.57028122 20.15234375 27.359375 C18.39653126 23.92469264 16.69362636 20.46582302 15 17 C14.34 15.68 13.68 14.36 13 13 C12.67 22.24 12.34 31.48 12 41 C8.04 41 4.08 41 0 41 C0 27.47 0 13.94 0 0 Z " fill="#E0D6C1" transform="translate(440,138)"/>
<path d="M0 0 C19 0 19 0 23.41796875 3.33203125 C24.90039062 5.50585938 24.90039062 5.50585938 26.1875 7.8125 C26.65478516 8.53115234 27.12207031 9.24980469 27.60351562 9.99023438 C29.10559356 12.30347515 30.55179985 14.65265313 32 17 C34.64 20.63 37.28 24.26 40 28 C40.33 18.76 40.66 9.52 41 0 C45.29 0 49.58 0 54 0 C54 13.53 54 27.06 54 41 C34 41 34 41 29.484375 37.66796875 C28.01171875 35.49414062 28.01171875 35.49414062 26.75 33.1875 C26.28722656 32.46884766 25.82445312 31.75019531 25.34765625 31.00976562 C23.86031555 28.69725646 22.43118435 26.34767808 21 24 C18.36 20.37 15.72 16.74 13 13 C12.67 22.24 12.34 31.48 12 41 C8.04 41 4.08 41 0 41 C0 27.47 0 13.94 0 0 Z " fill="#E0D5C0" transform="translate(304,138)"/>
<path d="M0 0 C5.28 0 10.56 0 16 0 C21.78599956 10.56361003 27.57078611 21.1284803 33.25 31.75 C33.63212646 32.45761475 34.01425293 33.16522949 34.40795898 33.89428711 C37 38.76776016 37 38.76776016 37 41 C34.89758397 41.13496251 32.7927039 41.23197307 30.6875 41.3125 C29.51574219 41.37050781 28.34398437 41.42851562 27.13671875 41.48828125 C24 41 24 41 22.08203125 38.60546875 C21 36 21 36 21 34 C12.42 34 3.84 34 -5 34 C-5.66 36.31 -6.32 38.62 -7 41 C-11.62 41 -16.24 41 -21 41 C-18.87883843 35.69709608 -16.42841928 30.66588157 -13.875 25.5625 C-13.38797607 24.58780762 -12.90095215 23.61311523 -12.39916992 22.60888672 C-8.51949986 14.90552479 -4.37623147 7.43133645 0 0 Z " fill="#E2D6C1" transform="translate(263,138)"/>
<path d="M0 0 C3.96 0 7.92 0 12 0 C12.01981934 0.83772949 12.03963867 1.67545898 12.06005859 2.53857422 C12.13810612 5.64365834 12.22479635 8.74834539 12.31738281 11.85302734 C12.37454036 13.85886971 12.42168596 15.86498918 12.46875 17.87109375 C12.50742187 19.12792969 12.54609375 20.38476562 12.5859375 21.6796875 C12.6173584 22.84226074 12.6487793 24.00483398 12.68115234 25.20263672 C12.72157869 28.13656482 12.72157869 28.13656482 15 30 C16.88578891 30.30901788 16.88578891 30.30901788 19.02734375 30.265625 C19.81947266 30.26820313 20.61160156 30.27078125 21.42773438 30.2734375 C22.67006836 30.26183594 22.67006836 30.26183594 23.9375 30.25 C24.76185547 30.25773437 25.58621094 30.26546875 26.43554688 30.2734375 C27.22896484 30.27085937 28.02238281 30.26828125 28.83984375 30.265625 C29.56550537 30.26336914 30.29116699 30.26111328 31.03881836 30.25878906 C33.32143629 30.10426899 33.32143629 30.10426899 36 28 C36.51146198 25.09386566 36.51146198 25.09386566 36.51171875 21.6796875 C36.54716797 20.42285156 36.58261719 19.16601562 36.61914062 17.87109375 C36.64169922 16.55238281 36.66425781 15.23367187 36.6875 13.875 C36.72066529 12.53512241 36.75515422 11.19527689 36.79101562 9.85546875 C36.87372777 6.57061518 36.93853273 3.28531978 37 0 C41.29 0 45.58 0 50 0 C50.09238892 4.12670505 50.17184732 8.25073905 50.21972656 12.37792969 C50.2397063 13.77844473 50.2669002 15.17887782 50.30175781 16.57910156 C50.66277546 31.46577044 50.66277546 31.46577044 46 38 C41.9657475 41.11226715 38.40585985 41.44250579 33.46875 41.3984375 C32.39844543 41.40274277 32.39844543 41.40274277 31.30651855 41.40713501 C29.8037842 41.40916884 28.30102297 41.40368669 26.79833984 41.39111328 C24.50688101 41.37504824 22.21718566 41.39098337 19.92578125 41.41015625 C18.46093363 41.4081737 16.99608711 41.40432976 15.53125 41.3984375 C14.85090698 41.40451019 14.17056396 41.41058289 13.46960449 41.4168396 C9.13960323 41.35327461 6.38719917 40.73139563 3 38 C-0.2669927 33.9834972 -0.40390405 30.27971787 -0.29296875 25.29296875 C-0.28872391 24.56757401 -0.28447906 23.84217926 -0.28010559 23.09480286 C-0.26339543 20.79198109 -0.2257596 18.49005447 -0.1875 16.1875 C-0.17244316 14.6204554 -0.1587565 13.053397 -0.14648438 11.48632812 C-0.11351731 7.65721043 -0.06178992 3.82875666 0 0 Z " fill="#DFD5C0" transform="translate(384,138)"/>
<path d="M0 0 C15.18 0 30.36 0 46 0 C46 3.3 46 6.6 46 10 C40.39 10 34.78 10 29 10 C29 20.23 29 30.46 29 41 C25.04 41 21.08 41 17 41 C17 30.77 17 20.54 17 10 C11.39 10 5.78 10 0 10 C0 6.7 0 3.4 0 0 Z " fill="#E4D7C2" transform="translate(203,138)"/>
<path d="M0 0 C3.96 0 7.92 0 12 0 C12 13.53 12 27.06 12 41 C8.04 41 4.08 41 0 41 C0 27.47 0 13.94 0 0 Z " fill="#DFD4C0" transform="translate(365,138)"/>
<path d="M0 0 C5.61 0 11.22 0 17 0 C15.57689922 9.96170546 10.9636418 17.6946468 3 24 C2.01 24.33 1.02 24.66 0 25 C0 16.75 0 8.5 0 0 Z " fill="#DDD3BF" transform="translate(172,160)"/>
<path d="M0 0 C0.66 0 1.32 0 2 0 C3.0076952 1.7664657 4.00591714 3.53833823 5 5.3125 C5.8353125 6.79169922 5.8353125 6.79169922 6.6875 8.30078125 C8 11 8 11 8 14 C3.38 14 -1.24 14 -6 14 C-5.16184862 9.80924309 -4.49330151 7.71926157 -2.4375 4.1875 C-1.98246094 3.39730469 -1.52742188 2.60710937 -1.05859375 1.79296875 C-0.53458984 0.90544922 -0.53458984 0.90544922 0 0 Z " fill="#1F5784" transform="translate(270,149)"/>
<path d="M0 0 C2.31 0 4.62 0 7 0 C7 1.32 7 2.64 7 4 C4.69 4 2.38 4 0 4 C0 2.68 0 1.36 0 0 Z " fill="#7B93A1" transform="translate(511,175)"/>
<path d="M0 0 C-4.58031088 2.99481865 -4.58031088 2.99481865 -7 4 C-9.4375 3.25 -9.4375 3.25 -11 2 C-9.73392393 1.46770674 -8.46189588 0.94955456 -7.1875 0.4375 C-6.47980469 0.14746094 -5.77210937 -0.14257812 -5.04296875 -0.44140625 C-3 -1 -3 -1 0 0 Z " fill="#604A75" transform="translate(1860,78)"/>
</svg>
